<svg id="Layer_1" data-name="Layer 1" xmlns="http://www.w3.org/2000/svg" viewBox="0 0 1920 1080"><defs><style>.cls-1{fill:#939598;}.cls-2{fill:none;stroke:#bcbec0;stroke-linecap:round;stroke-linejoin:round;stroke-width:0.75px;}</style></defs><title>topo_background6</title><rect class="cls-1" x="-12.67" y="-12.92" width="1944" height="1106"/><path class="cls-2" d="M711.91,1080.36c.39-8.68,4.46-16.16,9.17-22.87,7.35-10.46,15.79-20.15,23.84-30.11S762.41,1009,769,997.94c7.33-12.31,6.86-24.88,2.28-37.52s-13.86-21.35-24.86-28.58c-7.37-4.83-14.19-10.38-17.46-19a41.59,41.59,0,0,1-2.49-10c-1-9.38-1.24-18.76,1.4-28,2.07-7.22,6.69-11.49,14-13,6-1.24,12-2.54,18-4,14.19-3.47,23.58-12.25,28.51-26,5.44-15.13,13.18-28.83,24.41-40.58a188.46,188.46,0,0,0,17.49-21c17.22-24.25,40.69-39.46,68.6-48.37,8-2.56,16.44-4,24.45-6.64,18.49-6.13,34.5-16.58,49-29.41,2.31-2,4.63-4,7-6,4.65-3.83,8.24-3.95,13.51-1,7.77,4.29,15.41,8.94,23.56,12.34,5.93,2.48,12.54,3.42,18.93,4.63,6.78,1.28,13.83,1.4,20.45,3.2q19.23,5.24,28.64,23.31c7.64,14.66,14.47,29.59,16.77,46.06a91.46,91.46,0,0,1-.82,31,71,71,0,0,0-1.49,12.49c-.23,10.22,4,13.47,13.44,13.74,8.46.24,17.05-1.39,25.47-2.83,10.56-1.8,21.06-4,31.5-6.46,12.8-3,18-12.44,19.43-24.46.79-6.78.71-13.66,1.09-20.49.28-5,.87-10,1-15,.19-12.72-1.75-25.13-4.82-37.52-4.35-17.53-12.8-32.62-24.06-46.53-7.69-9.5-11.79-20.68-13.13-32.92-1-9.37-1.91-18.85-4.18-27.95-1.61-6.47-5-12.65-8.34-18.51a142.37,142.37,0,0,0-54-53.31c-7-4-15.46-5.54-23.39-7.66-13.46-3.6-25.5-9.28-32.37-22.12-3.3-6.16-5.35-13-8.12-19.43-6.23-14.5-14.72-27.29-27.46-37-14.75-11.29-24.32-26-31.33-43.34C951,388.94,936.88,372.14,913.89,365c-11.51-3.61-23-5.41-35-2.1-14.06,3.87-24.21,12-31.57,24.54-8.35,14.22-12.42,30.12-19,45-4.31,9.82-9.56,19.23-13.86,29.05-5.63,12.87-11.75,25.67-15.74,39.07-3.06,10.29-3.34,21.27-2.12,32.42,2,18.47,12.09,32.08,23.85,44.91,11.35,12.38,20.59,25.84,27.12,41.47,6.86,16.43,5.39,31.27-4.7,45.57-2.26,3.21-4.71,6.3-7,9.51-6.52,9.3-12.8,18.7-15.53,30-4.25,17.49-15.91,27.79-32.46,33.55-11.1,3.87-22,8.43-33,12.39-6.9,2.47-14,4.44-21,6.54-9.15,2.75-18.13,5.78-26,11.49a32.1,32.1,0,0,0-11.08,36.55c2.72,7.64,4.55,15.6,6.57,23.48,1.75,6.87-1.12,10.84-8,10.36a99,99,0,0,1-16.49-2.93c-11.38-2.81-22.59-6.39-34.06-8.72-4.38-.89-9.44.2-13.92,1.4a250.81,250.81,0,0,0-24.5,8c-14.6,5.6-29.36,7.26-45.05,5.71-13.86-1.37-28-.37-42-.26-11.16.1-21.92,2.77-32.48,6.05-9.52,3-17.85,7.79-20.42,18.45-.81,3.34-.42,7-.6,10.47-.68,12.82,2.16,25.63-.84,38.53-2.72,11.67-9,20.39-19.21,25.85C430.11,949.69,413.76,957,398,965.52a142.85,142.85,0,0,0-23.95,16c-10.83,9.07-20.76,19.21-31.14,28.82-3.21,3-6.89,5.46-9.92,8.59a61,61,0,0,0-8.94,11c-3.45,5.85-1.64,12.64,4.45,15.26,6.53,2.81,13.12,5.38,21,3.94,7.09-1.3,14.7-1,21.92-.1,10.92,1.35,18.08,8.17,22,18.34,1.64,4.27,3,8.65,4.52,13"/><path class="cls-2" d="M465.94,1.5c4.17,5.67,8.54,11.19,12.46,17,9.79,14.58,19.5,29.21,29,44C517.69,78.52,532,89.21,550,94.94c14.26,4.56,28.73,8.44,42.94,13.16,7.69,2.55,15.79,4.66,22,10.41,3.61,3.32,4.39,11.55,1.49,15.45a50.16,50.16,0,0,1-6,7c-16.71,15.43-30.42,33.38-44,51.48-6.68,8.91-14.23,17.16-20.86,26.1C537.23,229.68,531.3,242.25,526,255c-7.38,17.89-17,33.68-32.39,46.21-10.2,8.3-15.88,20.45-17.62,33.75-1.42,10.78-2.07,21.65-3.1,32.48-.88,9.3-3.19,18.14-8.49,26-5.45,8.09-14.73,11.15-25.45,6.41-7.22-3.19-14-7.26-21-10.91-8.33-4.33-16.93-8-26.5-7.93a42.83,42.83,0,0,0-27.94,10c-10.69,9.06-18.19,20.6-23.5,33.46-6.35,15.41-14.73,29.26-29.09,38.4-10.78,6.86-22,13-32.94,19.6-5.77,3.49-11.54,7-17,11-11.12,8.14-13.2,19.77-8.23,32.52,6.17,15.82,18.71,22.46,33.69,26.4,14.31,3.76,28.59,7.66,43,10.92,11.72,2.65,23.78,3.89,35.44,6.76,10.79,2.65,21.06,6.7,29.15,15.22,5.15,5.43,7.8,11.86,9.24,18.64,4.13,19.53,10.87,38.29,15.92,57.53,1.87,7.13,1.38,14.93,1.68,22.44.49,12.11,6.93,19.17,19,18.88,23-.56,45.19-5.22,66-15.42,9.19-4.5,15.67-11.92,21-20.46,6.88-11,12.21-22.72,13.79-35.52,1.76-14.24-1.37-27.79-10.33-39.46-9.72-12.68-22.66-20.42-38.49-21.82a356.22,356.22,0,0,0-42-1c-16.42.49-26.26-8-31.43-21.68a68.66,68.66,0,0,1-3.63-37c2.12-11.81,8.18-21.54,15.65-30.41,5.51-6.56,11.78-12.66,20.42-15a126.66,126.66,0,0,1,19-4c17.79-2,36-2,52.43-10.2,9.62-4.77,18.7-10.6,28.06-15.89a82.74,82.74,0,0,1,38.49-11c12.83-.4,25.71-.1,38.48-1.18,12.25-1,22.2-7.42,30-16.86,7.08-8.62,13.17-18.05,16.84-28.53,3.29-9.39,5-19.2,2.84-29.46-1.73-8.18-2.35-16.62-3.09-25-.78-8.88,3-16,8.87-22.56,5.52-6.17,10.57-12.81,15.53-19.46,6.27-8.39,7.84-18.48,9.54-28.46,4.41-25.87,2.53-52,3.08-78,.22-10.81-4.58-16.17-14.6-18.38-8.43-1.86-16.25-5-22.88-10.23a163.51,163.51,0,0,1-19.47-18c-6.06-6.69-5.9-14.77-.57-22.35a84,84,0,0,1,8-9.49,6.75,6.75,0,0,1,9.44-.52c13.87,11.78,27.65,23.68,41.53,35.45,3.18,2.68,6.4,5.51,10.05,7.38a13.6,13.6,0,0,0,11,.75C745.36,135,754.93,128.79,759,116c1.48-4.67-.1-8.94-1.26-13-3.66-12.73-9.39-24.69-18.46-34.42-6.32-6.79-15.33-9.45-24.34-8.43-14.57,1.67-27,8.75-38,18.29-1.61,1.4-3.28,2.75-5,4-3.46,2.5-8.74,1.94-12-1-11.46-10.21-23.19-20.13-34.42-30.58C614.59,40.79,608.67,27.66,605,13.48c-1-3.9-1.39-8-2.06-12"/><path class="cls-2" d="M1920.26,283c-13.1,2.69-22.3,10.64-29.53,21.48-7,10.44-15.56,19.47-27.53,23.85-9.37,3.43-19.26,5.24-29.44,2.71-9-2.21-18.06-3.77-27-6.1-17-4.43-29,3.18-33.52,18.06-4.46,14.65-9.07,29.17-15.8,43.08-7.65,15.79-3.88,31.29,6,44.75,6.15,8.36,14.34,15.26,21.82,22.61,4.79,4.71,10.07,8.92,14.93,13.56,14.1,13.46,29.14,25.58,45.94,35.61,8.21,4.9,16.25,10.63,21.9,18.49a45.31,45.31,0,0,1,7.47,16.42c3.27,15.2,6,30.55,8.07,46,2.12,16.09,2.47,32.26-6.41,46.94-2.53,4.19-5.14,8.5-8.53,12-18.33,18.66-36.67,37.33-55.55,55.44-6.71,6.43-13.07,13.41-21.79,17.79-10.4,5.22-20.43,4.22-30.55.29-17.57-6.82-30-19.34-38.5-36-6-11.81-14.77-19.71-28.49-21.63-6-.83-11.69-3.17-17.52-4.87-12.7-3.69-21-12.72-28.54-22.95-9.36-12.74-14.61-27.54-21.4-41.56a63,63,0,0,0-15.58-20.44c-7-6-15.75-7.75-24.46-9.56-5.54-1.16-11.18-2.15-16.47-4.07-12.51-4.53-17.48-15.34-21.58-26.88-3.61-10.13-7.06-20.26-12.81-29.6-8.91-14.5-21.49-22.36-38.13-24.43-17.2-2.14-34.19-5.17-49.49-14-12.46-7.2-25.15-14.08-39-17.81-13-3.48-26.25-5.74-39.47-8.05-4.53-.79-9.33-.38-14-.07-7.64.52-13,8.23-9.93,17.42,1.79,5.29,4.46,10.28,6.38,15.54,2.85,7.77,6.35,15.47,7.78,23.53,1.47,8.26-1.92,16.14-5,24-6.4,16.13-16.61,29.84-26.32,43.83-8.28,11.91-12.2,25-13.31,39.09a102.06,102.06,0,0,0,0,14c.6,9.87,6.29,15.54,15.44,18.55a59.58,59.58,0,0,0,36,.45c7-2,14.07-3.78,21-6,16-5.23,29.46-1.93,41.63,9.92,11.61,11.32,16.25,25.14,17.9,40.61,2.38,22.26,7.6,43.59,19.32,63.09,3.3,5.48,6.64,11.11,7.89,17.86,1,5.57.22,10.44-2.88,14.43-4.25,5.46-9.53,10.1-14.35,15.11-8.17,8.5-16.42,16.92-24.47,25.52-5.81,6.2-12.09,12.14-16.88,19.08-11.34,16.43-12.17,27.13-1,45.32,3.5,5.71,9.56,8.57,15.81,11.24a87.56,87.56,0,0,0,25.58,6.2c12.27,1.29,22.25-4.48,31.5-11.85,7.43-5.92,14.9-11.8,22.5-17.49,14.8-11.09,31.87-17.66,49-23.92,8.45-3.09,17.28-5.18,26-7.59,12.83-3.56,25.17-1.53,37,4,9.63,4.55,18.8,10.15,28.58,14.3a56.79,56.79,0,0,0,34,3.7c20.79-4.19,41.71-7.77,62.46-12.18a81.12,81.12,0,0,0,27.56-11.8c8.63-5.65,17.55-10.86,26.48-16a30.8,30.8,0,0,1,17-4.08c4.16.17,8.35-.22,12.5.08,12,.86,24.07,1.43,36,3.08,15.57,2.14,31,5.23,46.52,7.84,2.29.38,4.66.36,7,.53"/><path class="cls-2" d="M967.88,1.5q3.5,16.76,7,33.5c2.67,12.81,8.9,23.75,17.48,33.51,7.2,8.19,12.44,17.63,17,27.46a38.34,38.34,0,0,0,4.51,7.48c4,5,9.59,4.85,14.49.59,8.47-7.37,11.64-17.49,14.94-27.56,6.09-18.6,15.71-35.09,29.57-48.93,6.68-6.67,14.78-8.91,24.47-7.77,9.3,1.1,17.81,4.12,26.5,7.13,13.85,4.79,27.87,9.35,42.48,10.92a84.27,84.27,0,0,0,30.49-2.31c3.63-1,7.3-2.22,11-2.38a10.69,10.69,0,0,1,9.94,5.38c6.72,11.79,13,23.85,15,37.48,1.44,10.27,3.15,20.69,2.83,31-.45,14.41-.86,29-5.19,43-5.44,17.65-17.54,27.66-35,32q-19.54,4.84-39,10c-19,5-28.39,18.62-31.37,37-2,12.55-2.64,25.33-4.18,38-1.45,12-3.61,24-4.87,36-1.52,14.62-4.1,29.18-3.1,44,.41,6.13,9,13.36,16,14.06,12.32,1.22,22.64-2.7,31.51-11.06,11.15-10.51,22.21-21.13,33.53-31.46,8.45-7.7,16.87-15.55,27.95-19.54,12.24-4.41,24.69-4.46,37.52-3.21,10.09,1,20,2.25,29.46,5.76,23.22,8.58,37.61,25,41.88,49.47a188.38,188.38,0,0,1,3,31c.1,15.09-5,27.88-17.63,37.75-6.93,5.42-12.67,12.89-17.52,20.36-8.9,13.72-21,23.69-34.77,31.71-8.41,4.91-18.21,6.67-27.89,8.2-23.21,3.67-46.67,6.76-68.42,16.15a99.46,99.46,0,0,0-36.3,26.55c-1.89,2.21-1.46,8,0,11.14,2.31,5,6.2,9.29,9.77,13.59,7,8.45,14.82,16.31,21.29,25.15,5.35,7.31,7.44,16.2,7.67,25.38.3,11.83.27,23.69,1.12,35.48.67,9.35,4.74,17.71,9.87,25.51,5.59,8.5,12.16,16.5,14.94,26.51,2.61,9.42,4.52,19,7.11,28.47a185.7,185.7,0,0,1,6.2,46.5c.24,14.79,3.05,29.44,6,44.05,3.22,15.86,10.09,29.77,18.12,43.51a49.63,49.63,0,0,1,6.12,35.43c-2.9,14.86-4.79,29.7.47,44.5,3.62,10.19,9.06,19.34,17.61,25.86,10.94,8.34,23.23,6.24,34.84,1.48,9.63-3.94,18.48-9.78,28.13-13.65,7.5-3,15.59-5.06,23.93-2.22,7.07,2.41,11.9,9.41,12.59,17,.84,9.09-2.29,16.83-7.18,24-4.29,6.26-9.51,11.88-13.84,18.11s-8.43,12.35-8.13,20.44a29.73,29.73,0,0,0,7.57,19c6.67,7.62,15.14,12.72,23.91,17.63,11,6.12,22.4,11.78,30.55,21.88.76.94,1.35,2,2,3"/><path class="cls-2" d="M1159.85,1080.36c3.5-6,7-12,10.5-18,4.74-8.21,8.05-16.7,8.71-26.48.73-10.64-8.12-17.83-15.73-19.92a56.49,56.49,0,0,0-34,.89,81.29,81.29,0,0,1-25,4.13c-6.51.13-13,1.25-19.5,1.87a24.94,24.94,0,0,1-4.49,0c-3.89-.33-6-3.43-4.43-6.94,1.84-4,4.42-7.62,6.39-11.55a40.12,40.12,0,0,0,4.59-20c-.53-12.15-.56-24.33-1.12-36.49a171.53,171.53,0,0,0-2-18.49c-1.4-8.82-6.77-15.09-14.49-18.91-11.82-5.85-23.87-11.27-36-16.54-12.74-5.55-25.73-10.51-38.45-16.11-11.75-5.18-20.61-13.12-23.59-26.42-1.6-7.11,1-13.62,7-17.06,6.91-3.92,14.58-3.85,22-4.31,7.63-.48,15.21.11,22-4.58a62.22,62.22,0,0,0,21.44-25.57c3.69-7.91,5-16.43,6-25,1.82-15.56-10.3-31.21-26-34-14.1-2.54-28.37-2.75-42.49-1.76-21.66,1.51-42.39,7.63-62.51,15.78-12.87,5.22-24.59,12.15-34.51,22-7.09,7-11.42,15.82-16,24.49-3.78,7.11-7.71,14.17-12,21-6.18,9.77-4.34,18.08,4.08,26.51,6.75,6.75,15.26,10.59,24,14,20.23,7.94,34.42,22.52,45,41,3.23,5.68,3.55,12,3.62,18.47.18,14.5-2.67,28.21-9.59,41-6.24,11.55-16.37,17.48-29,19.44-4.77.74-9.74,1.46-14.47.91-8.71-1-11.17-8.48-14-15.33-3.5-8.33-7.51-16.26-14.4-22.58-9-8.26-21.4-8.27-29.56.57-3.95,4.28-4.36,13.58-.46,20a40,40,0,0,0,23.95,18c3.54,1,6.93,2.72,10.52,3.4,8.52,1.61,11.88,7.41,14.1,15a215.69,215.69,0,0,0,8.45,23.5c7,16.51,20,25.44,37.44,27.37,10.74,1.19,21.65.78,32.48,1.17,17.67.63,35.33,1.84,53,1.78,9.84,0,19.73-1.74,29.48-3.41,8.73-1.49,13.48,1.7,14,10.62q.5,8.25,1,16.49"/><path class="cls-2" d="M1477.82,1080.36c.46-12.78-1.49-25.35-2.85-38-.78-7.2-.42-14.48,2.7-21.54,2.78-6.28,7.6-9,13.65-10.42a63.79,63.79,0,0,1,26.5-.57c6.12,1.1,12.38,1.44,18.48,2.62,10.18,1.95,18.74,7.36,26.46,14,6.07,5.22,11.83,10.82,17.52,16.47,11.55,11.48,25.27,18.39,41.52,19.93,9,.86,18,1,27,2.13,8.56,1.06,17.06,2.7,25.5,4.46,8.67,1.82,16.79,5.55,26,5.62,11.39.09,21-3.93,30-10.22,9.49-6.7,16.44-15.93,23.51-25,8-10.25,16.54-20,28.06-26.41a49,49,0,0,1,23-6.53c8.49-.16,17-.29,25.49.05,6.68.26,13.32,1.37,20,1.87a13.6,13.6,0,0,0,11.49-4.46c4.55-5,10.53-8.82,13-15.51,1.54-4.25,3.29-8.57,3.9-13,.87-6.43.87-13,1.12-19.48.39-10.5.53-21,1.06-31.49.56-11.16-.66-22.07-4.64-32.46-3.17-8.29-1.63-15.82,1.54-23.56,2.56-6.25,4-13.55,1.19-19.3-3.25-6.62-9.58-10.94-17.6-12.83-19.21-4.55-37.39.25-55.49,5.28-12.68,3.52-24.88,8.78-37.59,12.17-8.37,2.24-17.27,2.59-25.94,3.69q-20.23,2.57-40.49,5c-9,1.07-18,1.88-27,3-16.55,2.13-31.43-2.88-46-9.93a135.33,135.33,0,0,0-21-8c-8.94-2.6-18-1.29-27,.91-20.65,5.11-40.8,11.89-57.32,25.68-9.16,7.65-16.73,17.27-24.62,26.34-7.69,8.84-15.41,17.73-26.11,22.82-11.11,5.28-22.68,8.48-35.47,6.31-9.51-1.61-19.29-1.67-29-2.15-12.85-.63-17.09,5.23-20.44,14.48-2,5.4-3.6,10.93-5,16.49-4.16,16.37-12.46,30.37-23.46,43.05-4.7,5.43-8.58,11.75-7.44,19.41a22.75,22.75,0,0,0,4,9.93c5.6,7.5,13.71,11.9,21.88,16.09,11.61,6,23.22,12.05,32.42,21.57,3.12,3.22,5.41,7.26,8.07,10.92"/><path class="cls-2" d="M1196.35,1079.86c7.17-20.66,14.55-41.25,21.35-62a45.1,45.1,0,0,0,1.88-16.43c-.22-3.42-2.43-7.28-4.87-9.88A97.38,97.38,0,0,0,1200.29,979c-10.45-7.46-15.21-17.91-17.49-30.07-1.92-10.21-3.5-20.59-6.65-30.44a109.82,109.82,0,0,1-5.37-35.56,130.83,130.83,0,0,0-1.07-20.48c-.91-6.41-7.52-12-13.86-12.45-7.6-.52-15.08.19-22,3.92-10,5.38-19.86,11-30,15.94-10,4.91-20.47,8.89-32,8s-25-7-27.57-21.44c-1.27-7,1.29-13.09,4.15-19,5.73-11.79,11.89-23.38,17.93-35s9.82-23.82,8.39-37c-1.62-15-6.39-28.6-19.35-38.07a31.87,31.87,0,0,0-17.06-6.27c-19.81-1.09-39.66-2.17-59.48-1.85-8.69.14-17.45,3.29-26,5.78-12.44,3.64-24.68,8-37,11.9-22.37,7.13-42.13,18.28-57.52,36.48-9.83,11.63-19.81,23.16-30,34.47-6.6,7.3-12,15.19-13.33,25.06-1.17,8.89,2.36,16.53,8.4,23,7.26,7.73,15.17,14.92,21.8,23.16,4.32,5.37,7.14,12.05,10.08,18.39,2,4.32.57,7.49-3.93,8.86a175.24,175.24,0,0,1-19,4.54c-9.28,1.73-18.65,3-28,4.57-5.72,1-10.56,4.1-12.74,9.1a26.83,26.83,0,0,0-1.58,13.86c2.07,14.36,5.35,28.51,10.87,42a111,111,0,0,0,7.54,15.46c4.16,6.9,10.47,11.4,17.88,14.61,8.1,3.52,16.72,6.41,23,13,5.68,6,11,12.42,16,19,12,15.52,27.85,24.51,47,27.35,9.07,1.34,18.31,1.51,27.48,2.1,12.49.8,25,1.49,36,8.48.32.2,1-.13,1.48-.22"/><path class="cls-2" d="M1209.85,1.5c1.5,4.5,2.69,9.13,4.57,13.47,2.45,5.64,5.7,6.55,11.94,5.64a107,107,0,0,1,18-1c6.82.16,12,4.3,16.45,9A87.69,87.69,0,0,1,1269.31,39c14.27,20.33,33.77,32.11,58,37.12,12.23,2.53,24.07,1.32,36-.68,9.28-1.55,18.48-3.39,28-2,13.63,2,21.31,11.54,27.92,22.08,13.5,21.53,23.09,45,32.6,68.44,2.13,5.25,5.19,10.17,6.85,15.54,3.08,10,6.39,20.16,7.88,30.5,1.89,13.13,7.26,24.05,15.67,34,7.49,8.87,12,19.61,17,30,5.76,11.81,12.45,23.13,21.2,32.83,6.76,7.49,14.93,14,25.83,14.52a28,28,0,0,0,10.46-2,123.05,123.05,0,0,0,12.53-5.9c8.67-4.27,18.11-5.17,27.48-6.6a131.26,131.26,0,0,0,22-5c10.29-3.44,15.06-12.07,18-21.87,3.47-11.4,2.9-23,.86-34.46a269.83,269.83,0,0,1-4-45c-.14-14-2.81-27.74-8.94-40.47-5.13-10.67-8-21.69-6.88-33.52,1-10,4.94-19.07,9.36-28,7.47-15.18,19.34-25.1,35.11-30.39,10.38-3.49,20.6-2.35,31,1.26,12,4.16,22,11.37,32.58,17.94a185.8,185.8,0,0,0,31.41,15.06c15.3,5.88,26.58,15.78,33.88,30.19,8.71,17.17,20.33,32.12,33.52,46,7.16,7.53,13.86,15.47,21.08,22.93,7.41,7.67,16.15,13.65,27,14.87a84.52,84.52,0,0,0,20-.46c9.23-1.15,18.34-3.2,27.51-4.87"/><path class="cls-2" d="M1.5,927.88c4.17,2,8.51,3.71,12.46,6.06,9.76,5.79,17.59-1.88,17.89-10.56.38-11,1.13-22.16-2.29-33-1.57-5,.34-9.31,5.48-10.84,9-2.67,18.22-4.81,27.47-6.57,19-3.6,38.68-.88,57.45-6.17a191.26,191.26,0,0,0,23.48-8.49c8.35-3.58,16.44-7.78,24.52-11.95a29.61,29.61,0,0,0,12.59-11.91c3.92-6.91,2.45-13.64.44-20.55-2.22-7.64-4.77-15.23-6.41-23-2.7-12.8-2.72-25.48,4.92-37,5.49-8.25,13.36-13.29,22.43-17.12,12.88-5.43,26.61-6.92,40-9.94,10.88-2.44,21.67-5.31,32.51-7.94,15.16-3.69,30.49-6.77,45.45-11.16,17.3-5.09,34-11.8,46.06-26.32,6.57-7.88,9.65-17.13,10.89-27a119.13,119.13,0,0,0,1-18.49c-.29-9.3-2-18.48-5.94-27-6.44-13.74-17.93-21.45-32-26-15.6-5.09-31.54-8.15-48-6.89-8.58.65-16.25,4.45-23.49,8.93-9.07,5.61-19,9-29.5,8.75-8.2-.21-16.34-2.45-24.51-3.77-10.33-1.68-20.62-3.72-31-4.88-8.26-.93-16.65-.75-25-1.13-11-.5-20.27,4.09-28.41,10.61-11.57,9.29-19.56,21.43-24.55,35.4a184.45,184.45,0,0,1-16,34.51c-7.42,12.17-11.21,25.67-14.78,39.41-2.94,11.31-8.49,21.92-12.13,33.1s-7.4,22.79-9.41,34.49C49.68,792,39.09,806.18,19.48,813.35c-5.88,2.15-12,3.71-18,5.55"/><path class="cls-2" d="M443.94,1.5c4.45,10,11.95,17.93,18.48,26.51,7.43,9.76,14.64,19.69,22,29.47,7.1,9.39,13.94,19,21.58,27.93,9.42,11,21.65,18.67,34,26,7.31,4.34,13.33,10,18.86,16.18,5.38,6,5.1,13.66,3.47,20.9a60.15,60.15,0,0,1-16.9,30.5c-5.59,5.42-11.38,10.62-17,16-8.76,8.47-12.15,19.45-14.56,31-2.87,13.66-7.22,26.85-16,37.94-4.31,5.41-9,10.81-14.52,14.92-14.29,10.67-20.93,25.3-24.48,42.12a235,235,0,0,1-7.52,27.48c-4.32,12.67-11.67,18.74-27.42,15.72-10.31-2-21-2.28-31.46-3.16-13-1.1-26-2.27-39-2.91-5.4-.26-11.9-3-15.84,3-2.17,3.29-2.85,7.56-4.14,11.41-3.69,11-7.13,22.07-11.1,33-2.18,6-5.2,11.72-7.92,17.52a58.07,58.07,0,0,1-20,23.54C279.7,456.71,264,465.32,246.9,470.73c-9,2.84-18.6,3.5-27.93,5.22-12.25,2.26-24.15.22-35.44-4.15A151.74,151.74,0,0,1,138.45,445c-9.06-7.86-17.84-15.9-24.49-26-6-9.13-8-19.39-9-30-1.5-17.22-1.87-34.47-5.78-51.54-6.07-26.4-22.64-42.34-46.67-52.56-16.52-7-33.68-7.2-51-6.88"/><path class="cls-2" d="M278,1080.36c.66-11,2-22,1.79-33a205.87,205.87,0,0,0-3.43-32c-3-16.43-7.24-32.62-10.25-49-2.56-14-2.58-28.27-2.08-42.47,1.28-36.3,11.77-68.87,39-94.48,11.5-10.82,24.86-18.64,39.47-24.56,9.83-4,19.34-8.61,25.53-17.94,5.66-8.51,7.76-18.17,8.86-28,.65-5.76.32-11.66.07-17.48-.3-7.15-4.33-11.84-11-13.94-9.43-3-19-4.8-29-2.67-4.69,1-9.71.35-14.46,1.19-12.7,2.26-25.48,4.37-38,7.58-11.2,2.89-21.89,7.78-33.09,10.65-9.43,2.41-19.32,3-28.94,4.74-8.15,1.48-15.95,3.56-22.61,9.33A28.49,28.49,0,0,0,192,789.9c3.48,9.17,6.81,18.41,10.54,27.48,6.73,16.4-.33,31.1-15.59,38.42-9.75,4.67-20.09,8.12-29.91,12.68-8.37,3.89-16.42,8.49-24.53,12.93-13.27,7.28-26.7,14.39-38.45,24C86,912.09,83.18,921,84.46,931.39c.91,7.3,2.49,14.48.68,22-1.41,5.93-4.9,10.25-8.72,14.39-3.67,4-8.08,7.25-11.9,11.09-15.14,15.24-29.1,31.4-38.53,51a35.5,35.5,0,0,0-3,20c1.21,10.18,2.63,20.34,4,30.5"/><path class="cls-2" d="M1284.84,1.5c4.11,19.87,9.9,39.12,27.61,51.33,11,7.59,23.67,11.3,37.38,8.15,10.51-2.42,21-5.22,31.51-7.44,23.41-4.93,33,0,44.86,18.53,8.64,13.59,15.93,28,24.18,41.88,6.18,10.36,12.52,20.67,19.54,30.46,8.5,11.84,20.42,20.05,32.37,28.1q12.66,8.52,25,17.49c13,9.49,21.62,22.16,26.58,37.45,1.44,4.46,3.88,8.59,5.37,13,2.31,6.86,7.15,11.14,13.6,13.36,5.48,1.89,11.24,3.57,17,3.94,9.86.64,16.89-5.05,17.8-14.84a132.53,132.53,0,0,0-.07-28.44c-1.11-8.82-3.94-17.53-6.9-26-2-5.63-5.22-10.9-8.4-16-7.84-12.64-9.53-26.13-4.83-40,6.9-20.31,14.19-40.51,22.09-60.45,2.72-6.84,7.17-13.26,11.93-19,8.62-10.32,17.81-20.18,28.83-28.16,9.69-7,20.61-8.94,32-7.8,7.74.78,12.44,7.13,16.38,12.94,11.21,16.53,26.17,29,42.15,40.38,8.19,5.86,17.56,8.77,27.46,7.36,12.62-1.79,18.85-6.77,23-19.86a76.51,76.51,0,0,0,3.64-24.48c-.27-13.42-5.44-19.78-18.56-22.55-7-1.46-13.65-.45-20.52.47-14.65,2-29.27,2.84-44-.2-6.08-1.25-8.17-6.37-12.45-9.21"/><path class="cls-2" d="M684.41,1079.86c2.55-15.39,10.51-28.09,20.59-39.41,10.59-11.89,18.68-25.35,26.33-39.12,3.47-6.24,6-13,9.09-19.45,4.17-8.78-.78-19-7-23.48-3.42-2.44-6.93-4.77-10.49-7a84.35,84.35,0,0,1-31.38-34.57c-7.09-14.4-18.92-20.6-34.1-21.93a49.82,49.82,0,0,1-28.88-12.15c-14.67-12.85-32-19.18-50.61-22.86-9.17-1.81-18.26-4.29-27.51-5.37-19.92-2.33-39.17-.31-55.39,13a24,24,0,0,0-9,17.38c-.67,14.82-.68,29.67-1.16,44.49a117.26,117.26,0,0,1-1.45,12.5c-1.52,10.83-9.94,16.44-17.55,22.42s-16.45,11.3-21.3,20.15a124.33,124.33,0,0,0-10,23c-4.7,15.33-9.13,30.82-12.4,46.5-1.77,8.53-.92,17.61-1.25,26.44"/><path class="cls-2" d="M251,1080.36c.77-16.95-4.15-32.89-8.37-49-2.59-9.9-4.31-20.12-3.57-30.46.54-7.52,1.9-15,2.35-22.51a118.57,118.57,0,0,0,0-20.47c-1.33-11.73-3.65-23.33-5.33-35-1.81-12.64-2.86-25.42-5.17-38-2.24-12.18-7.58-15.71-19.84-13.95-11.23,1.62-22.48,3.38-33.48,6-16.17,3.92-30.66,11.32-41,24.92-7.55,10-10.83,21-8.85,34,1.42,9.29.49,18.86-6.13,27-7.2,8.88-15.75,16-25,22.53A345.11,345.11,0,0,0,67.61,1008c-7.39,6.52-12.88,14.9-17.06,23.89-5.54,11.92-4.24,24.23-1,36.45,1,3.92,2.62,7.68,4,11.51"/><path class="cls-2" d="M303.46,2c.5,1.17,1.43,2.33,1.44,3.5.09,16.78,4.87,32.12,15.7,44.87a302.47,302.47,0,0,0,27.47,28c9.82,8.9,22.35,12.91,34.87,16.67,8.57,2.57,17.48,4.68,25.4,8.66C420.88,110,426.93,121.59,430,135c3,13,5.91,26.12,9.57,39,3.18,11.18,11.9,16.58,23.38,17.16,10,.51,18.82-2.57,27.48-6.67,10.24-4.85,20.48-9.72,30.44-15.1,3.31-1.79,5.93-5,8.54-7.89,8.19-9,8-25.63-2-35.41-8.58-8.42-18-16-26.34-24.65-10.58-10.94-21.31-21.91-30.38-34.06C459.24,52,449.33,35.57,439,19.46c-3.57-5.58-6.4-11.63-9.56-17.46"/><path class="cls-2" d="M1308.84,1.5c1.83,7,2.68,14.46,5.68,20.91,9.29,20,25.87,24.91,45.23,15.41,8.82-4.32,16.89-10.28,25-15.87,13.88-9.51,35.32-8.24,45.82,6.69,4.42,6.29,7,14,9.63,21.38a198,198,0,0,0,45.14,72.9c10.48,10.74,23.56,17.5,37.95,21.5,8.16,2.27,16.23.11,21.27-6.11,11.29-13.93,21.66-28.72,26.62-46.35,2-7.18,2.92-14.68,4.63-22,1.48-6.25,4.06-12,9-16.5,7.33-6.68,15.13-12.91,21.88-20.11,8.65-9.22,16.44-19.24,24.64-28.87a22.67,22.67,0,0,1,3-2.52"/><path class="cls-2" d="M279,1.5c-2.17,6.17-3.72,12.65-6.69,18.4-2.59,5-7.83,7.75-12.75,10.7q-22.26,13.32-44,27.46c-10.93,7.12-17.45,17.52-21.68,29.88-5.61,16.36-12.1,32.41-18.39,48.53A82.3,82.3,0,0,0,170.92,179q2.91,20.17,5,40.49c.91,8.65-3.29,10.83-10,12.37s-13.68,1.89-20.46,3.17c-12.36,2.33-24.67,4.95-37,7.45-9,1.83-17.94,4.69-27,5.25-12.65.79-24.26-3.23-34.54-11.17-9.21-7.12-18-15-28.95-19.54-5.4-2.22-11-4-16.48-6"/><path class="cls-2" d="M776.9,1.5c-.66,3.83-1.39,7.66-2,11.5-.84,5.45,2.6,8.17,8,7.61a199.79,199.79,0,0,1,27-1.36c3.89.14,8.2,2.4,11.41,4.87a58.61,58.61,0,0,1,20.46,29.41C850,80.18,861.61,105.31,874.34,130c5.87,11.37,13.93,19.06,27.55,19,8.16-.05,16.33,0,24.49,0,13,0,26-.12,39,0,10,.12,13.22-4.72,13.35-13,.21-12.51,1.57-25.2-1.94-37.47-2.19-7.63-5.4-15-7.88-22.53-4.29-13.12-8.2-26.38-12.58-39.47-3.93-11.74-8.28-23.34-12.45-35"/><path class="cls-2" d="M1.5,798.9c8.59-2.81,17.1-5.61,24.05-11.93,7.81-7.1,11.33-16.39,13.28-26.1,3.53-17.56,7.16-35,12.93-52,3-8.88,4-18.53,5.14-27.93,2.32-18.74,5.37-37.19,13.52-54.51a298.26,298.26,0,0,1,24.56-43c8.2-11.84,14.26-24.58,16.54-39,1.93-12.13,3.21-24.16-3.06-35.49C101.39,496.16,90,489.12,76,487.22c-5.43-.73-11.42,1.26-16.93,2.81-11.26,3.18-22.22,7.48-33.57,10.21-7.75,1.87-15.95,1.86-23.95,2.7"/><path class="cls-2" d="M1920.26,506.94c-8.06.78-13.81,4.36-16.57,12.47-3.21,9.45-4.26,19.23-4.84,29-.94,15.81,2,31.35,3.64,47,2.26,22-1.52,42.88-18.75,58.94C1868,669,1851.65,683,1836.4,698s-28.88,31.72-36.77,52.31c-2.5,6.52-1,11.59,3.21,16,12.21,12.76,27,21.45,44.45,24.44,15.07,2.58,30.31,4.08,45.47,6.14,9.18,1.24,18.33,2.65,27.5,4"/><path class="cls-2" d="M253,1.5c-7,13.87-19.21,22.45-32.08,29.85-11.09,6.37-22.78,11.78-34.46,17-7.55,3.4-11.82,9.11-13.9,16.62-5.65,20.45-11.34,40.91-16.4,61.51-1.91,7.78-2.58,15.94-3,24-.51,9,.24,18-.21,27-.52,10.18-1.48,20.44-8.93,28.49-5.47,5.9-12.59,9.23-20,12-10.83,4.07-21.91,7.28-33.5,7.95-15.71.9-28.78-5.55-41.08-14.82-10.06-7.58-20.73-14.39-31.49-21C13.77,187.59,8.65,186.67,4,185a9.23,9.23,0,0,1-2-1.47"/><path class="cls-2" d="M1920.26,305c-4.67,3.33-9.53,6.43-13.94,10.07a125.07,125.07,0,0,0-10.54,10.44c-10.94,11.54-24.84,17.48-40,20.35-9.19,1.74-18.66,1.95-28,3.2-6,.82-12.21,1.67-18,3.6a22.17,22.17,0,0,0-13.4,13.4c-4.38,11.45-9.08,23-11.32,35-2.63,14,1.25,27.41,10.17,38.93,14.31,18.46,31,34.05,52.47,44a85.57,85.57,0,0,0,28.52,7.86c8.43.76,15.56-2.11,20-9.9q10.52-18.49,21-37c1-1.78,1.84-3.66,2.76-5.49"/><path class="cls-2" d="M1.5,159c20.23,7.81,37.69,20.09,54.52,33.47,7.79,6.2,16,11.61,25.94,14.12,17,4.27,43.19-4.52,49.93-19.14A43,43,0,0,0,135.83,174a63.51,63.51,0,0,0-3.8-28c-3.37-9.43-6.8-18.87-9.39-28.53-1.65-6.11-1.63-12.65-2.71-18.94-1-6-4-11.11-10.47-11.79-3.7-.39-7.65,1.38-11.47,2.29C85.48,92,73,95.24,60.48,97.91,50.73,100,40.71,100.82,31,103.12c-10.87,2.59-20.52,8-29,15.37"/><path class="cls-2" d="M211.47,1079.86c2.81-8.8,5.66-17.56,5.53-27-.25-16.91-5-32.37-13.38-47.08-6-10.49-14.68-17.45-25.19-22.32-12-5.58-24.59-4.55-36.38.56-14.1,6.11-27,14.35-36.5,26.89a45.3,45.3,0,0,0-5.49,10c-2.91,7,.07,14.05,7.46,16.35a176.73,176.73,0,0,0,23.48,5.53c15.92,2.63,32,5.14,44.86,15.73,7.79,6.4,14.45,14.19,21.62,21.35"/><path class="cls-2" d="M1919.26,333c-5.5,4-11,8.06-16.51,12-11.55,8.15-24.83,11.55-38.48,14.05-10.7,2-21.4,4-32,6.54-9.8,2.33-16.89,8.74-21.42,17.47a53.37,53.37,0,0,0-5.08,36.94c3.21,14.56,12.06,25.12,24,33.52C1839,460,1849,464,1860.26,465c10.65.88,19-3.87,26.46-10.59,9.52-8.62,15.43-19.84,21.65-30.88,3.21-5.69,7.56-10.73,11.39-16.06"/><path class="cls-2" d="M873.89,1.5C867.89,14,864.74,27.13,866,41a176.2,176.2,0,0,0,7.32,35.53c4.71,15.58,11.69,29.61,23.59,41,10.71,10.24,29.78,12.38,42,4,7.36-5,10.16-12.22,10.94-20.55,1.3-14.11-1.68-27.82-4.55-41.47C942.85,47.84,940,36.24,933.39,26a82.5,82.5,0,0,0-22-23.46,6.21,6.21,0,0,0-2-.53"/><path class="cls-2" d="M1.5,781.9c12-3.37,18.56-12.24,21.29-23.54,2.32-9.6,2.84-19.62,4.22-29.45.94-6.67,1.54-13.44,3.07-20,4-17,1.8-33.13-5-49.06a134.22,134.22,0,0,1-7.46-23.49c-1.71-7.82-1.87-15.45,5.71-21.61s15.28-12.9,20.09-21.86c4.58-8.55,8.07-17.46,6-27.48-2.18-10.62-9.23-17.1-19-20.39-9.49-3.18-19.29-5.44-29-8.11"/><path class="cls-2" d="M1920.26,98c-17.5-3.67-35-7.1-52.47-11.1-8.3-1.91-16.28-5.19-24.54-7.34-16.81-4.38-38.08,7.78-37.31,29.93.55,16,6,30.46,17.25,42.58a179.44,179.44,0,0,0,29.6,25.89c9.81,6.79,20.44,9.38,32.5,7.18,9.69-1.76,19.64-2.13,29.47-3.17,1.85-.2,3.67-.65,5.5-1"/><path class="cls-2" d="M324,1.5c.67,5.33,1.24,10.68,2,16,3.27,22.54,16.11,38.85,34.57,50.87C373.6,76.88,388.75,80.23,404,83c10.43,1.91,20.75,4.47,31.5,4,5.94-.25,8.12-2.62,8.56-8.54,1.26-17.12-5.91-31.74-13-46.53C426.31,22.11,420.84,12.5,419,1.5"/><path class="cls-2" d="M1366.33,1079.86c-12.33-8-24.83-15.75-37-24-15.58-10.67-23.37-26.24-26.52-44.44-.45-2.64-.6-5.34-1-8-1.34-8.42-8.47-13.25-17-11.5-13.86,2.85-25,9.44-32.59,21.94-5.2,8.61-11.44,16.59-16.86,25.08a116.56,116.56,0,0,0-16,41"/><path class="cls-2" d="M575.43,1079.86c-3.17-4.16-5.77-8.95-9.6-12.38-13.21-11.82-20.75-26.92-27-43.07-4.67-12.1-11.7-22.35-23.85-28.64-13.1-6.8-25.13-4.41-36.48,3.21-11,7.35-15.1,19.09-17.51,31.4-2.58,13.12-4.65,26.34-7.11,39.48-.66,3.56-1.95,7-2.95,10.5"/><path class="cls-2" d="M1.5,413c5.5-1,11-2.16,16.5-3,6-.86,12-1.29,18-2.06,7-.91,14.31-1.05,20.93-3.19,10.94-3.54,15-13.82,19-23.33,11.08-27-1.38-55.75-24.84-71-12.13-7.91-25-13-39.54-13.46-3.34-.1-6.67-.63-10-1"/><path class="cls-2" d="M1919.26,651.92c-5.69,10.24-15.22,16.05-25,21.47a152.73,152.73,0,0,0-55.45,51.54c-12.9,20-4.61,41,19.49,46.9,19.07,4.7,38.3,8.76,57.48,13a21,21,0,0,0,4.49,0"/><path class="cls-2" d="M497.94,1.5c6.16,14.33,11.75,29,18.66,42.91,7,14.24,16.8,26.24,33.32,30.62,10.93,2.89,21.54,3.91,32.57-.37C592,71,595.31,61.17,593.77,52c-2.58-15.26-6.19-30.35-9.32-45.53a45.84,45.84,0,0,1-.52-5"/><path class="cls-2" d="M147,1.5c.33,5.67.42,11.36,1.06,17C149.24,29.06,140.36,35.15,132,36c-11.47,1.16-22.81,2.78-31.47,11.52-3.48,3.51-6.82,7.19-10,11-10.27,12.29-22.74,20.38-39,22.58-17,2.31-33.63,6.72-50,11.9"/><path class="cls-2" d="M1920.26,124c-7-2.16-13.89-4.79-21-6.4a74.18,74.18,0,0,0-45.91,4c-12,5.06-10.63,13.21-3.88,21.2,10.31,12.22,23.88,18,40.32,17.31,10.37-.45,20.17-2.85,30-5.66"/><path class="cls-2" d="M341,1.5c-.18,20.34,6.85,37.42,24.09,48.84A58.74,58.74,0,0,0,402,60c9.23-.62,15.44-7.93,13.43-17.48-2.9-13.72-6.26-27.35-9.43-41"/><path class="cls-2" d="M1601.3,1080.11c-5-2.41-10.17-4.54-15-7.3-10-5.75-17.91-13.94-26.11-21.86a114.88,114.88,0,0,0-17.52-14.43c-8.86-5.66-18.93-6.31-28.87-3.06-8.56,2.8-13.92,12.29-14,23.41-.07,7.83,0,15.66,0,23.49"/><path class="cls-2" d="M1493.31,2c-5,6.67-10.27,13.15-14.89,20.06-2.92,4.38-4.88,9.27-4.69,14.94.33,10.15,6.06,17.53,16.1,18.83,2.87.38,6.16-.74,9-1.92,8.27-3.48,14.93-8.89,18.52-17.42,4.2-10,8.32-20,12.53-30A50.8,50.8,0,0,1,1532.31,2"/><path class="cls-2" d="M1919.76,1073.37c-11.84-14.43-23.21-29.36-38.11-40.85-4.08-3.15-9.37-5.15-14.42-6.51-9.72-2.6-15,4.84-19.79,11-8,10.27-12.21,22.38-13.67,35.37-.3,2.67-.67,5.33-1,8"/><path class="cls-2" d="M1920.26,696.91c-13.06.71-26,2-36.49,11a35.81,35.81,0,0,0-11.88,19.52c-1.92,8.49,2.27,14.74,9.4,18.92,12.36,7.26,24.41,15.2,38.47,19"/><path class="cls-2" d="M619.42,2c1.17,2.5,2.52,4.93,3.47,7.51,7.12,19.23,23.75,28.64,43.52,27.37,11.13-.72,20.89-6.19,30.47-11.44s16.85-13.36,24-21.42a19.5,19.5,0,0,1,2.48-2"/><path class="cls-2" d="M872.39,1080.11c-.67-.08-1.57.09-2-.28-7.72-7.28-15.61-14.4-23-22-9.12-9.44-20.31-13.9-33.05-14.91-17.11-1.35-30.67,10.21-32.5,27.47-.35,3.33-.66,6.66-1,10"/><path class="cls-2" d="M1.5,386c14.07-4.51,27.43-10.52,38.44-20.56,13.07-11.93,8.81-26.8-2.48-36.89-10.21-9.13-22.57-12.07-36-11.54"/><path class="cls-2" d="M50.49,2c1.67,2.67,3.35,5.32,5,8,2.35,3.82,4.82,7.58,7,11.51,10.3,18.82,3.89,35.31-18,40.92C30.9,65.92,17.16,68.81,3.51,72c-.58.14-1,.95-1.51,1.45"/><path class="cls-2" d="M1331.33,1080.11c-3.66-2.08-7.78-3.64-10.91-6.34-8.91-7.72-17.42-15.9-26.08-23.9a79.43,79.43,0,0,0-6-5.47c-11-8.19-15.88-7.68-26.89,1.57-9,7.6-15.09,17.52-18.6,28.89-.57,1.86-1.32,3.67-2,5.5"/><path class="cls-2" d="M1863.77,1.5c.64,15,2,30,6.14,44.45,3.8,13.31,13.07,22.11,26.38,25.93,7.83,2.25,16,3.44,24,5.11"/><path class="cls-2" d="M1800.27,1079.86c2.17-8.66,4.23-17.36,6.55-26,1.34-5-.2-9.14-3.61-12.45-4.23-4.09-9.14-3.73-14.46-1.64-11.66,4.59-18.41,13.9-24.49,24.07-3.23,5.39-6.65,10.67-10,16"/><path class="cls-2" d="M1881.76,1.5c.83,12.67,2.34,25.25,7.56,37,4.32,9.7,12.11,15.37,22.45,17.49,2.78.57,5.66.7,8.49,1"/><path class="cls-2" d="M24.5,2c1.5,2.67,3.32,5.2,4.43,8,2.72,6.89,6,13.62,5.18,21.49-.33,3.1-1,5.62-3.06,8C25.65,45.7,18.26,48.25,11,50.92,8,52,4.67,52.33,1.5,53"/><path class="cls-2" d="M357.46,2c1.16,3.33,2,6.85,3.58,10a86.81,86.81,0,0,0,7.47,12c3.85,5.2,9.93,6.43,15.36,4.78,6-1.83,6.71-8.24,7-13.74.21-4.47-.56-9-.89-13.49"/><path class="cls-2" d="M1173.85,1.5c-.93,8.8-12.15,16.07-23.53,14.21a98.73,98.73,0,0,1-35-13.19,7.86,7.86,0,0,0-2-.52"/><path class="cls-2" d="M159.48,1079.86c-6.69-9.1-16.49-12.83-27-13.75a27.32,27.32,0,0,0-21,6.78c-2.46,2.2-4.69,4.64-7,7"/><path class="cls-2" d="M997.88,1.5c.83,3.5,1.17,7.21,2.59,10.46,3.79,8.68,10.38,13.15,18.29,8.36,3.8-2.3,6.81-6.22,9.48-9.91,1.83-2.52,2.46-5.91,3.63-8.91"/><path class="cls-2" d="M1113.86,1080.36c-2.65-14-17.67-15.94-27.45-8.43-3,2.27-5.38,5.27-8,7.93"/><path class="cls-2" d="M181.48,2A88.14,88.14,0,0,0,189,8.45c8.44,5.8,16.27,2,23.94-2A61.52,61.52,0,0,0,219.47,2"/><path class="cls-2" d="M2,717.41c.67,5.67,1.87,11.33,1.85,17,0,6-1.18,12-1.85,18"/><path class="cls-2" d="M1806.27,2c.67.83,1.67,1.57,2,2.52,1.88,6.32,7.11,8.09,12.56,8.31C1826,13,1830,9.92,1832.29,5a25.17,25.17,0,0,1,2-3"/><path class="cls-2" d="M644.42,2c4.33,2.79,8.43,6.6,14,5.88,4.58-.59,9.05-2.11,13.5-3.44A24.8,24.8,0,0,0,676.42,2"/><path class="cls-2" d="M1919.26,938.88c-4,8-5,15.9,1,23.54.29.37-.12,1.29-.2,2"/><path class="cls-2" d="M2,984.38a9.07,9.07,0,0,0,1.53,2.46c3.38,2.74,2.85,5.75,1,9-1,1.75-1.7,3.65-2.53,5.48"/><path class="cls-2" d="M1919.26,12c-3.62,4.57-3.55,6.14.5,11.5"/><path class="cls-2" d="M1419.32,480.94c-10.39,1.84-17.2,8.34-22.52,17-10.08,16.38-20.54,32.54-30.37,49.07-4.91,8.25-9.26,16.92-9.62,26.94-.42,11.44,6.43,15.14,15.52,17,6.75,1.38,13.33-.09,20-.93,20.71-2.61,38.28,2.69,51.05,20.39,5.62,7.77,12.29,14.79,17.85,22.61,6.61,9.3,9.32,20.08,9.56,31.43.15,7.49-.21,15,.08,22.49.6,15.85,5.44,29.68,18.89,39.57,5.5,4,10.44,8.87,15.54,13.44,7.4,6.64,8.16,19.09,4.1,27.53a69.42,69.42,0,0,1-12.58,18c-6.36,6.64-12.93,13.1-18.92,20.06a39.44,39.44,0,0,0-8.61,18.92c-.88,4.82,3.55,13,8.5,16,7.08,4.28,14.57,4.27,22,1.89,16.41-5.26,32.6-11.18,49-16.35,15.52-4.88,30.87-10.6,47.47-11.11,12.79-.39,24.06,4.15,35,10,8.34,4.49,16.53,9.28,25,13.43,12.72,6.21,26.23,5.78,39.43,2.41,15-3.83,29.9-8.29,44.47-13.52,11.09-4,20.23-11.26,27.63-20.76,9.05-11.63,15.07-24.64,19.41-38.56,2.22-7.09.15-12.32-6-17.53-11.86-10.14-25-18.34-38.59-25.85-14.82-8.22-27.07-19.35-38.38-31.65a70.16,70.16,0,0,0-27.07-18.41c-17.15-6.55-30.12-18-39.44-33.56-8-13.4-15.49-27.11-23.61-40.43-5.14-8.42-11.88-15.56-21.94-18-8-1.89-15.84-.24-23.48,2.41-7.17,2.49-14.21,5.44-21.52,7.38-8.61,2.28-13.45.2-15.34-9.41-3.46-17.57-6.07-35.31-9.15-53-2.63-15.07-9.73-27.12-25-31.88q-28.24-8.79-57-15.91c-6.68-1.65-14-.88-21-1.21"/><path class="cls-2" d="M949.38,481.94c-6,1-12.06,1.71-18,3.06-11.14,2.53-22-1.28-33-1-24.65.59-32.25,8-38.88,25.5-4.54,12-7.81,24.48-1.08,36.93a178.6,178.6,0,0,0,9.53,16c4.56,6.68,9.55,13.08,14.46,19.51a25.5,25.5,0,0,0,4.49,4.5c7,5.43,12.5,4.69,18.46-2.49,4.24-5.1,8.11-10.54,12.57-15.43,8.4-9.23,19.54-13.07,31.42-15.66a119.75,119.75,0,0,0,21.46-6.52c12.36-5.27,16.66-20.71,14.64-32.38-1.24-7.12-2.61-14.2-7.15-19.92-7.19-9.06-16.83-13.05-28.43-12.06"/><path class="cls-2" d="M886.39,384c-9.29,2.53-15.65,7.73-18.67,17.45-2.79,9,3.7,16.84,12.67,17.54a41.55,41.55,0,0,0,21.44-3.62,20,20,0,0,0,7.91-6.47c4-6,2-14.49-3.88-18.86-5.59-4.13-11.74-6.88-19-6"/><path class="cls-2" d="M639.42,497.94c-4.33.83-8.86,1.12-13,2.61C617,504,611.81,511.69,609.54,521c-3.56,14.59-7.09,29.31-6.46,44.46a58.49,58.49,0,0,0,3.56,18.92A83.79,83.79,0,0,1,613,614.92c.06,6,.46,12,1,18,1,11.32,10.12,19.58,23,16.19,12.31-3.25,19.81-11.06,23.76-22.25a126.09,126.09,0,0,0,6-26c1.31-10.33,5.54-19.52,9.23-29,4.41-11.29,8.57-22.72,7.84-35-1-16.88-6.43-32.57-28.9-37.42-4.88-1.06-10-1.08-15-1.58"/><path class="cls-2" d="M1220.35,497.94a81.47,81.47,0,0,0-21.09,7.31c-11.56,5.66-19.62,20.43-15.47,35.7,2.33,8.57,4.4,17.25,5.94,26,1,5.55,1,11.31,1.08,17,.15,11,.26,22,0,33s3.11,20.86,9,30c5,7.78,11.57,14.85,13.88,24,2,8,2.77,16.3,4.15,24.46,1.79,10.67,3.81,21.31,5.44,32q2.09,13.7,3.5,27.49c1.42,13.84,4,27.29,10,40,9,19.1,17.56,38.38,26.58,57.45,5.94,12.55,5.21,25.45,2.93,38.51-1.51,8.66-2.76,17.37-.41,26,2.74,10,11.64,17.37,23.88,12.87a150.3,150.3,0,0,0,23-11c15-8.62,30.64-14.51,48-16,10.74-1,12.36-7.46,10.46-17.34-1.26-6.55-2.89-13-4.46-19.51-3.35-13.83.93-26.22,7.58-37.95,4.79-8.45,12-14.39,20.88-18.64,16.76-8,30.65-19.79,42-34.43,10.17-13.11,11.61-27.78,7.08-43.47-5-17.45-9.6-35-14.59-52.47-2.09-7.34-4.9-14.29-10.37-20.09-6.71-7.1-14.87-8.33-23.55-6.3-12.27,2.86-24.25,7-36.55,9.75-12.8,2.88-25.86,4.09-39,1.61-9.18-1.74-18.41-3.34-27.46-5.63a30.52,30.52,0,0,1-10.48-5.44c-8.18-6.17-10.24-14.86-8-24.39,2.4-10.1,5.9-19.94,8.32-30,4-16.43,7.68-32.93,11-49.5,1.42-7.19,1.32-14.66,2.17-22,.9-7.78-3-12.79-9.59-15.39-10-3.94-20.19-7.43-30.47-10.53-11.38-3.43-23.2-3.38-35-3.08"/><path class="cls-2" d="M339.46,501.94c-4.21,1.25-8.48,2.69-10.9,6.56-1.44,2.31-2.55,4.92-.23,8s5.43,4.08,8.59,3.27c5.17-1.31,8.84-4.54,9.58-10.36.46-3.64-1-5.52-6.54-7.5"/><path class="cls-2" d="M1439.32,503.94c-7.85,1.24-14.84,4.34-20.48,10-8.34,8.41-15.66,17.59-19.47,29-2.85,8.54-.39,13.19,8.47,15.92,8.42,2.6,17,4.76,25.48,7,7.66,2.05,15.27,4.29,23,5.94,11.21,2.39,19.67-1.84,24.46-11.94,6.45-13.58,7.28-27-2.52-39.45-7.2-9.16-17.55-13-28.47-15.47-3.24-.73-6.65-.73-10-1.06"/><path class="cls-2" d="M1854.27,378c-4.67,1.34-9.43,2.4-14,4.06-9.35,3.42-18.52,17.18-17.46,26.43,1.38,12.06,6.67,22,18,27.42,14.35,6.84,30.29,6.7,41.89-6.47,8-9,11.3-20,11-31.94-.27-9.58-8.12-16.76-19.92-18.4-6.25-.87-12.65-.76-19-1.1"/><path class="cls-2" d="M1224.35,521.93c-8.68,3.61-12.45,10.59-12.42,19.5,0,14.33,0,28.72,1.13,43,.82,10.14.84,20.71,6.28,30,3.16,5.43,6.54,10.56,14,9.43a10.15,10.15,0,0,0,5-2,53.78,53.78,0,0,0,16.53-25.94c3.12-10.63,7.29-21.15,8.75-32,2.89-21.53-7.92-36.54-28.26-41.84-3.27-.85-7-.12-10.46-.12"/><path class="cls-2" d="M1657.29,369c-15.34,2.75-20.29,14.7-23.36,27.53-3.65,15.27-9.38,29.67-15.58,44-3.86,8.92-7.78,17.89-7.57,28,.14,6.83,5.2,12.6,12,12.41,11.18-.32,22.33-1.32,33.5-1.89,10-.5,19.86.39,29,4.59,8.38,3.88,10.33,12.16,11.51,20.39,1.82,12.65,3,25.39,5.16,38,1.53,9,9.21,15.51,18.37,17,11.84,2,23.84,3.3,35.46,6.16,16,3.94,30.54,11.5,43.58,21.76,1.64,1.29,4.15,2.71,5.91,2.35,3.19-.64,3.67-3.67,3.59-6.78-.16-6.67-.19-13.34,0-20,.44-17.59-7.9-30.74-20.48-42a157.5,157.5,0,0,0-35.06-23.92c-7.73-3.85-15.69-7.27-23.46-11.07-3.61-1.77-6.88-4.27-10.54-5.9-9.45-4.19-12.12-12.64-13.35-21.57-1.24-9.09-1.19-18.35-2.19-27.48a87.06,87.06,0,0,0-13.88-39c-5.5-8.35-11.33-16.25-21.08-19.89-3.49-1.31-7.3-1.74-11-2.58"/><path class="cls-2" d="M582.43,356c-5,.66-10,1.19-15,2a45.47,45.47,0,0,0-10,2.55c-4.55,1.9-5,3.91-3.05,8.41,4.92,11.43,14.61,16.46,26,16.66a34.16,34.16,0,0,0,23.33-8.35c2.66-2.39,5-6.94,4.77-10.28-.34-4.16-3.56-7.62-8.55-9.21C594.3,356,588.67,356,582.93,356"/><path class="cls-2" d="M488.44,587.93c-2.17.5-4.35.94-6.5,1.5-16.23,4.25-28.55,20-27.94,37.49.33,9.34.49,18.8,2.1,28,3.48,19.74,19.91,27.22,38.39,18.64a37.71,37.71,0,0,0,17.38-16.15c5.33-9.42,10.34-19,12.18-29.94,2.24-13.43-2.66-23.68-12.64-32-6.45-5.36-14.13-7.55-22.47-7.53"/><path class="cls-2" d="M307.46,594.93c-13.38,1.4-24.33,8.88-36,14.57A59.07,59.07,0,0,1,245,615.92c-4.83,0-9.67,0-14.5,0-12.7.19-25.06-2.4-37.5-4.47-10.58-1.76-21.07-3.66-32-1.69-13.48,2.43-21.82,10.53-27.39,22.19a77.36,77.36,0,0,0-5,14,88.72,88.72,0,0,1-17.05,34.48c-7.43,9.11-12.36,19.47-16.74,30.4C89.39,724.2,82.35,736.92,76,749.9a70.77,70.77,0,0,0-6.91,29.5c-.34,12.16.53,24.37-.24,36.49-.88,13.74,7.68,21.35,17.69,25.43,22.13,9,43.23,5.15,62.86-7.08,9.13-5.7,12.77-14.53,10.81-25.88-1.41-8.14-.57-16.65-1.29-25a84.27,84.27,0,0,1,2-27c2.2-9.3,7.27-16.43,15-22,14.8-10.74,31.78-16.32,49-21.48,20.95-6.27,42.59-9,64-13.07,20.9-4,37.85-14.34,48.48-33.41,4.59-8.25,9.46-16.46,11-26,3.49-21.48-3.52-36.47-27-43.41-4.32-1.27-9-1.42-13.47-2.08"/><path class="cls-2" d="M1586.3,612.92c-21.83,7.37-30.48,25.23-35.37,45.53-3.65,15.17-6.66,30.55-8.89,46-1,7.3.66,15,.71,22.46.07,9.5.5,19.09-.65,28.47-1.23,10-4.2,19.67-6.27,29.53s2.06,15.23,12,17.12c10.1,1.93,19.76-.11,29.52-1.67,16.29-2.6,32.11-2.34,47,6,9.23,5.17,18.88,9.64,27.92,15.12,14.71,8.9,30.35,10.52,46.51,6.27,13.41-3.52,26.39-8.31,38.1-16.26s19.36-18.89,21.71-32.63c1.8-10.52-.39-20.62-8.21-29s-17.59-14.12-27.59-19.38c-9-4.73-17.37-10.14-24.52-17.51-12.33-12.7-26.93-22-43.39-28.67-8.94-3.64-15.76-10.15-20.63-18.82-7.57-13.46-14.38-27.5-25-39a78.64,78.64,0,0,0-13.53-11.42c-2.36-1.6-5.89-1.49-8.89-2.16"/><path class="cls-2" d="M973.38,628.92c-7,4.82-7.64,10.1-2,16,1,1,2,2,3,3,3.38,3.09,5.89,2.61,8-1.49,3.42-6.65-1-15.8-8.5-17.5"/><path class="cls-2" d="M220.47,638.92c-5.16.67-10.35,1.23-15.49,2-8,1.25-16.08,2.31-24,4.06-10.1,2.25-17.05,9-22.52,17.42-12.37,19.1-26,37.4-36,58-4.28,8.87-10.84,16-17.51,23s-12.72,14.32-14.4,24c-2.16,12.37.1,23.83,8.87,33.51,5,5.53,10.3,9.68,18.53,9.1s16.14-5.76,19-13.63a70.55,70.55,0,0,0,4-23c.16-8.83.62-17.66,1-26.49.49-12.48,7.94-20.36,18.05-25.91,10.77-5.91,21.83-11.35,33-16.51,9.15-4.23,18.61-7.79,28-11.57,15.59-6.3,32.18-8.56,48.48-12,9.17-1.94,18-4.58,22.5-14,2.1-4.35.88-10.79-1.94-14.54-6.47-8.6-16-10.51-25.56-11.31-14.46-1.2-29-1.47-43.49-2.14"/><path class="cls-2" d="M1233.35,351C1212,356.3,1201.91,373.25,1193,391a43.76,43.76,0,0,0-5.14,21.43,27.64,27.64,0,0,0,6.52,17.48c8.27,9.66,20.65,10.29,31.3.31a66.06,66.06,0,0,0,14.42-19.92c5.34-11.53,8.62-24,13.35-35.83S1251,349.62,1236.34,351c-.82.07-1.66,0-2.49,0"/><path class="cls-2" d="M1104.36,652.92c-6.51,3-9.34,8.29-7.45,15,4.86,17.21,10.07,34.31,14.92,51.52,5.25,18.64,13.4,36,22.59,53,1.57,2.9,3.48,6,6,7.92,7.89,6.06,15.45,3.14,20-6.87,5.82-12.93,8.54-26.41,7.38-40.51a53.89,53.89,0,0,0-12-29.45,150.84,150.84,0,0,0-11.47-12.52c-9.95-10-20.1-19.7-28-31.48-2.6-3.87-6.26-6.74-11.43-6.54"/><path class="cls-2" d="M1594.3,662.92c-4.47,1.07-6.29,4.33-7,8.5-.53,3.16-1.58,6.36-1.41,9.49.74,13.62-4.35,25.77-9.14,38s-7.68,24.77-7,38a20.13,20.13,0,0,0,14.51,18c4.33,1.17,8.61,2.69,13,3.43,9.82,1.66,18.57,6.14,27.45,10.15,13.8,6.21,27.26,13.16,41.07,19.34a44.93,44.93,0,0,0,32.46,2.08c8.7-2.69,17.07-6,24.53-11.45,6.87-5,12.29-11.06,13.89-19.56,2.45-13-4.87-21.61-16.45-26.43-4.36-1.82-8.87-3.72-13.49-4.42-11.33-1.73-19-8.34-25.53-17.1-6.84-9.15-14.91-17-26-21-6.94-2.5-14-4.63-21-7-12.47-4.31-21.65-12.25-27.06-24.46a44.27,44.27,0,0,0-5.54-9.45c-1.86-2.37-4.57-4.07-6.9-6.07"/><path class="cls-2" d="M1386.33,675.92c-18.49,3.37-36.2,11.26-55.49,9.94-7.86-.53-15.67-1.58-23.5-2.45-7.17-.8-14.32-2-21.51-2.4-7.64-.42-15.35.33-23-.2-9.35-.65-19.37,8.87-19.95,19.61-1.64,30.24,4.63,58,25.88,81,7.53,8.16,14.43,16.91,21.54,25.45,2.66,3.19,5.93,4.2,10,4.06,6.82-.25,13.67-.2,20.49,0,11.32.27,22-2.1,30.94-9.11,11.9-9.29,25.52-13.78,40-17.09,18.2-4.14,30.23-15.78,35.46-33.84a43.14,43.14,0,0,0,.42-23.94c-3.41-11.83-7.51-23.5-11.94-35s-13.08-17.44-25.91-16.05a27.08,27.08,0,0,1-3,0"/><path class="cls-2" d="M992.38,339c-2.34.66-4.91.91-7,2.08-5.28,3-4,8.49-3.39,12.89,2.44,16.85,7.23,32.95,17.35,47,7.13,9.92,16.28,16,29,16,13.27,0,28.55-11.8,32.51-23.54,2.91-8.64,3.91-17.49-1.17-25.4-4.5-7-11.07-12.47-18.38-16.52-15-8.3-31.09-13.06-48.45-12.57"/><path class="cls-2" d="M1377.33,700.91c-6.5,2.5-13.12,4.73-19.47,7.56-10.83,4.83-21.69,4.8-33.06,2.09-7.63-1.82-15.49-2.58-23.49-.75-10.45,2.4-16,9.1-13.27,19.55,3.81,14.38,12.67,25.33,27.35,29.86,6,1.86,12.65,1.25,19-.75,4.73-1.5,9.65-3.34,14.48-3.34,7.33,0,14.66,1.5,22,2.26,6.15.63,12.08,2.19,18.53.68,12.66-3,18.85-14.3,19.14-25.17a37.61,37.61,0,0,0-6.69-23c-4.15-5.76-9.48-9.46-17-9-2.33.13-4.67,0-7,0"/><path class="cls-2" d="M1244.34,325c-4.33.83-8.85,1.14-13,2.59-15.23,5.38-27.3,15-37.09,27.86a208.64,208.64,0,0,0-23.77,40.11c-7.14,15.65-3.73,30.69,5.88,44.39,6.62,9.46,15.78,15.49,27.45,15.88,10.3.34,19.88-3,28.5-8.84,8.87-6,14.55-14.7,19.92-23.54,8.92-14.68,17.76-29.44,25.91-44.55,3.48-6.46,6.39-13.74,7.37-20.94,1.39-10.26-3.63-18.61-12.23-24.43-6.61-4.48-13.8-7.44-22-7.58a48.51,48.51,0,0,1-6.5-1"/><path class="cls-2" d="M182.48,317c-2.34.5-4.65,1.09-7,1.48-14.57,2.43-22.77,12.15-27.39,25.06-6.92,19.32-4.06,36.86,11.38,51.46,8.56,8.1,16.66,16.72,25.59,24.38,10.93,9.38,24.07,12.24,37.84,8.36a43.11,43.11,0,0,0,16.88-9.46c7.53-6.9,14.1-14.92,20.62-22.84,7.08-8.61,7.43-19.06,4.36-28.88-6-19.19-18.26-33.69-36.28-43.07-6.91-3.59-14.39-4.92-22-5.44-7.82-.54-15.66-.72-23.49-1.05"/><path class="cls-2" d="M575.43,726.91c-8.32,4.13-13.5,11.29-17.95,19a79,79,0,0,0-6,12.49c-2.74,7.67,1.73,13.1,9.91,13.56,11.31.65,16.24-7.32,20.87-15.17a31.38,31.38,0,0,0,4-21.4c-1.3-7.46-3-8.51-10.4-8.51"/><path class="cls-2" d="M1242.34,309c-5.66,1.5-11.39,2.8-17,4.55-9.63,3-17.21,9.35-24.48,16-14.69,13.38-26.62,29.15-38.62,44.89-8.39,11-18,21-29.46,29a31,31,0,0,1-10,4.49c-15.8,4-27.15,13.88-36.46,26.6-4,5.41-8,10.78-11.41,16.54-3.17,5.4-1,11,4.92,13.38,14.15,5.6,26.92,2.56,38-8.45,2.42-2.41,4.54-5.13,7-7.46,7.34-6.86,15.83-7.86,24.45-1.49,7.45,5.5,14.42,11.7,22.09,16.86,10.43,7,22,8,34.46,6.3,10.77-1.44,21.14-3.51,31-8.19,14.4-6.84,23.72-18.79,31.4-32.06,8.2-14.17,16.84-27.92,28-40,7.93-8.54,13.29-18.72,13.35-30.46.08-14.76-5.28-27.56-17.3-37-9.86-7.75-21.32-11.11-33.51-12.44-5.31-.58-10.66-.71-16-1"/><path class="cls-2" d="M303.46,749.91c-17.49,2.49-33,11.25-50,15.49-8,2-16.22,3.4-23.95,6.15C219,775.31,215.32,781.67,219,792.9a33,33,0,0,0,1.51,4c4.47,9.35,8.46,19,13.61,27.93,7,12.21,11.88,10,21.82,6.92,13.12-4,24.64-11.41,35-20.37,11.44-9.87,22.8-19.85,33.94-30,2.85-2.61,5-6.11,7-9.44,4.91-7.92,2.35-14.59-6.43-18.53-6.92-3.11-14.1-3.81-21.52-3.44"/><path class="cls-2" d="M1101.36,42c-17.23,3.9-26.26,16.45-32.39,31.54-4.52,11.12-7.77,22.75-12.19,33.92-5.4,13.67-13.46,25.66-25.45,34.47a47,47,0,0,1-27.45,9.1c-5.18.1-10.49,0-15.46,1.13-6.28,1.47-7.53,3.89-7.54,10.33,0,8.83.57,17.71-.14,26.48-.92,11.38-2.6,22.72-4.42,34-2.89,17.88-3.53,35.43,4,52.53,4.8,10.89,12.62,19.11,23.14,23.79,18,8,36.45,15.2,55,22,5.31,1.94,11.61,1.82,17.41,1.54,5.21-.25,9.45-3.34,12.52-7.81a54.91,54.91,0,0,0,9.39-28c1-15.81,1.23-31.67,2.16-47.49.67-11.51,1-23.18,3.17-34.45,2.87-14.75,13-24.17,27.31-27.82,9.71-2.48,20-2.73,29.94-4.26,13.17-2,26.53-2.31,39.11-8.24,11.63-5.49,17.13-14.91,19.17-26.26A100.3,100.3,0,0,0,1214.81,88c-5.2-15.28-16-24.93-31.48-28.94-20.42-5.29-41-9.83-61.44-15.2-6.69-1.76-13.3-1.81-20-1.87"/><path class="cls-2" d="M988.38,758.91c-4.5,1-9,1.81-13.49,3-9.84,2.71-19.12,6.58-26.5,14-5.23,5.22-4.92,9,2.06,12.35a113.65,113.65,0,0,0,20,7c9.79,2.56,19.64,5,30,4.67,8.49-.3,15.35-3.31,20-10.57,5.83-9.17,2.61-23-9-27.55-7.34-2.92-14.87-3.12-22.52-2.93"/><path class="cls-2" d="M907.39,47c-7.15,3.33-10.84,11.15-8.35,20a59.73,59.73,0,0,0,7,14.93c1.25,2,4.58,4,6.79,3.81A8.39,8.39,0,0,0,919.93,80c3.78-10.4,1.54-19.85-4.68-28.42-1.58-2.17-4.86-3.1-7.36-4.6"/><path class="cls-2" d="M387.45,846.89c-7.95,2.82-15.23,6.55-21.61,12.38a31.83,31.83,0,0,0-10.68,20.64,105.21,105.21,0,0,0,.45,23.46c1.31,10.41,8.32,14.36,16.84,14.34,15.21,0,29.33-4,39.95-15.86A26.07,26.07,0,0,0,419,884.39c.15-8.68-.43-17-4.48-25-4.26-8.42-10-13.68-20.08-12.49a56.35,56.35,0,0,1-6.5,0"/><path class="cls-2" d="M138.48,277c-6,2.06-9.34,6.62-10.4,12.51a276,276,0,0,0-4,28c-1.11,14.3-2.16,28.67-1.92,43,.25,14.6,2.3,29.23,12.38,40.93a264.48,264.48,0,0,0,19.48,20c6.89,6.46,14.07,12.66,21.49,18.5,11.2,8.83,24.14,12.68,38.44,13.17,21.34.73,39.48-6.95,56-19.61,8.76-6.72,17.54-13.55,23.43-23,10.19-16.4,11.3-33.61,3.61-51.46-9.36-21.7-23.43-40-40.61-55.9-8.88-8.22-20-12.36-31.93-14C216.69,288,208.8,287.68,201,287c-14.37-1.33-28.65-3.44-42.46-7.62A62.45,62.45,0,0,0,139,277"/><path class="cls-2" d="M536.43,869.89c-5.33,1.83-10.85,3.26-16,5.59-9.48,4.31-14,12.25-15.61,22.4a37.39,37.39,0,0,0,4.64,25.46c7.12,12.06,15.25,15.13,28.94,12.08,9.53-2.12,19.08-3.74,29-3.69,13.81.06,25.06,4.91,33.41,15.72,4.79,6.21,6.94,13.81,8.57,21.43,3.42,16,3.9,32.1,2.81,48.51-.92,13.75-2.23,28,5.15,41,6.68,11.78,22.32,16.15,33.55,9,5.37-3.43,9.46-8.16,13.54-13,6.34-7.46,13-14.67,19.44-22,6.21-7.08,12.69-13.89,17.09-22.45,6.4-12.45,6.74-24.68-1.71-35.94S682,951.85,670.49,943.28c-9.11-6.8-19.49-10.4-30.11-13.26-13.79-3.72-25.77-9.77-36.11-20a327,327,0,0,0-34-29.44,51.84,51.84,0,0,0-33.34-10.71"/><path class="cls-2" d="M864.39,245c-13.15,3.15-22.59,11.24-29.45,22.52a34.19,34.19,0,0,0-5,21.47c.45,4.63,5.86,11,10.49,12,9.38,2,18.69,4.29,28.51,2.16,5.86-1.27,12.05-1,18-2.19,11.54-2.25,21.75-11.31,20.89-23.41-1.19-16.85-14.32-32.73-32.87-32.51-3.33,0-6.67,0-10,0"/><path class="cls-2" d="M1584.3,870.89c-5.33,1-10.66,2-16,3-14.81,2.65-27.87,9.32-36.76,21.18-12.73,17-24.25,34.93-35.58,52.92-5.64,9-3.88,19.19,3.64,26.61,8.94,8.83,20,12,31.23,15.22,14.09,4,28.53,7.22,39.88,17.17a155.85,155.85,0,0,1,16.53,17.44c11.22,13.36,24.77,22.2,42.56,23.43,6.65.46,13.35.47,20,1.07,13,1.17,26,2.86,39,3.89,15.2,1.19,30-.06,40.9-12.52,8.64-9.92,16.42-20.58,24.59-30.92,9.61-12.15,20.19-23.06,35-29.08,3.41-1.39,6.44-3.81,9.52-5.93,10.79-7.42,11.79-17.92,9-29.47-4.21-17.42-9.29-34.58-16.57-51-4.4-9.9-12.77-14.53-23.4-16.12-21.42-3.21-43-3.15-64.5-2.81-6.68.11-13.33,1.6-20,2.38-16.29,1.91-32.59,4.25-49,1.46-11-1.89-22-4.46-33-6.37-5.43-.94-11-1.08-16.49-1.58"/><path class="cls-2" d="M1682.29,892.89c-7.5,1.33-15.1,2.26-22.48,4.09-13.34,3.31-25.62,8.44-34.12,20.33a37,37,0,0,0-6.77,20.58c-.27,6.14,1.24,12.39.7,18.47-.66,7.51-1.5,15.1-5.24,22.06s-7.05,14.45-7.37,22.46a26,26,0,0,0,3,12.9c5.46,10.08,14.25,16,25.83,17,7,.62,14,.77,21,1,9.83.38,19.68.44,29.5,1.06,17.57,1.13,31.1-5.37,41-20,8.37-12.3,14.49-25.74,20.94-39,3.32-6.84,6.71-13.65,10-20.5,4.79-10,5.93-20.43,2.43-31-3.3-9.95-10.74-16.41-20.46-19.38-12.82-3.92-25.86-7.26-39-9.94-5.92-1.2-12.29-.2-18.46-.2"/><path class="cls-2" d="M178.48,903.89c-5.24,1.75-10.54,3.21-12.56,9.48-2.27,7.08.81,13.79,7.51,17.1,5.9,2.92,11,2.08,15.49-2.15,4.12-3.89,5.13-9.08,3.49-14.41-2-6.44-6.6-9.83-13.43-10"/><path class="cls-2" d="M882.39,912.89c-6.56,3-8,5.64-5.41,12a127.41,127.41,0,0,0,9.55,19.44c4.44,7.05,11.17,8.73,16.27,4.49a16,16,0,0,0,5.94-14.87c-2.27-13.64-11.78-21-25.85-21"/><path class="cls-2" d="M1010.37,917.89c-5.66.66-11.32,1.36-17,2-6.32.7-12.65,1.47-19,2-8.31.66-14.07,5.27-17.9,12.09-4.26,7.59-7.92,15.54-11.56,23.46-4.37,9.52-8.07,19.3-14.95,27.55-5.3,6.37-12.25,10.45-18.51,15.51a55.92,55.92,0,0,0-10,10.49c-3,4.18-1.93,12.4,1.39,16.42a29.8,29.8,0,0,0,23,11.41c14.65.34,29.37.8,44-.14,11.4-.73,23.06-.88,34-5.21a46.28,46.28,0,0,0,15.52-9.51,256.14,256.14,0,0,0,31.83-37.63,53.57,53.57,0,0,0,9.69-31.91c-.11-17.18-11.9-29.44-26-33.57a74.33,74.33,0,0,0-24-2.92"/><path class="cls-2" d="M1668.29,923.88c-10.33,4-14.74,11.74-15.6,22.49-.88,11.2-2.77,22.32-3.81,33.52a74.24,74.24,0,0,0,.08,16.46c.59,4.44,4.14,7.43,8.35,9,11.76,4.37,24.06,5.42,35.9,1.79s18-13.31,20.58-25.25c3.37-15.7-1-29.17-12-40.45a206,206,0,0,0-17-15.46c-4.66-3.78-10.57-1.62-15.93-2.09"/><path class="cls-2" d="M1112.36,62c-5,2-10.61,3.14-14.87,6.18-9.56,6.82-13.87,17.29-16.57,28.33-2.43,9.94-3.49,20.29-6.74,29.92-7.19,21.37-21.9,36-42.79,44.62-9.44,3.89-19.2,7.85-24.89,17a85.47,85.47,0,0,0-8,17.46C994.61,216.88,990.7,228.32,988,240c-4.57,20,5.69,40,23.81,49.53,12.37,6.48,25.31,11.32,39.05,13.27,12.57,1.79,23.66-2.26,28.41-19.35,4.1-14.75,4.59-29.79,2.62-45-1.29-10-1.73-20-3.15-30-1.27-8.81-1.25-17.37,1-26,3.44-13.05,16.66-25.11,31.55-25.51,6.84-.18,13.67-.95,20.5-.9,11.83.08,23.67,1.08,35.49.78,9.44-.25,18.73-2,26.54-8.3,6.16-5,8.82-11.44,10-19,1.49-9.31.07-18.23-2.63-27-4.32-14.06-13.74-23.59-27.47-28.43-15.23-5.37-30.82-9.49-47-11.06-4.66-.45-9.33-.68-14-1"/><path class="cls-2" d="M867.39,219a15.42,15.42,0,0,1-3,1c-11.66,1.38-23.37,2.39-35,4.14-8.06,1.21-16.28,2.94-22.94,8-8.1,6.13-10.12,15.48-11.57,24.91-2.34,15.33-4.4,30.71-7.1,46a30.23,30.23,0,0,1-13.88,20.55c-4.6,3-9.18,6.1-13.48,9.51-8.46,6.71-13,15.92-16.62,25.92-4.43,12.35-7.78,24.89-7.8,38a59.87,59.87,0,0,0,5.43,25c5.33,11.69,17.19,15.21,27.95,8.51,14.66-9.12,23-23.1,29.51-38.49,4.54-10.72,6.26-22.12,8-33.5,2-13.3,8.86-22.31,22-26,14-3.89,27.87-8.21,42-11.34,11.31-2.5,23-3.26,34.44-5.26,7.56-1.32,14.92-3.27,20.59-9.34A24.46,24.46,0,0,0,932.74,290c.42-20.1-5.57-38.63-15.4-56-4.44-7.84-11.92-11.78-20.47-12.89-9.59-1.26-19.31-1.47-29-2.14"/><path class="cls-2" d="M1008.37,952.88c-5,.67-10,1.57-15,2-15.08,1.16-25.91,8.4-32.5,22-3.76,7.77-7.89,15.35-9.54,24-1.13,5.92,1.76,11.83,7.57,12.92,13.52,2.52,26.84,2,38.43-6.48,12.57-9.19,21.3-21.47,27.06-35.92,5.17-13-2.94-19.06-13-18.52-.83,0-1.66,0-2.5,0"/><path class="cls-2" d="M249.47,68c-10.76,3.11-17.69,11-22.84,20.09-9.22,16.18-17.74,32.78-26,49.46A50,50,0,0,0,195,161c.18,7.5,2.24,14.44,7.52,20,3.59,3.74,7.87,6.81,11.4,10.6,5.71,6.13,12,12,16.36,19.06,9.49,15.24,22.25,27,36.18,37.88,5.53,4.3,11.09,8.56,16.48,13,4.55,3.77,10.07,4.85,15.53,5.35,10.37.93,20.7-.06,30.47-3.92,14.24-5.64,22.23-15.92,24.18-31.44,1.42-11.36.26-21.72-6.69-31A59.13,59.13,0,0,0,329,185.43c-12.6-7.51-25-15.32-37.53-22.94-9.63-5.86-15.17-14.91-18.89-25.05-3.49-9.48-6.13-19.28-9.07-29a14.1,14.1,0,0,1-.51-4c-.05-7.84,0-15.67,0-23.5,0-9.42-3.58-13-13-13"/><path class="cls-2" d="M1418.32,977.88c-5.33,5.66-10.88,11.15-15.92,17.06-3.09,3.64-5.51,7.87-8,12-1.12,1.83-2.29,3.93-2.44,6-.67,9.2,5.93,16,15.39,17,16.78,1.81,23.45-10.36,24.47-21.55.5-5.48.9-11,1-16.49.15-9.26-4.71-14-14-14"/><path class="cls-2" d="M1035.37,204c-20.69,6.63-29.49,22.74-32.3,42.53-2.3,16.23,5.2,27.73,20.86,33.82a68.56,68.56,0,0,0,19.45,4.45c9.8.74,17.27-5.19,20.48-14.81,5.21-15.64,2.39-30.75-3.61-45.44-1.75-4.3-4.75-8.14-7.41-12-4-5.91-10.19-7.93-17-8.53"/><path class="cls-2" d="M389.45,279c-2,.5-4,1.13-6,1.47-11.14,1.86-21.24,15.06-21.86,26-.66,11.69,1.67,21.2,10.36,29,4.7,4.22,10.65,5.73,16.52,6.9a72.77,72.77,0,0,0,27.48.11c13-2.36,19.83-11.13,22.86-23,2.06-8.12,3.44-16.57,1.09-24.95-1.88-6.71-5.23-12.3-13-13.5-4.65-.73-9.31-1.73-14-1.93-7.65-.32-15.32-.08-23-.08"/><path class="cls-2" d="M1270.34,80c-10.33,2.14-14,10.56-16.3,19.05-3.12,11.28-4.64,23-7.26,34.43-2.54,11.07-5,22.21-8.61,32.95a36.6,36.6,0,0,1-20.37,21.94c-12,5.32-24.25,9.87-36.46,14.59-12.9,5-23.79,12.25-28.39,26.05a191.91,191.91,0,0,0-5.06,20.48c-2.3,10.8-4.52,21.62-6.48,32.49-1.43,8-2.68,16-3.42,24a30.13,30.13,0,0,0,1.44,10.47c3,10.89,8,11.76,17.42,10,7-1.33,12.6-5.68,17.94-10,8.06-6.56,15.75-13.57,23.56-20.43,10.58-9.3,22.73-14.43,37-14,11.49.35,23,.38,34.49,1.06,26.72,1.6,50.19,10.94,69.51,29.92,8.32,8.18,11.82,18.6,14.5,29.51,5.4,22,13.09,42.77,29.91,59.07,6.71,6.5,14.83,8.69,23.57,9.36,8.47.65,17.05.24,25.48,1.19,10.46,1.19,18.4,7.55,26,14.33,6.11,5.41,12.47,10.59,19,15.48,6.13,4.6,13.57,5.93,21,7s14.73,1.68,22,3.1c13.52,2.65,20.1,12.52,25.11,24.38,6.07,14.35,12.9,28.37,19.39,42.54,6,13.1,17.39,18.68,30.49,22,12.15,3.09,24.19,6.59,32.48,17,6.61,8.32,10.64,18,14,28,4.09,12,8.39,24,16.51,34,9,11.16,20.47,15.55,35,13.25,7.15-1.13,14.59-3,22-1.19,10.83,2.71,18,9.88,21.92,20,3.44,8.83,5.87,18,9.15,26.95,4.49,12.2,14.1,18.62,26.46,19.74,7.32.67,14.58-2.51,20.42-7.3q10.13-8.3,19.51-17.47,20.46-20,40.46-40.53a75.66,75.66,0,0,0,9.52-13c6.72-10.82,7.8-22.57,5.62-35a213.27,213.27,0,0,0-15.52-49.5c-4.51-10.19-12.67-17.38-20.67-24.34-15.9-13.83-32.35-27-48.94-40-8.39-6.57-17.49-12.25-26.44-18.06-13-8.47-20.07-20.77-23.48-35.53-2-8.67-4.58-17.25-5.82-26-1.13-8,1.38-15.6,5.8-22.49,4.77-7.44,9.76-14.77,13.88-22.56,2.89-5.45,4.32-11.65,6.67-17.41,6.44-15.75,18.79-24.1,35-27.5,11.93-2.51,23.32-.74,34.53,3.91,7.48,3.1,14.9,6.58,23.46,6.15,11.33-.57,21.87-11.79,22.66-23,.84-11.87-4.14-20.47-11.46-29.18a222,222,0,0,1-23-32.45c-9.93-17.34-20.12-34.42-32.13-50.43-6.76-9-13.47-18.2-18.91-28-9.54-17.21-23.51-28.54-41.64-35.46-10.11-3.86-20.11-8.07-30-12.49-14.66-6.56-28.29-4.87-41,4.59-7.6,5.66-14.79,12-16.41,22a66.87,66.87,0,0,0,.79,25c2.38,11,4.44,22.13,3.54,33.47-.52,6.53-2.08,13-2.34,19.51-.4,10.31-1.16,20.79.13,31,2,16.14,5.37,32.18,4.1,48.51-.54,6.91-2.46,13.79-4.43,20.48-2.67,9.07-10.11,13.71-17.87,18.09-10.15,5.74-20.31,11.54-29.92,18.1-5,3.4-9.12,8.21-13,12.9-6.78,8.12-14.68,14.38-25.09,16.89-8.48,2-16.32-1.4-23.93-4.1-14.33-5.09-24.13-15.71-32.08-28.33-8.86-14.09-18-28-27-42a56.94,56.94,0,0,0-19.49-19c-6.53-3.79-13.51-3.67-20.5-2.4-7.39,1.34-14.68,3.24-22,4.93-6.57,1.52-13,.34-19-2.12-6.5-2.69-10.32-13.1-9.14-20.4,2.15-13.2,8-25,14.28-36.38,7.58-13.75,10.07-28.26,10.37-43.59.27-13.94-.25-27.73-5.08-41-5.19-14.27-11.44-28-23.54-37.92-5.19-4.24-11.74-5.87-18.43-6-7.5-.19-15-.34-22.5,0-17.58.85-34.29-3.54-51-8.07-10.32-2.81-20.66-5.5-31.5-5"/><path class="cls-2" d="M912.39,194c-6,1-12,2.42-18,2.91-12.14,1-24.32,1.77-36.49,2-10.66.18-21.33-.79-32-.84-12.9-.05-25.47,1.86-37.52,6.89-11.07,4.61-17.61,13.6-17.44,25.55.17,12.17.87,24.33.9,36.5,0,16.08-5.53,29.74-18.42,40-10.71,8.52-20,18.17-23.5,32-1.71,6.65-3.4,13.32-5,20-2.87,12-5.89,24-8.44,36-2,9.43-3.4,19-5.07,28.49-3.53,20-17.23,29.86-35.53,34.35a168.76,168.76,0,0,1-27,4c-11.71.91-23.09-1.81-34.51-4.26-13.59-2.92-27.55-5.36-40.9.54a103,103,0,0,0-21,12.47c-14.63,11.26-31,19.27-47.58,26.89-5.95,2.73-11.3,6.06-15.64,11.37-7.47,9.16-4.73,17.91,3.15,22.57a109.38,109.38,0,0,0,14,7.45c13,5.29,25.57,11.17,34.95,22.09a116.94,116.94,0,0,1,19,30.5c3.5,8.26,6.85,16.48,8.72,25.44,3.33,16,.47,31-5.84,45.47a137.89,137.89,0,0,1-23.41,36c-8.86,10-20.12,16.76-32.47,21.48-21.43,8.18-42.63,16.85-63,27.5-10.16,5.32-18.82,12.07-22.89,23.08-4.21,11.38-3.33,27.1,6.86,35.54A26.27,26.27,0,0,0,443,811.76q22.19,2.09,44.48,3.06c15.49.68,31,.7,46.49,1.1,8.67.22,17.34,1,26,.9,14.62-.11,27.12-5.45,38.07-15.34,15.83-14.3,24.68-32.58,32-52,2.86-7.58,5-15.59,11.28-21.65,4.3-4.14,9.33-5.33,14.61-5.27,12.33.13,24.69,1.64,37,1.19,16-.58,32-2.72,45.88-11.5,5.87-3.71,11-9,15.5-14.41,8.84-10.62,13-23.82,18-36.43,2.37-6,3.76-12.3,5.59-18.46,2.42-8.11,1.29-15.27-5.48-21-3.24-2.75-6.1-6-9.56-8.42-10.63-7.35-16.22-18.12-21-29.56-5.48-13.24-10.16-26.85-11.73-41-1.19-10.68-.07-21.64.29-32.46.16-5,1.06-10,1.41-15,.68-9.72,4.76-16.72,14-21.15,9-4.32,18.26-8.1,26.19-14.7,9.39-7.82,16-17.6,22.35-27.66,10.8-17,18.69-35.43,25-54.5C827.15,353.61,845,342,867.89,336a137,137,0,0,1,34-4.06c16.33-.11,32.67-.31,49-1.07,8-.36,11.87-4.19,9.45-14.36-2.79-11.71-6.32-23.26-8.86-35-3.84-17.76-7.16-35.63-10.54-53.49-1-5.11-1.16-10.36-2.09-15.48-2.1-11.5-10.32-18.16-22.45-18.5-1.17,0-2.34,0-3.5,0"/><path class="cls-2" d="M626.42,175a49.5,49.5,0,0,0-30.92,22.54c-9.09,14.5-20.7,26.85-32,39.49-8.87,9.9-15.9,20.94-19.61,33.94-1.56,5.45-3.9,10.69-5.93,16-4.47,11.72-13.5,19.52-23,27-8.89,7.05-16.57,15.15-18.49,27a91,91,0,0,0-.85,24c1.08,10.7,0,21.63-.2,32.46-.11,6-1.3,12.17-.28,18,1.77,10,11.94,15.64,23.25,11.94,6.51-2.13,12.75-5.12,19-7.93,10.38-4.65,21.31-6.89,32.5-8.56,16.36-2.44,33.09-2.65,49-7.9,17.3-5.7,27-18.2,29.78-35.54,2.36-14.72-3.59-27.41-13.84-37.92-6.08-6.24-12.61-12-19-18-6.73-6.37-8.09-14.38-6.43-23,1.5-7.73,3.41-15.4,5.48-23,3.17-11.67,11.28-19.39,21.5-24.91a120.08,120.08,0,0,1,17-7c7.85-2.78,15.23-5.55,17.64-15,1-4,0-7.41-1.3-10.48-6.59-15-17-26.44-32.9-32-3.07-1.07-6.63-.77-10-1.1"/><path class="cls-2" d="M1723.28,151c-7.28,2.9-11.36,8.72-12.36,16-2.54,18.33-7.2,36.29-9.81,54.52-3.7,25.74,7.3,42.66,34.22,50.29,12.66,3.58,25.2,1.18,36.41-5.9,9.62-6.08,15.77-19.38,11.69-35.48a66.92,66.92,0,0,0-10.25-22.88c-7.56-10.53-12.4-22.28-17.57-34a69.25,69.25,0,0,0-10.44-16c-5.5-6.59-13.35-7.31-21.39-6.59"/><path class="cls-2" d="M824.4,142c-5,3.17-10.44,5.81-14.92,9.6C797,162.12,782,168,767.92,175.5c-10.86,5.79-21,12.71-25.88,24.53a51.25,51.25,0,0,0-3.46,26c1.13,9.9,4,19.15,6.92,28.43,4.51,14.21.76,26.08-9.11,36.5-4.7,5-9.62,9.72-14.49,14.51-9.22,9.08-13.16,20.21-14.08,33-2.28,31.74-11.32,61.32-31.56,86.37-9.54,11.81-22.41,18.43-38.34,18.23-11.21-.13-22-2.9-33-3.9-15.9-1.44-31.72-.45-46,8.28-12.12,7.41-24,15.29-36.59,21.81-9.65,5-20.16,8.38-30.41,12.15-13.27,4.89-25.75,10.78-34,23-6.4,9.54-9.06,25-.38,33.89A35.77,35.77,0,0,0,470,546.73c8.06,3,16.53,5.09,24.93,7.16,18.73,4.62,34.8,13.43,45.91,29.58,9.67,14.06,15.94,29.48,15,46.95-.71,13.22-5.34,25.51-11.59,36.91-7.71,14.06-17.71,26.49-32.39,34a224.9,224.9,0,0,1-21.46,9.06c-21,8.09-42.14,15.66-62.94,24.15-16.33,6.66-24.77,20.11-28.55,36.87-2.11,9.35-4.13,18.72-6.54,28a30.37,30.37,0,0,1-18,21c-10.41,4.54-20.86,9-31.5,13-13.51,5-24.53,12.84-29.81,26.63-2.28,6-3,12.58-4.12,18.95-1.41,8.06-2.74,16-6.43,23.54-4.94,10.11-9.86,20.36-13.41,31-4.39,13.15-3.91,26.79,3.45,38.84,10.92,17.9,27.58,21.05,45.32,11,9.39-5.3,17.06-12.92,23.89-21.06,8.9-10.61,20.31-17.06,32.64-22.35,11.19-4.79,22.62-8.88,33.06-15.41,10.82-6.76,15.93-16.58,17.29-28.63.51-4.57-.36-9.33-.9-14-.86-7.35-2.4-14.64-2.87-22-1-15.67,8.78-26.46,25.41-27.93,15-1.32,30-2.12,45-3,7.49-.46,15-1,22.49-.95,9.67,0,19.34.45,29,1,14.8.77,27.88-4,40-12,14.38-9.58,27.89-20.2,38.4-34.07a82.52,82.52,0,0,0,9-15.47c4.74-10.35,12.69-16.2,23.59-18.45,16.32-3.36,32.73-6.37,49-10.08,21-4.78,39.22-14.91,55-29.45,7.22-6.65,12-15.12,17.11-23.42,5.83-9.53,11.74-19.11,18.54-28,9.44-12.26,11.13-27.44,4.46-41.13a79.31,79.31,0,0,0-17.08-23.45c-11.31-10.65-21.28-22.23-28.09-36.45-6.2-12.93-9.44-26.34-7.76-40.53A57,57,0,0,1,773.43,492c9.23-14.23,19.34-27.95,27.76-42.64,7.5-13.09,13.18-27.22,19.72-40.87,6-12.57,9.81-26.18,18.43-37.54,10.55-13.9,24.45-21.51,41.55-24,20-2.89,39.46-.81,57.93,7.18,12.49,5.4,21.77,15,28.56,26.84,6.67,11.66,12.94,23.58,20.11,34.93,7.53,11.93,17.65,21.12,31.89,24.53,9.3,2.23,17.61-1.21,25.46-5.52,20.28-11.15,33.41-28.62,42.48-49.46a70.26,70.26,0,0,0,4.45-13c2.06-9.58-3.42-15.68-11-19.9a699.39,699.39,0,0,0-67.95-33.06c-5.64-2.4-11.42-4.48-17-7.05C981.25,305.64,972,294.18,966.82,279a124.56,124.56,0,0,1-6.9-37.51c-.2-9.33-.69-18.72.16-28a71.37,71.37,0,0,0-1.35-22c-2.27-10.45-11.31-18.61-23.83-20.63s-24.46,1.1-36.52,3.56c-13.57,2.78-27,4.39-40.06-2.82-7.69-4.23-12.59-10.49-17-17.62-1.62-2.63-3.6-5-5.47-7.51a11,11,0,0,0-11-4.51"/><path class="cls-2" d="M1707.29,123c-5.39,1.44-10.46,2.94-14.63,7.38-5.48,5.83-7.56,12.5-7.88,20.12-.83,19.62-1.19,39.2-5.78,58.54-3.4,14.35-2.46,28.93,1.09,43.5,3.05,12.51,8.63,23.82,13.59,35.49,2.29,5.4,4.53,11.24,4.78,17,.22,5.09-2.52,10.28-3.64,15.49-2.68,12.48-10.89,17-23,18.79-11.07,1.61-22.3,3.55-32.61,9.06-12.94,6.91-21.66,17-26.35,30.66-3,8.86-5.23,18-8.11,27a225.31,225.31,0,0,1-25.41,54c-9,13.82-8.92,28.29-1,42.42,7.52,13.32,22.22,18.91,37.87,13.94,8-2.55,15.56-6.67,23.59-9.23a45.55,45.55,0,0,1,15.44-2c10.87.45,15.45,8.56,16.49,18.35,1,9.39-2.17,18.15-4.55,27-3.14,11.68-3.35,23.29,1.17,34.47,5.07,12.54,12.78,16.8,25.9,14.61,11.26-1.89,22.8-3.22,33.92-.33,8.24,2.13,15.76,6.58,20.07,14.76,5.8,11,12,21.82,17.33,33.07a33.3,33.3,0,0,0,10.69,13.38c5.6,4,11.11.64,15.33-2.15,12.54-8.28,24.59-17.3,36.57-26.38a126.08,126.08,0,0,0,15-13.47c11.65-12.2,11.78-26.68,6.42-41.39a372.55,372.55,0,0,0-15.51-36.47c-4.78-9.78-12.08-18-20.39-25-11.31-9.56-22.57-19.25-34.58-27.87-8.5-6.1-18-10.9-27.41-15.59-16.9-8.43-27.08-21.38-31.15-40-3.75-17.2-9.07-34.06-13.83-51-2.16-7.71-3.56-15.52-2.89-23.5.53-6.45,4.34-11.17,9.4-15A45.28,45.28,0,0,0,1728.86,321c4.83-13.65,15.21-21.57,28.4-26.58,11.6-4.41,23-9.32,34.52-13.93,7.13-2.85,12.74-7.81,17.31-13.66,1.93-2.47,2.57-6.52,2.57-9.85a112.85,112.85,0,0,0-15.84-58c-8.56-14.53-16.6-29.37-25.07-43.95-10.8-18.61-28.51-26.7-48.49-30.92-4.69-1-9.64-.76-14.47-1.1"/><path class="cls-2" d="M568.43,971.88c-8.75,3.63-8.38,11.31-7.32,18.47s3.19,14,8.33,19.51c5.3,5.64,9.73,5,12.37-2.53,3.11-8.82,3.7-18.17-.07-26.87-2.17-5-5.92-9.66-12.81-8.58"/><path class="cls-2" d="M52.49,119c-5.47,1.82-11.27,2.59-16,6.44-7,5.67-8,10.76-4.06,19.1,2.34,4.93,5.94,8.32,10.1,11.46,11.94,9,24.06,17.76,38,23.44,7.21,2.94,14.43,3.55,21.51-.91,4.7-3,7.52-8.58,5.89-14a54.32,54.32,0,0,0-5-12.45,218.38,218.38,0,0,0-14.49-21.49C82.46,123,74,119.53,64.49,119c-3.82-.2-7.66,0-11.5,0"/><path class="cls-2" d="M1286.34,101c-15.77,3.51-20.91,16.19-24.34,29.53-3.69,14.33-5.82,29-9.28,43.43-2.24,9.33-6.38,18.1-14.92,23.45-12.15,7.62-24.79,14.47-36.9,22.15-11.17,7.08-16.79,17.47-16,30.92.2,3.48.75,6.77,3.41,9.57a9.07,9.07,0,0,0,7.57,3c16.64-.59,33,1.7,49.52,3.7,13,1.57,26.31,1.22,39.47,1.16a187.92,187.92,0,0,1,38,3.89c15.17,3,27.3-3,36-15.8A116.84,116.84,0,0,0,1377,210c1.83-10.48,5.44-20.63,7.76-31,1.76-7.9,3.62-16,3.85-24,.25-8.61-3.19-16.32-9.15-23.08-7.16-8.13-16.07-12.82-26.11-15.9-13.16-4-26.37-7.87-39.48-12-8.85-2.82-17.87-3.21-27-3"/><path class="cls-2" d="M457.44,100c-5,2.24-6.48,6.33-6.54,11.5-.12,10.37-.23,20.72,4.05,30.49,5.19,11.84,14,18.66,30,15.11,6.3-1.4,11.79-3.5,16-8.57,2.52-3,4.43-11.69,2.41-15-8.9-14.57-20.48-26.17-37-32-2.68-.94-5.64-1.06-8.48-1.56"/><path class="cls-2" d="M312.46,82c-5.28,2.46-7.18,6.56-6,12,3.36,15.84,13,28.37,21.55,41.48,7.28,11.16,17.68,18.83,29,25.54,8.1,4.83,16,10,24,15,9.49,5.82,16.44,2.64,22.41-5.54,9.56-13.09,8.79-32.8-1.87-44.48-6.83-7.48-15.66-10.67-25.05-12.94-8.49-2.06-17.11-3.64-25.46-6.11-9.16-2.71-15.46-10.08-23.06-15.36-4.85-3.38-10-6.37-15-9.54"/><path class="cls-2" d="M1125.36,86c-7.27,1.46-13.51,4.38-17,11.49-3.36,6.81-1.39,17.57,4.52,24,7.34,8,16.6,12.49,27,15,8.58,2.07,17.1,3.49,26,1.59,7.23-1.53,13.37-4.23,15.9-11.62a23.21,23.21,0,0,0-3.46-22.45c-8.22-10.9-20.2-15-33-16.91-6.4-1-13-.78-19.48-1.11"/><path class="cls-2" d="M1664.29,412c-10.54,7-15,17.46-16.45,29.5a8.07,8.07,0,0,0,6.47,8.89c9.13,1.74,17.78.8,23-6.87,5.67-8.31,5.67-23.79-5.62-30.89-1.75-1.1-4.59-.46-6.92-.63"/><path class="cls-2" d="M392.45,421c-11.8,3.2-20.75,10.94-27.81,20.13-13.35,17.38-30,30.33-48.6,41.5a115.54,115.54,0,0,0-20.94,16c-10.74,10.43-9.91,22,.4,32.31a54.4,54.4,0,0,0,31,15.78,104.89,104.89,0,0,0,27.93,0c13.46-1.75,23-9.52,25.93-23.28,4.2-19.84,12.4-38.32,18.53-57.5,2.68-8.38,4.38-17.09,7.15-25.44,3-9.07-1.59-18.74-13.09-19.53"/><path class="cls-2" d="M870.89,453.44c-3.83.34-7.81.13-11.47,1.1-12,3.18-20.3,11.26-25.95,21.94-5.51,10.42-8.17,21.79-9.59,33.45-.58,4.85-2,9.69-1.84,14.5.28,9.42,1.23,19,6.92,27,6.21,8.71,13.19,16.87,19.35,25.61a187.18,187.18,0,0,1,13,21c7.65,14.59,15,29.29,25.09,42.45a18.4,18.4,0,0,1-.84,22.65c-6.35,7-11.65,15.07-17.06,22.91-1.62,2.33-3.52,5.19-1.13,8.45,2.57,3.49,6.47,3.14,9.48,2.31,9.13-2.52,18.1-5.69,27-8.89a45.88,45.88,0,0,0,10-5c4.18-2.8,5-6.85,2.49-11.39a103.49,103.49,0,0,0-8.5-13c-4.09-5.19-4.29-10.66-1.36-16,9.13-16.61,18.2-33.27,28-49.46,7.89-13,20.38-19.52,35.37-21,6.8-.68,13.7-.4,20.49-1.14,10.65-1.16,17.86,3.94,23.47,12.1a61.65,61.65,0,0,1,9.94,27c1.41,10.44,1.9,21,3.17,31.47.6,4.93,2.29,9.69,6.43,13,6.81,5.43,13.37,6.17,20.38.87a101.52,101.52,0,0,0,17-16c8.66-10.41,15.78-21.8,20.26-34.84,4.92-14.37-.47-27-12.6-34.09a70.66,70.66,0,0,0-31.52-9.49,131.78,131.78,0,0,1-18-2.06c-10.2-2.17-16.57-8.57-19.05-18.89-3.37-14-6.22-28.24-10.65-41.94-5.8-17.94-17-31.42-36.33-36a92.43,92.43,0,0,0-20-2.92c-12.84-.15-25.4-1.93-38-4-7-1.16-14.3-.82-21.47-1.14-4-.19-8-.34-12-.51"/><path class="cls-2" d="M600.42,476.94c-3.66.83-7.66,1-10.93,2.62-10.43,5.19-17,13.53-18.57,25.38-1.28,9.5-2.38,19-4.06,28.48A75.2,75.2,0,0,0,570,571.89c4.14,11.85,9.44,23.29,13.81,35.06A71.23,71.23,0,0,1,588,632.42c-.06,11.53-.35,22.89-4,34-2.25,6.87-6.07,12.6-10.63,17.94-9.42,11.07-19,22-28.47,33-12.16,14.12-28.42,20.42-46,24.57a124.32,124.32,0,0,0-37.42,15.56,46.08,46.08,0,0,0-11.95,11c-5.69,7.44-5.16,14.66,3.84,21.92,5.46,4.4,12,6,18.53,7.42,12.18,2.59,24.53,3.25,37,3.14,11.16-.1,22.41-.12,33.47,1.13a88.2,88.2,0,0,0,25-1.12c6.81-1.14,12.41-4.41,17.42-8.66,10.86-9.22,17.43-21.4,22.54-34.44,5.49-14,7.34-28.55,7.66-43.49A65.71,65.71,0,0,1,618,697.94c2.79-9.81,11.13-12.81,19.9-15,9.83-2.49,18.73-.12,27.55,4.4,6.78,3.46,13.92,6.31,22,3.66,5.61-1.85,10.69-7.77,10.43-13.55-.49-11.34-2-22.68-1.77-34a215,215,0,0,1,3.67-37.53c2.08-10.68,2.53-21.68,4.22-32.45,2.33-14.79,1.95-29.65,1.9-44.51,0-9.65-1.59-19.18-5.58-27.94-5.37-11.78-14.56-19.08-27.89-20-12-.84-24-1.37-36-2l-35.5-2"/><path class="cls-2" d="M1295.34,123c-12.36,3.77-15.39,14-17.51,25-2,10.35.23,20.38,2,30.51a65.46,65.46,0,0,1-7.41,44c-2.54,4.56-2.08,8.14,1,10.45a4.8,4.8,0,0,0,2.48,1c12.66.72,25.36,2.21,38,1.84,17.49-.52,27-12,28.13-27.79.82-11.21,2.72-22.36,4.41-33.5,1.67-10.94-.28-20.54-7.95-29.07-8.5-9.44-17.67-17.75-30.12-21.3-3.94-1.13-8.3-.79-12.46-1.13"/></svg>