<svg id="Layer_1" data-name="Layer 1" xmlns="http://www.w3.org/2000/svg" viewBox="0 0 768 703"><defs><style>.cls-1{fill:#939598;}.cls-2{fill:none;stroke:#bcbec0;stroke-linecap:round;stroke-linejoin:round;stroke-width:0.75px;}</style></defs><title>topo_tablet1</title><rect class="cls-1" x="-538.42" y="-201.42" width="1944" height="1106"/><path class="cls-2" d="M186.16,891.86c.39-8.68,4.45-16.16,9.17-22.87,7.35-10.46,15.79-20.15,23.84-30.11s17.48-18.37,24.08-29.44c7.33-12.31,6.87-24.88,2.29-37.52s-13.86-21.35-24.86-28.58c-7.37-4.83-14.19-10.38-17.46-19a41.59,41.59,0,0,1-2.49-10c-1-9.38-1.24-18.76,1.4-28,2.07-7.22,6.69-11.49,14-13,6-1.24,12-2.54,18-4,14.19-3.47,23.58-12.25,28.51-26,5.44-15.13,13.18-28.83,24.41-40.58a189.55,189.55,0,0,0,17.49-21c17.22-24.25,40.69-39.46,68.59-48.37,8-2.56,16.45-4,24.45-6.64,18.5-6.13,34.5-16.58,49-29.41q3.45-3.06,7-6c4.65-3.83,8.24-3.95,13.51-1,7.77,4.29,15.41,8.94,23.56,12.34,5.93,2.48,12.54,3.42,18.93,4.63,6.78,1.28,13.83,1.4,20.45,3.2q19.21,5.23,28.63,23.31c7.65,14.66,14.48,29.59,16.78,46.06a91.46,91.46,0,0,1-.82,31,70.07,70.07,0,0,0-1.49,12.49c-.24,10.22,4,13.47,13.44,13.74,8.46.24,17-1.39,25.47-2.83,10.56-1.8,21.06-4,31.5-6.46,12.8-3,18-12.44,19.43-24.46.79-6.78.71-13.66,1.09-20.49.28-5,.87-10,.95-15,.19-12.72-1.75-25.13-4.82-37.52-4.35-17.53-12.8-32.62-24.06-46.53-7.69-9.5-11.8-20.68-13.14-32.92-1-9.37-1.9-18.85-4.17-27.95-1.62-6.47-5-12.65-8.35-18.51a142.23,142.23,0,0,0-54-53.31c-7-4-15.45-5.54-23.38-7.66-13.47-3.6-25.5-9.28-32.37-22.12-3.3-6.16-5.36-13-8.13-19.43-6.22-14.5-14.71-27.29-27.45-37-14.75-11.29-24.32-26-31.33-43.34-8.55-21.13-22.7-37.93-45.68-45.12-11.51-3.61-23-5.41-35-2.1-14.06,3.87-24.21,12-31.57,24.54-8.35,14.22-12.42,30.12-19,45-4.31,9.82-9.56,19.23-13.86,29.05C283.09,285.84,277,298.64,273,312c-3.07,10.29-3.34,21.27-2.12,32.42,2,18.47,12.08,32.08,23.85,44.91,11.35,12.38,20.59,25.84,27.12,41.47,6.86,16.43,5.39,31.27-4.7,45.57-2.26,3.21-4.72,6.3-7,9.51-6.51,9.3-12.79,18.7-15.53,30-4.24,17.49-15.9,27.79-32.45,33.55-11.1,3.87-22,8.43-33,12.39-6.89,2.47-14,4.44-21,6.54-9.15,2.75-18.14,5.78-26,11.49a32.09,32.09,0,0,0-11.08,36.55c2.71,7.64,4.55,15.6,6.56,23.48,1.76,6.87-1.11,10.84-8,10.36a98.78,98.78,0,0,1-16.49-2.93c-11.38-2.81-22.59-6.39-34.06-8.72-4.38-.89-9.44.2-13.92,1.4a250.81,250.81,0,0,0-24.5,8c-14.6,5.6-29.36,7.26-45.05,5.71-13.86-1.37-28-.37-42-.26-11.16.1-21.92,2.77-32.47,6.05-9.52,3-17.85,7.79-20.42,18.45-.81,3.34-.42,7-.6,10.47-.68,12.82,2.16,25.63-.85,38.53-2.72,11.67-9,20.39-19.21,25.85C-95.64,761.19-112,768.53-127.73,777a142.77,142.77,0,0,0-23.94,16c-10.83,9.07-20.76,19.21-31.14,28.82-3.21,3-6.89,5.46-9.92,8.59a60.55,60.55,0,0,0-8.94,11c-3.45,5.85-1.64,12.64,4.45,15.26,6.53,2.81,13.12,5.38,21,3.94,7.1-1.3,14.71-1,21.93-.1,10.92,1.35,18.07,8.17,22,18.34,1.65,4.27,3,8.65,4.53,13"/><path class="cls-2" d="M-59.81-187c4.17,5.67,8.54,11.19,12.46,17,9.79,14.58,19.5,29.21,29,44C-8.06-110,6.21-99.29,24.19-93.56c14.26,4.56,28.74,8.44,43,13.16,7.69,2.55,15.79,4.66,22,10.41,3.61,3.32,4.39,11.55,1.49,15.45a50.16,50.16,0,0,1-6,7c-16.71,15.43-30.43,33.38-44,51.48C33.94,12.84,26.38,21.09,19.75,30,11.48,41.18,5.55,53.75.28,66.51c-7.37,17.89-17,33.68-32.39,46.21C-42.3,121-48,133.17-49.73,146.47c-1.41,10.78-2.06,21.65-3.09,32.48-.88,9.3-3.19,18.14-8.49,26C-66.77,213-76,216.1-86.77,211.36c-7.21-3.19-14-7.26-21-10.91-8.32-4.33-16.92-8-26.49-7.93-10.39.09-20,3.26-27.94,10-10.7,9.06-18.19,20.6-23.5,33.46-6.35,15.41-14.73,29.26-29.1,38.4-10.77,6.86-22,13-32.93,19.6-5.77,3.49-11.54,7-17,11-11.11,8.14-13.19,19.77-8.22,32.52,6.17,15.82,18.7,22.46,33.69,26.4,14.3,3.76,28.58,7.66,43,10.92,11.72,2.65,23.77,3.89,35.43,6.76,10.8,2.65,21.06,6.7,29.16,15.22,5.15,5.43,7.8,11.86,9.24,18.64,4.12,19.53,10.86,38.29,15.91,57.53,1.88,7.13,1.38,14.93,1.69,22.44.49,12.11,6.93,19.17,19,18.88,23-.56,45.19-5.22,66-15.42,9.18-4.5,15.67-11.92,21-20.46,6.89-11,12.21-22.72,13.8-35.52,1.76-14.24-1.38-27.79-10.33-39.46C-5.07,390.76-18,383-33.83,381.62a356.22,356.22,0,0,0-42-1c-16.42.49-26.27-8-31.43-21.68a68.56,68.56,0,0,1-3.63-37c2.11-11.81,8.18-21.54,15.65-30.41,5.51-6.56,11.78-12.66,20.42-15a126.4,126.4,0,0,1,19-4c17.78-2,36-2,52.43-10.2,9.61-4.77,18.7-10.6,28.05-15.89a82.78,82.78,0,0,1,38.49-11c12.83-.4,25.72-.1,38.49-1.18,12.25-1,22.2-7.42,30-16.86,7.09-8.62,13.18-18,16.85-28.53,3.29-9.39,5-19.2,2.84-29.46-1.73-8.18-2.36-16.62-3.09-25-.78-8.88,3-16,8.86-22.56,5.53-6.17,10.58-12.81,15.54-19.46C178.89,84,180.45,74,182.16,64c4.41-25.87,2.53-52,3.07-78,.23-10.81-4.57-16.17-14.6-18.38-8.42-1.86-16.24-5-22.88-10.23a164.19,164.19,0,0,1-19.46-18c-6.07-6.69-5.9-14.77-.57-22.35a82.91,82.91,0,0,1,8-9.49,6.73,6.73,0,0,1,9.43-.52C159-81.21,172.8-69.31,186.68-57.54c3.17,2.68,6.4,5.51,10,7.38a13.58,13.58,0,0,0,11,.75c11.92-4.07,21.49-10.3,25.54-23.08,1.49-4.67-.09-8.94-1.25-13-3.66-12.73-9.39-24.69-18.46-34.42-6.32-6.79-15.34-9.45-24.34-8.43-14.58,1.67-27,8.75-38,18.29-1.62,1.4-3.28,2.75-5,4-3.47,2.5-8.74,1.94-12-1C122.69-117.2,111-127.12,99.73-137.57,88.84-147.71,82.91-160.84,79.23-175c-1-3.9-1.39-8-2.06-12"/><path class="cls-2" d="M442.13-187q3.5,16.75,7,33.5c2.67,12.81,8.91,23.75,17.49,33.51,7.2,8.19,12.44,17.63,17.05,27.46A37.86,37.86,0,0,0,488.17-85c4,5,9.59,4.85,14.49.59,8.47-7.37,11.64-17.49,14.93-27.56,6.1-18.6,15.72-35.09,29.58-48.93,6.68-6.67,14.78-8.91,24.47-7.77,9.3,1.1,17.8,4.12,26.5,7.13,13.84,4.79,27.87,9.35,42.48,10.92A84.2,84.2,0,0,0,671.1-153c3.64-1,7.31-2.22,11-2.38A10.67,10.67,0,0,1,692-150c6.73,11.79,13.05,23.85,15,37.48,1.44,10.27,3.15,20.69,2.83,31-.46,14.41-.86,29-5.19,43-5.44,17.65-17.54,27.66-35,32q-19.53,4.85-39,10c-19,5-28.39,18.62-31.37,37-2,12.55-2.64,25.33-4.18,38-1.46,12-3.61,24-4.87,36-1.52,14.62-4.1,29.18-3.1,44,.41,6.13,8.94,13.36,16,14.06,12.31,1.22,22.64-2.7,31.51-11.06,11.15-10.51,22.2-21.13,33.53-31.46,8.44-7.7,16.86-15.55,28-19.54,12.24-4.41,24.68-4.46,37.52-3.21,10.09,1,20,2.25,29.46,5.76,23.21,8.58,37.61,25,41.88,49.47a188.37,188.37,0,0,1,2.95,31c.1,15.09-5,27.88-17.62,37.75-6.94,5.42-12.67,12.89-17.52,20.36-8.91,13.72-21,23.69-34.77,31.71-8.41,4.91-18.21,6.67-27.89,8.2-23.21,3.67-46.67,6.76-68.42,16.15a99.46,99.46,0,0,0-36.3,26.55c-1.9,2.21-1.46,8,0,11.14,2.3,5,6.19,9.29,9.77,13.59,7,8.45,14.82,16.31,21.29,25.15,5.34,7.31,7.44,16.2,7.67,25.38.3,11.83.27,23.69,1.11,35.48.67,9.35,4.74,17.71,9.87,25.51,5.59,8.5,12.17,16.5,14.95,26.51,2.61,9.42,4.52,19,7.1,28.47a185.71,185.71,0,0,1,6.21,46.5c.24,14.79,3,29.44,6,44.05,3.22,15.86,10.09,29.77,18.12,43.51a49.63,49.63,0,0,1,6.12,35.43c-2.9,14.86-4.79,29.7.47,44.5,3.61,10.19,9.06,19.34,17.61,25.86,10.94,8.34,23.23,6.24,34.84,1.48,9.62-3.94,18.48-9.78,28.13-13.65,7.5-3,15.59-5.06,23.93-2.22,7.07,2.41,11.89,9.41,12.59,17,.83,9.09-2.29,16.83-7.18,24-4.29,6.26-9.51,11.88-13.85,18.11s-8.43,12.35-8.12,20.44a29.67,29.67,0,0,0,7.57,19c6.66,7.62,15.14,12.72,23.91,17.63,11,6.12,22.39,11.78,30.55,21.88.75.94,1.35,2,2,3"/><path class="cls-2" d="M634.1,891.86c3.5-6,7-12,10.5-18,4.74-8.21,8-16.7,8.71-26.48.73-10.64-8.13-17.83-15.73-19.92a56.49,56.49,0,0,0-34,.89,81.34,81.34,0,0,1-25,4.13c-6.51.13-13,1.25-19.5,1.87a25.05,25.05,0,0,1-4.5,0c-3.88-.33-6.05-3.43-4.42-6.94,1.84-4,4.42-7.62,6.39-11.55a40.12,40.12,0,0,0,4.59-20c-.54-12.15-.56-24.33-1.13-36.49a166.61,166.61,0,0,0-2-18.49c-1.39-8.82-6.76-15.09-14.48-18.91-11.83-5.85-23.88-11.27-36-16.54-12.74-5.55-25.74-10.51-38.45-16.11-11.75-5.18-20.61-13.12-23.6-26.42-1.59-7.11,1-13.62,7.05-17.06,6.91-3.92,14.58-3.85,22-4.31,7.63-.48,15.2.11,22-4.58a62.3,62.3,0,0,0,21.44-25.57c3.69-7.91,5-16.43,6-25,1.81-15.56-10.3-31.21-26-34-14.1-2.54-28.37-2.75-42.49-1.76-21.67,1.51-42.4,7.63-62.51,15.78-12.87,5.22-24.59,12.15-34.51,22-7.09,7-11.43,15.82-16,24.49-3.77,7.11-7.7,14.17-12,21-6.18,9.77-4.35,18.08,4.08,26.51,6.74,6.75,15.26,10.59,24,14,20.22,7.94,34.41,22.52,44.95,41,3.23,5.68,3.54,12,3.62,18.47.17,14.5-2.67,28.21-9.59,41-6.24,11.55-16.38,17.48-29,19.44-4.77.74-9.75,1.46-14.47.91-8.71-1-11.17-8.48-14.05-15.33-3.5-8.33-7.51-16.26-14.41-22.58-9-8.26-21.39-8.27-29.56.57-3.94,4.28-4.35,13.58-.45,20a40,40,0,0,0,23.95,18c3.54,1,6.92,2.72,10.52,3.4,8.52,1.61,11.88,7.41,14.09,15a215.75,215.75,0,0,0,8.46,23.5c7,16.51,20,25.44,37.44,27.37,10.74,1.19,21.65.78,32.48,1.17,17.66.63,35.33,1.84,53,1.78,9.84,0,19.73-1.74,29.48-3.41,8.73-1.49,13.47,1.7,14,10.62q.5,8.25,1,16.49"/><path class="cls-2" d="M670.6,891.36c7.16-20.66,14.55-41.25,21.34-62a44.67,44.67,0,0,0,1.88-16.43c-.21-3.42-2.42-7.28-4.86-9.88a97.38,97.38,0,0,0-14.42-12.55c-10.45-7.46-15.21-17.91-17.49-30.07-1.92-10.21-3.51-20.59-6.65-30.44A110.1,110.1,0,0,1,645,694.39,130.82,130.82,0,0,0,644,673.91c-.92-6.41-7.52-12-13.86-12.45-7.6-.52-15.08.19-22,3.92-10,5.38-19.86,11-30,15.94s-20.47,8.89-32,8-25-7-27.58-21.44c-1.26-7,1.3-13.09,4.16-19,5.73-11.79,11.88-23.38,17.92-35s9.83-23.82,8.4-37c-1.63-15-6.39-28.6-19.36-38.07a31.83,31.83,0,0,0-17-6.27c-19.81-1.09-39.67-2.17-59.48-1.85-8.7.14-17.45,3.29-26,5.78-12.44,3.64-24.68,8-37,11.9-22.37,7.13-42.13,18.28-57.52,36.48-9.84,11.63-19.81,23.16-30,34.47-6.61,7.3-12,15.19-13.34,25.06-1.17,8.89,2.37,16.53,8.41,23,7.26,7.73,15.17,14.92,21.8,23.16,4.32,5.37,7.14,12.05,10.08,18.39,2,4.32.57,7.49-3.93,8.86a175.8,175.8,0,0,1-19,4.54c-9.29,1.73-18.66,3-28,4.57-5.72,1-10.56,4.1-12.74,9.1a26.73,26.73,0,0,0-1.58,13.86c2.06,14.36,5.35,28.51,10.87,42a112.08,112.08,0,0,0,7.53,15.46c4.17,6.9,10.48,11.4,17.89,14.61,8.09,3.52,16.71,6.41,22.95,13,5.67,6,11,12.42,16,19,12,15.52,27.86,24.51,47.06,27.35,9.07,1.34,18.31,1.51,27.48,2.1,12.49.8,25,1.49,36,8.48.32.2,1-.13,1.48-.22"/><path class="cls-2" d="M684.1-187c1.5,4.5,2.69,9.13,4.57,13.47,2.45,5.64,5.69,6.55,11.94,5.64a107,107,0,0,1,18-1c6.82.16,11.95,4.3,16.45,9a86.64,86.64,0,0,1,8.51,10.47c14.28,20.33,33.78,32.11,58,37.12,12.23,2.53,24.07,1.32,36-.68,9.28-1.55,18.49-3.39,28-2,13.63,2,21.31,11.54,27.92,22.08,13.5,21.53,23.09,45,32.6,68.44,2.12,5.25,5.19,10.17,6.84,15.54,3.09,10,6.4,20.16,7.89,30.5,1.88,13.13,7.26,24.05,15.67,34,7.48,8.87,12,19.61,17,30,5.76,11.81,12.45,23.13,21.2,32.83,6.76,7.49,14.93,14,25.83,14.52a27.86,27.86,0,0,0,10.45-2,123.21,123.21,0,0,0,12.54-5.9c8.67-4.27,18.1-5.17,27.48-6.6a131.49,131.49,0,0,0,22-5c10.29-3.44,15.06-12.07,18-21.87,3.47-11.4,2.9-23,.86-34.46a268.77,268.77,0,0,1-4-45c-.14-14-2.81-27.74-8.94-40.47-5.14-10.67-8.06-21.69-6.88-33.52,1-10,4.94-19.07,9.36-28,7.47-15.18,19.33-25.1,35.1-30.39,10.39-3.49,20.61-2.35,31,1.26,12,4.16,22,11.37,32.59,17.94a185.8,185.8,0,0,0,31.41,15.06c15.29,5.88,26.58,15.78,33.88,30.19,8.7,17.17,20.33,32.12,33.52,46,7.15,7.53,13.86,15.47,21.07,22.93,7.42,7.67,16.15,13.65,27,14.87a84.44,84.44,0,0,0,20-.46c9.23-1.15,18.35-3.2,27.52-4.87"/><path class="cls-2" d="M-81.81-187c4.45,10,12,17.93,18.48,26.51,7.42,9.76,14.63,19.69,22,29.47,7.1,9.39,13.93,19,21.58,27.93,9.42,11,21.65,18.67,34,26,7.31,4.34,13.33,10,18.85,16.18,5.38,6,5.11,13.66,3.48,20.9A60.17,60.17,0,0,1,19.66-9.54c-5.58,5.42-11.37,10.62-17,16C-6.06,15-9.45,25.94-11.87,37.46c-2.86,13.66-7.21,26.85-16,37.94-4.31,5.41-9,10.81-14.51,14.92-14.3,10.67-20.93,25.3-24.49,42.12a236.93,236.93,0,0,1-7.51,27.48c-4.32,12.67-11.67,18.74-27.42,15.72-10.31-2-21-2.28-31.46-3.16-13-1.1-26-2.27-39-2.91-5.4-.26-11.91-3-15.85,3-2.16,3.29-2.85,7.56-4.14,11.41-3.68,11-7.12,22.07-11.09,33-2.19,6-5.2,11.72-7.92,17.52a58.15,58.15,0,0,1-20,23.54c-14.79,10.23-30.48,18.84-47.59,24.25-9,2.84-18.61,3.5-27.93,5.22-12.25,2.26-24.15.22-35.44-4.15a151.74,151.74,0,0,1-45.08-26.82c-9.06-7.86-17.84-15.9-24.49-26-6-9.13-8-19.39-9-30-1.5-17.22-1.87-34.47-5.79-51.54-6.06-26.4-22.63-42.34-46.66-52.56-16.53-7-33.68-7.2-51-6.88"/><path class="cls-2" d="M759.09-187c4.1,19.87,9.9,39.12,27.61,51.33,11,7.59,23.66,11.3,37.38,8.15,10.51-2.42,20.95-5.22,31.5-7.44,23.42-4.93,33,0,44.86,18.53,8.65,13.59,15.93,28,24.19,41.88,6.18,10.36,12.52,20.67,19.54,30.46C952.67-32.25,964.58-24,976.54-16q12.65,8.52,25,17.49c13,9.49,21.61,22.16,26.57,37.45,1.45,4.46,3.88,8.59,5.38,13,2.3,6.86,7.15,11.14,13.6,13.36,5.47,1.89,11.24,3.57,17,3.94,9.85.64,16.89-5.05,17.8-14.84a131.89,131.89,0,0,0-.08-28.44c-1.1-8.82-3.94-17.53-6.9-26-2-5.63-5.21-10.9-8.39-16-7.84-12.64-9.53-26.13-4.83-40,6.9-20.31,14.18-40.51,22.09-60.45,2.71-6.84,7.17-13.26,11.93-19,8.62-10.32,17.81-20.18,28.83-28.16,9.68-7,20.61-8.94,32-7.8,7.74.78,12.44,7.13,16.38,12.94,11.2,16.53,26.16,29,42.15,40.38,8.19,5.86,17.55,8.77,27.45,7.36,12.63-1.79,18.86-6.77,23-19.86A76.24,76.24,0,0,0,1269.1-155c-.27-13.42-5.44-19.78-18.56-22.55-7-1.46-13.65-.45-20.52.47-14.65,2-29.27,2.84-44-.2-6.09-1.25-8.18-6.37-12.45-9.21"/><path class="cls-2" d="M158.66,891.36C161.2,876,169.17,863.27,179.25,852c10.58-11.89,18.67-25.35,26.33-39.12,3.46-6.24,6-13,9.09-19.45,4.17-8.78-.79-19-7-23.48-3.42-2.44-6.93-4.77-10.49-7a84.35,84.35,0,0,1-31.38-34.57c-7.09-14.4-18.93-20.6-34.11-21.93a49.8,49.8,0,0,1-28.87-12.15c-14.67-12.85-32-19.18-50.61-22.86C43,669.58,33.92,667.1,24.66,666c-19.91-2.33-39.16-.31-55.38,13a23.94,23.94,0,0,0-9,17.38c-.67,14.82-.68,29.67-1.16,44.49a117.29,117.29,0,0,1-1.46,12.5c-1.51,10.83-9.93,16.44-17.54,22.42S-76.32,787.1-81.17,796a124.33,124.33,0,0,0-10,23c-4.71,15.33-9.13,30.82-12.4,46.5-1.77,8.53-.92,17.61-1.26,26.44"/><path class="cls-2" d="M-222.29-186.5c.5,1.17,1.43,2.33,1.43,3.5.09,16.78,4.88,32.12,15.71,44.87a302.47,302.47,0,0,0,27.47,28c9.82,8.9,22.34,12.91,34.86,16.67,8.58,2.57,17.49,4.68,25.41,8.66,12.53,6.31,18.59,17.89,21.64,31.27,3,13,5.92,26.12,9.58,39C-83-3.37-74.29,2-62.82,2.61-52.83,3.12-44,0-35.33-4.06c10.24-4.85,20.48-9.72,30.44-15.1,3.31-1.79,5.93-5,8.54-7.89,8.19-9,8-25.63-2-35.41-8.58-8.42-18-16-26.35-24.65C-35.29-98-46-109-55.09-121.17-66.51-136.49-76.43-152.93-86.74-169c-3.57-5.58-6.4-11.63-9.57-17.46"/><path class="cls-2" d="M423.63,293.44c-6,1-12.06,1.71-18,3.06-11.15,2.53-22-1.28-33-1-24.65.59-32.25,8-38.88,25.5-4.54,12-7.81,24.48-1.08,36.93a178.51,178.51,0,0,0,9.52,16c4.57,6.68,9.56,13.08,14.47,19.51a25.5,25.5,0,0,0,4.49,4.5c7,5.43,12.5,4.69,18.46-2.49,4.24-5.1,8.1-10.54,12.56-15.43,8.41-9.23,19.55-13.07,31.43-15.66a120,120,0,0,0,21.46-6.52c12.35-5.27,16.65-20.71,14.63-32.38-1.23-7.12-2.6-14.2-7.15-19.92-7.19-9.06-16.82-13.05-28.42-12.06"/><path class="cls-2" d="M360.64,195.45C351.35,198,345,203.18,342,212.9c-2.79,9,3.7,16.84,12.67,17.54a41.56,41.56,0,0,0,21.44-3.62,20,20,0,0,0,7.91-6.47c4-6,2-14.49-3.88-18.86-5.59-4.13-11.74-6.88-19-6"/><path class="cls-2" d="M113.67,309.44c-4.34.83-8.86,1.12-13,2.61-9.48,3.43-14.65,11.14-16.92,20.41-3.56,14.59-7.09,29.31-6.47,44.46a58.76,58.76,0,0,0,3.56,18.92,84,84,0,0,1,6.34,30.58c.06,6,.46,12,1,18,1,11.32,10.13,19.58,23,16.19,12.31-3.25,19.81-11.06,23.76-22.25a126.09,126.09,0,0,0,6-26c1.31-10.33,5.54-19.52,9.22-29,4.42-11.29,8.58-22.72,7.85-35-1-16.88-6.43-32.57-28.9-37.42-4.88-1.06-10-1.08-15-1.58"/><path class="cls-2" d="M694.59,309.44a81.4,81.4,0,0,0-21.08,7.31c-11.56,5.66-19.62,20.43-15.47,35.7,2.33,8.57,4.39,17.25,5.94,26,1,5.55,1,11.31,1.07,17,.16,11,.26,22,0,33s3.1,20.86,9,30c5,7.78,11.58,14.85,13.88,24,2,8,2.78,16.3,4.15,24.46,1.8,10.67,3.81,21.31,5.45,32q2.09,13.7,3.5,27.49c1.42,13.84,4,27.29,10,40,9,19.1,17.55,38.38,26.58,57.45,5.94,12.55,5.2,25.45,2.93,38.51-1.51,8.66-2.77,17.37-.41,26,2.74,10,11.63,17.37,23.87,12.87a150.41,150.41,0,0,0,23-11c15-8.62,30.64-14.51,48-16,10.74-1,12.37-7.46,10.47-17.34-1.26-6.55-2.9-13-4.47-19.51-3.34-13.83.94-26.22,7.59-37.95,4.79-8.45,12-14.39,20.88-18.64,16.76-8,30.64-19.79,42-34.43,10.16-13.11,11.6-27.78,7.08-43.47-5-17.45-9.61-35-14.59-52.47-2.09-7.34-4.9-14.29-10.37-20.09-6.71-7.1-14.87-8.33-23.55-6.3-12.27,2.86-24.26,7-36.55,9.75-12.8,2.88-25.87,4.09-39,1.61-9.19-1.74-18.42-3.34-27.47-5.63a30.57,30.57,0,0,1-10.47-5.44c-8.19-6.17-10.24-14.86-8-24.39,2.41-10.1,5.91-19.94,8.33-30,4-16.43,7.68-32.93,11-49.5,1.42-7.19,1.32-14.66,2.16-22,.9-7.78-3-12.79-9.58-15.39-10-3.94-20.19-7.43-30.47-10.53-11.38-3.43-23.2-3.38-35-3.08"/><path class="cls-2" d="M698.59,333.43c-8.67,3.61-12.44,10.59-12.41,19.5,0,14.33,0,28.72,1.12,43,.83,10.14.85,20.71,6.28,30,3.17,5.43,6.54,10.56,14,9.43a10.14,10.14,0,0,0,5-2,53.76,53.76,0,0,0,16.52-25.94c3.13-10.63,7.3-21.15,8.76-32,2.89-21.53-7.93-36.54-28.26-41.84-3.28-.85-7-.12-10.47-.12"/><path class="cls-2" d="M56.67,167.46c-5,.66-10,1.19-15,2a45.53,45.53,0,0,0-10,2.55c-4.55,1.9-5,3.91-3.06,8.41,4.93,11.43,14.62,16.46,26,16.66A34.16,34.16,0,0,0,78,188.77c2.66-2.39,5-6.94,4.77-10.28-.34-4.16-3.56-7.62-8.55-9.21-5.69-1.83-11.32-1.77-17.06-1.82"/><path class="cls-2" d="M447.63,440.42c-7,4.82-7.64,10.1-2,16,1,1,2,2,3,3,3.37,3.09,5.89,2.61,8-1.49,3.43-6.65-1-15.8-8.49-17.5"/><path class="cls-2" d="M707.59,162.46c-21.39,5.34-31.43,22.29-40.36,40.06A43.88,43.88,0,0,0,662.08,224a27.71,27.71,0,0,0,6.53,17.48c8.27,9.66,20.65,10.29,31.29.31a65.72,65.72,0,0,0,14.42-19.92c5.35-11.53,8.62-24,13.36-35.83s-2.48-24.87-17.09-23.54c-.82.07-1.66,0-2.5,0"/><path class="cls-2" d="M578.61,464.42c-6.51,3-9.34,8.29-7.45,15,4.86,17.21,10.07,34.31,14.92,51.52,5.25,18.64,13.39,36,22.59,53,1.57,2.9,3.48,6,6,7.92,7.89,6.06,15.45,3.14,19.95-6.87A81.2,81.2,0,0,0,642,544.41a53.89,53.89,0,0,0-12-29.45,150.84,150.84,0,0,0-11.47-12.52c-10-10-20.11-19.7-28-31.48-2.61-3.87-6.26-6.74-11.43-6.54"/><path class="cls-2" d="M860.57,487.42c-18.49,3.37-36.19,11.26-55.49,9.94-7.85-.53-15.67-1.58-23.5-2.45-7.17-.8-14.31-2-21.5-2.4-7.64-.42-15.35.33-23-.2-9.35-.65-19.37,8.87-20,19.61-1.64,30.24,4.63,58,25.88,81,7.53,8.16,14.42,16.91,21.54,25.45,2.66,3.19,5.93,4.2,10,4.06,6.82-.25,13.66-.2,20.49,0,11.32.27,22-2.1,30.94-9.11,11.9-9.29,25.51-13.78,40-17.09,18.2-4.14,30.24-15.78,35.47-33.84a43,43,0,0,0,.41-23.94c-3.4-11.83-7.5-23.5-11.93-35S876.89,486,864.07,487.4a27.28,27.28,0,0,1-3,0"/><path class="cls-2" d="M466.62,150.46c-2.33.66-4.9.91-6.95,2.08-5.28,3-4,8.49-3.39,12.89,2.44,16.85,7.22,32.95,17.34,47,7.14,9.92,16.29,16,29,16,13.27,0,28.55-11.8,32.51-23.54,2.91-8.64,3.91-17.49-1.17-25.4-4.5-7-11.07-12.47-18.39-16.52-15-8.3-31.08-13.06-48.45-12.57"/><path class="cls-2" d="M851.58,512.41c-6.5,2.5-13.12,4.73-19.48,7.56-10.83,4.83-21.68,4.8-33.05,2.09-7.63-1.82-15.49-2.58-23.49-.75-10.46,2.4-16,9.1-13.27,19.55,3.81,14.38,12.66,25.33,27.35,29.86,6,1.86,12.65,1.25,19-.75,4.73-1.5,9.65-3.34,14.48-3.34,7.33,0,14.66,1.5,22,2.26,6.14.63,12.08,2.19,18.53.68,12.65-3,18.85-14.3,19.13-25.17a37.48,37.48,0,0,0-6.69-23c-4.14-5.76-9.47-9.46-17-9-2.32.13-4.66,0-7,0"/><path class="cls-2" d="M718.59,136.46c-4.33.83-8.85,1.14-13,2.59-15.23,5.38-27.3,15-37.1,27.86A209.16,209.16,0,0,0,644.76,207c-7.13,15.65-3.72,30.69,5.88,44.39,6.63,9.46,15.78,15.49,27.46,15.88,10.3.34,19.87-3,28.5-8.84,8.87-6,14.55-14.7,19.92-23.54,8.92-14.68,17.75-29.44,25.9-44.55,3.49-6.46,6.4-13.74,7.37-20.94,1.39-10.26-3.62-18.61-12.22-24.43-6.61-4.48-13.81-7.44-22-7.58a48.51,48.51,0,0,1-6.5-.95"/><path class="cls-2" d="M49.68,538.41c-8.32,4.13-13.51,11.29-17.95,19a79,79,0,0,0-6,12.49C23,577.6,27.49,583,35.67,583.49c11.31.65,16.24-7.32,20.87-15.17a31.38,31.38,0,0,0,4-21.4c-1.3-7.46-3-8.51-10.4-8.51"/><path class="cls-2" d="M716.59,120.46c-5.66,1.5-11.39,2.8-17,4.55-9.63,3-17.21,9.35-24.49,16-14.69,13.38-26.61,29.15-38.61,44.89-8.39,11-18,21-29.46,29a31.17,31.17,0,0,1-10,4.49c-15.79,4-27.14,13.88-36.45,26.6-4,5.41-8,10.78-11.42,16.54-3.16,5.4-1,11,4.93,13.38,14.15,5.6,26.92,2.56,38-8.45,2.41-2.41,4.54-5.13,7-7.46,7.34-6.86,15.83-7.86,24.45-1.49,7.45,5.5,14.42,11.7,22.09,16.86,10.43,7,22.05,8,34.45,6.3,10.77-1.44,21.15-3.51,31-8.19,14.4-6.84,23.72-18.79,31.4-32.06,8.2-14.17,16.84-27.92,28-40,7.94-8.54,13.3-18.72,13.36-30.46.08-14.76-5.28-27.56-17.3-37-9.86-7.75-21.33-11.11-33.51-12.44-5.31-.58-10.67-.71-16-1"/><path class="cls-2" d="M575.61-146.51c-17.23,3.9-26.26,16.45-32.39,31.54C538.7-103.85,535.44-92.22,531-81c-5.4,13.67-13.46,25.66-25.46,34.47a46.94,46.94,0,0,1-27.45,9.1c-5.17.1-10.49,0-15.46,1.13-6.27,1.47-7.52,3.89-7.53,10.33,0,8.83.56,17.71-.15,26.48-.92,11.38-2.59,22.72-4.41,34-2.89,17.88-3.53,35.43,4,52.53,4.8,10.89,12.62,19.11,23.14,23.79,18,8,36.45,15.2,55,22,5.3,1.94,11.61,1.82,17.4,1.54,5.22-.25,9.46-3.34,12.53-7.81a54.8,54.8,0,0,0,9.38-28c1-15.81,1.24-31.67,2.16-47.49.68-11.51,1-23.18,3.18-34.45,2.87-14.75,13-24.17,27.31-27.82,9.71-2.48,20-2.73,29.94-4.26,13.16-2,26.53-2.31,39.1-8.24,11.64-5.49,17.14-14.91,19.17-26.26a100.3,100.3,0,0,0-3.81-50.44c-5.2-15.28-16-24.93-31.48-28.94-20.42-5.29-41-9.83-61.44-15.2-6.69-1.76-13.3-1.81-20-1.87"/><path class="cls-2" d="M462.62,570.41c-4.5,1-9.05,1.81-13.48,3-9.84,2.71-19.12,6.58-26.51,14-5.22,5.22-4.91,9,2.07,12.35a113.55,113.55,0,0,0,19.95,7c9.8,2.56,19.65,5,30,4.67,8.5-.3,15.36-3.31,20-10.57,5.83-9.17,2.61-23-9-27.55-7.34-2.92-14.87-3.12-22.53-2.93"/><path class="cls-2" d="M10.68,681.39c-5.33,1.83-10.85,3.26-16,5.59-9.48,4.31-14,12.25-15.61,22.4a37.39,37.39,0,0,0,4.64,25.46C-9.13,746.9-1,750,12.69,746.92c9.53-2.12,19.08-3.74,29-3.69,13.8.06,25.06,4.91,33.4,15.72,4.79,6.21,6.94,13.81,8.57,21.43,3.43,16,3.91,32.1,2.81,48.51-.91,13.75-2.22,28,5.16,41,6.67,11.78,22.32,16.15,33.55,9,5.37-3.43,9.45-8.16,13.54-13,6.34-7.46,13-14.67,19.44-22,6.21-7.08,12.69-13.89,17.09-22.45,6.4-12.45,6.74-24.68-1.71-35.94s-17.32-22.12-28.79-30.69c-9.11-6.8-19.5-10.4-30.11-13.26-13.8-3.72-25.78-9.77-36.11-20a327,327,0,0,0-34-29.44,51.84,51.84,0,0,0-33.34-10.71"/><path class="cls-2" d="M338.64,56.47C325.49,59.62,316.05,67.71,309.18,79a34.18,34.18,0,0,0-5,21.47c.45,4.63,5.85,11,10.48,12,9.39,2,18.7,4.29,28.51,2.16,5.87-1.27,12.06-1,18-2.19C372.65,110.13,382.87,101.07,382,89c-1.19-16.85-14.32-32.73-32.87-32.51-3.33,0-6.67,0-10,0"/><path class="cls-2" d="M586.61-126.51c-5,2-10.62,3.14-14.87,6.18C562.18-113.51,557.87-103,555.17-92c-2.43,9.94-3.5,20.29-6.74,29.92-7.19,21.37-21.9,36-42.79,44.62-9.44,3.89-19.2,7.85-24.89,17a85.47,85.47,0,0,0-8,17.46C468.86,28.38,465,39.82,462.27,51.5c-4.56,20,5.7,40,23.82,49.53,12.37,6.48,25.31,11.32,39.05,13.27C537.7,116.09,548.8,112,553.55,95c4.1-14.75,4.59-29.79,2.62-45-1.3-10-1.73-20-3.16-30-1.26-8.81-1.24-17.37,1-26,3.44-13,16.66-25.11,31.55-25.51,6.83-.18,13.67-.95,20.5-.9,11.83.08,23.67,1.08,35.49.78,9.44-.25,18.72-2,26.54-8.3,6.16-5,8.82-11.44,10-19,1.49-9.31.07-18.23-2.63-27-4.32-14.06-13.74-23.59-27.48-28.43-15.22-5.37-30.82-9.49-47-11.06-4.65-.45-9.33-.68-14-1"/><path class="cls-2" d="M341.64,30.47a15.42,15.42,0,0,1-3,1c-11.66,1.38-23.38,2.39-35,4.14-8.06,1.21-16.28,2.94-23,8C272.62,49.69,270.6,59,269.15,68.47c-2.35,15.33-4.4,30.71-7.1,46A30.23,30.23,0,0,1,248.17,135c-4.61,3-9.18,6.1-13.48,9.51-8.47,6.71-13,15.92-16.62,25.92-4.44,12.35-7.79,24.89-7.81,38a60,60,0,0,0,5.44,25c5.33,11.69,17.19,15.21,28,8.51,14.66-9.12,23-23.1,29.5-38.49,4.54-10.72,6.27-22.12,8-33.5,2-13.3,8.86-22.31,22-26,14-3.89,27.87-8.21,42-11.34,11.31-2.5,23-3.26,34.44-5.26,7.55-1.32,14.92-3.27,20.59-9.34A24.51,24.51,0,0,0,407,101.46c.42-20.1-5.57-38.63-15.4-56-4.45-7.84-11.92-11.78-20.47-12.89-9.59-1.26-19.32-1.47-29-2.14"/><path class="cls-2" d="M509.62,15.47c-20.69,6.63-29.5,22.74-32.3,42.53-2.31,16.23,5.2,27.73,20.86,33.82a68.56,68.56,0,0,0,19.45,4.45c9.8.74,17.27-5.19,20.47-14.81,5.22-15.64,2.4-30.75-3.6-45.44-1.76-4.3-4.75-8.14-7.42-12-4.05-5.91-10.18-7.93-17-8.53"/><path class="cls-2" d="M744.59-108.51c-10.33,2.14-14,10.56-16.31,19.05-3.11,11.28-4.63,23-7.25,34.43-2.54,11.07-5,22.21-8.61,33A36.61,36.61,0,0,1,692-.14c-11.95,5.32-24.24,9.87-36.45,14.59-12.9,5-23.8,12.25-28.39,26.05A189.54,189.54,0,0,0,622.14,61c-2.31,10.8-4.53,21.62-6.48,32.49-1.44,8-2.68,16-3.42,24a30.12,30.12,0,0,0,1.43,10.47c3,10.89,8,11.76,17.42,10,7-1.33,12.61-5.68,17.95-10,8.06-6.56,15.74-13.57,23.55-20.43,10.59-9.3,22.74-14.43,37-14,11.5.35,23,.38,34.5,1.06,26.72,1.6,50.19,10.94,69.51,29.92,8.32,8.18,11.81,18.6,14.5,29.51,5.4,22,13.09,42.77,29.91,59.07,6.71,6.5,14.83,8.69,23.57,9.36,8.47.65,17,.24,25.47,1.19,10.47,1.19,18.41,7.55,26.06,14.33,6.11,5.41,12.47,10.59,19,15.48,6.13,4.6,13.57,5.93,20.95,7s14.73,1.68,22,3.1c13.53,2.65,20.11,12.52,25.12,24.38,6.06,14.35,12.9,28.37,19.39,42.54,6,13.1,17.39,18.68,30.49,22,12.14,3.09,24.19,6.59,32.47,17,6.62,8.32,10.65,18,14,28,4.09,12,8.39,24,16.51,34,9,11.16,20.47,15.55,35,13.25,7.15-1.13,14.59-3,22-1.19,10.83,2.71,18,9.88,21.92,20,3.44,8.83,5.87,18.05,9.14,26.95,4.5,12.2,14.11,18.62,26.47,19.74,7.32.67,14.57-2.51,20.42-7.3,6.74-5.53,13.27-11.37,19.51-17.47q20.46-20,40.45-40.53a76.24,76.24,0,0,0,9.53-12.95c6.72-10.82,7.79-22.57,5.62-35a212.82,212.82,0,0,0-15.53-49.5c-4.5-10.19-12.66-17.38-20.66-24.34-15.9-13.83-32.35-27-48.94-40-8.39-6.57-17.49-12.25-26.45-18.06-13-8.47-20.06-20.77-23.47-35.53-2-8.67-4.59-17.25-5.83-26-1.13-8,1.39-15.6,5.81-22.49,4.76-7.44,9.76-14.77,13.88-22.56,2.89-5.45,4.32-11.65,6.67-17.41,6.43-15.75,18.78-24.1,35-27.5,11.94-2.51,23.32-.74,34.53,3.91,7.49,3.1,14.91,6.58,23.47,6.15,11.33-.57,21.87-11.79,22.66-23C1345,88.61,1340,80,1332.71,71.3a222.67,222.67,0,0,1-23-32.45c-9.93-17.34-20.12-34.42-32.13-50.43-6.76-9-13.47-18.2-18.91-28-9.54-17.21-23.52-28.54-41.64-35.46-10.11-3.86-20.11-8.07-30-12.49-14.66-6.56-28.29-4.87-41,4.59-7.6,5.66-14.79,12-16.41,22a66.66,66.66,0,0,0,.79,25c2.38,11,4.43,22.13,3.53,33.47-.52,6.53-2.08,13-2.33,19.51-.41,10.31-1.16,20.79.13,31,2,16.14,5.37,32.18,4.1,48.51-.54,6.91-2.46,13.79-4.43,20.48-2.67,9.07-10.12,13.71-17.87,18.09-10.15,5.74-20.31,11.54-29.92,18.1-5,3.4-9.12,8.21-13,12.9-6.78,8.12-14.68,14.38-25.08,16.89-8.48,2.05-16.32-1.4-23.93-4.1-14.33-5.09-24.14-15.71-32.08-28.33-8.87-14.09-18-28-27-42a56.94,56.94,0,0,0-19.49-19c-6.53-3.79-13.51-3.67-20.5-2.4-7.39,1.34-14.68,3.24-22,4.93-6.57,1.52-13,.34-19-2.12-6.5-2.69-10.33-13.1-9.14-20.4,2.14-13.2,8-25,14.27-36.38,7.58-13.75,10.08-28.26,10.38-43.59.26-13.94-.26-27.73-5.08-41-5.19-14.27-11.44-28-23.55-37.92-5.19-4.24-11.73-5.87-18.43-6-7.49-.19-15-.34-22.49,0-17.59.85-34.29-3.54-51-8.07-10.33-2.81-20.66-5.5-31.5-5"/><path class="cls-2" d="M386.63,5.48c-6,1-12,2.42-18,2.91-12.14,1-24.32,1.77-36.49,2-10.66.18-21.33-.79-32-.84-12.89,0-25.46,1.86-37.52,6.89C251.56,21,245,30,245.19,42c.17,12.17.87,24.33.9,36.5,0,16.08-5.54,29.74-18.42,40-10.71,8.52-20,18.17-23.51,32-1.7,6.65-3.39,13.32-5,20-2.88,12-5.89,23.95-8.45,36-2,9.43-3.39,19-5.06,28.49-3.53,20-17.24,29.86-35.53,34.35a168.93,168.93,0,0,1-27,4c-11.71.91-23.09-1.81-34.51-4.26-13.59-2.92-27.55-5.36-40.9.54a103,103,0,0,0-21,12.47c-14.63,11.26-31,19.27-47.59,26.89-5.94,2.73-11.29,6.06-15.63,11.37-7.47,9.16-4.73,17.91,3.15,22.57a108.72,108.72,0,0,0,14,7.45c13,5.29,25.57,11.17,34.94,22.09a116.68,116.68,0,0,1,19,30.5c3.51,8.26,6.86,16.48,8.72,25.44,3.34,16,.47,31.05-5.84,45.47a137.6,137.6,0,0,1-23.4,36c-8.86,10-20.12,16.76-32.47,21.48-21.44,8.18-42.63,16.85-63,27.5-10.15,5.32-18.81,12.07-22.88,23.08-4.21,11.38-3.33,27.1,6.86,35.54a26.24,26.24,0,0,0,14.57,5.79q22.19,2.09,44.48,3.06c15.48.68,31,.7,46.49,1.1,8.67.22,17.33,1,26,.9,14.62-.11,27.12-5.45,38.07-15.34,15.83-14.3,24.68-32.58,32-52,2.86-7.58,5-15.59,11.28-21.65,4.3-4.14,9.32-5.33,14.6-5.27,12.34.13,24.7,1.64,37,1.19,16-.58,32-2.72,45.89-11.5,5.87-3.71,11-9,15.49-14.41,8.85-10.62,13-23.82,18-36.43,2.37-5.95,3.75-12.3,5.59-18.46,2.42-8.11,1.29-15.27-5.49-21-3.24-2.75-6.09-6-9.56-8.42-10.62-7.35-16.21-18.12-20.94-29.56-5.48-13.24-10.16-26.85-11.74-41-1.18-10.68-.06-21.64.29-32.46.17-5,1.07-10,1.42-15,.67-9.72,4.76-16.72,14-21.15,9-4.32,18.27-8.1,26.2-14.7,9.39-7.82,16-17.6,22.35-27.66,10.8-17,18.69-35.43,24.95-54.5,7.82-23.82,25.7-35.47,48.56-41.47a136.93,136.93,0,0,1,34-4.06c16.34-.11,32.68-.31,49-1.07,8-.36,11.88-4.19,9.46-14.36-2.79-11.71-6.32-23.26-8.86-35-3.84-17.76-7.16-35.63-10.54-53.49-1-5.11-1.16-10.36-2.1-15.48-2.1-11.5-10.31-18.16-22.45-18.5-1.16,0-2.33,0-3.5,0"/><path class="cls-2" d="M100.67-13.52A49.48,49.48,0,0,0,69.75,9c-9.09,14.5-20.7,26.85-32,39.49-8.88,9.9-15.9,20.94-19.61,33.94-1.56,5.45-3.91,10.69-5.93,16-4.47,11.72-13.5,19.52-23,27-8.89,7.05-16.56,15.15-18.48,27a91,91,0,0,0-.85,24c1.08,10.7,0,21.63-.2,32.46-.12,6-1.3,12.17-.28,18,1.76,10,11.93,15.64,23.25,11.94,6.51-2.13,12.75-5.12,19-7.93C22,226.27,33,224,44.16,222.36c16.37-2.44,33.09-2.65,49-7.9,17.3-5.7,27-18.2,29.79-35.54,2.35-14.72-3.6-27.41-13.84-37.92-6.08-6.24-12.62-12-19-18-6.73-6.37-8.09-14.38-6.43-23,1.5-7.73,3.41-15.4,5.47-23,3.17-11.67,11.28-19.39,21.51-24.91a119.59,119.59,0,0,1,17-7c7.85-2.78,15.23-5.55,17.64-15,1-4,0-7.41-1.31-10.48-6.58-15-17-26.44-32.89-32-3.08-1.07-6.63-.77-10-1.1"/><path class="cls-2" d="M298.64-46.52c-5,3.17-10.44,5.81-14.91,9.6C271.29-26.38,256.28-20.52,242.16-13c-10.85,5.79-21,12.71-25.87,24.53a51.14,51.14,0,0,0-3.46,26c1.13,9.9,4,19.15,6.91,28.43,4.52,14.21.77,26.08-9.11,36.5-4.7,5-9.61,9.72-14.48,14.51-9.23,9.08-13.17,20.21-14.08,33-2.28,31.74-11.33,61.32-31.57,86.37-9.54,11.81-22.4,18.43-38.33,18.23-11.21-.13-22-2.9-33-3.9-15.9-1.44-31.71-.45-46,8.28-12.12,7.41-24,15.29-36.59,21.81-9.65,5-20.16,8.38-30.41,12.15-13.27,4.89-25.76,10.78-34,23-6.4,9.54-9.06,25-.38,33.89a35.73,35.73,0,0,0,12.45,8.41c8.07,3,16.54,5.09,24.94,7.16C-12.07,370,4,378.82,15.11,395c9.67,14.06,15.94,29.48,15,46.95-.71,13.22-5.35,25.51-11.6,36.91-7.7,14.06-17.71,26.49-32.38,34a224,224,0,0,1-21.47,9.06c-21,8.09-42.13,15.66-62.93,24.15-16.34,6.66-24.77,20.11-28.55,36.87-2.11,9.35-4.13,18.72-6.54,28a30.37,30.37,0,0,1-18,21c-10.41,4.54-20.87,9-31.5,13-13.51,5-24.53,12.84-29.81,26.63-2.29,6-3,12.58-4.12,18.95-1.41,8.06-2.75,16-6.43,23.54-4.95,10.11-9.87,20.36-13.42,31-4.38,13.15-3.91,26.79,3.45,38.84,10.93,17.9,27.59,21.05,45.33,11,9.39-5.3,17.06-12.92,23.89-21.06,8.9-10.61,20.31-17.06,32.64-22.35,11.18-4.79,22.61-8.88,33.06-15.41,10.82-6.76,15.93-16.58,17.28-28.63.52-4.57-.36-9.33-.9-14-.85-7.35-2.39-14.64-2.87-22-1-15.67,8.79-26.46,25.42-27.93,15-1.32,30-2.12,45-3,7.5-.46,15-1,22.5-.95,9.67,0,19.34.45,29,1,14.8.77,27.88-4,40-12,14.39-9.58,27.89-20.2,38.4-34.07a81.44,81.44,0,0,0,9-15.47c4.75-10.35,12.7-16.2,23.59-18.45,16.33-3.36,32.73-6.37,49-10.08,20.94-4.78,39.22-14.91,55-29.45,7.21-6.65,12-15.12,17.11-23.42,5.83-9.53,11.74-19.11,18.54-27.95,9.44-12.26,11.13-27.44,4.46-41.13a79.49,79.49,0,0,0-17.08-23.45c-11.32-10.65-21.28-22.23-28.1-36.45-6.19-12.93-9.44-26.34-7.75-40.53a56.85,56.85,0,0,1,8.38-24.49c9.23-14.23,19.34-27.95,27.76-42.64,7.5-13.09,13.18-27.22,19.71-40.87,6-12.57,9.82-26.18,18.44-37.54,10.55-13.9,24.45-21.51,41.54-24,20-2.89,39.47-.81,57.93,7.18,12.49,5.4,21.78,15,28.56,26.84,6.68,11.66,12.94,23.58,20.11,34.93,7.54,11.93,17.66,21.12,31.9,24.53,9.3,2.23,17.61-1.21,25.46-5.52,20.28-11.15,33.41-28.62,42.47-49.46a69.57,69.57,0,0,0,4.46-13c2.06-9.58-3.42-15.68-10.95-19.9a701.65,701.65,0,0,0-68-33.06c-5.64-2.4-11.42-4.48-17-7-14.65-6.78-23.92-18.24-29.07-33.44A124.25,124.25,0,0,1,434.17,53c-.2-9.33-.69-18.72.16-28A72,72,0,0,0,433,3c-2.27-10.45-11.31-18.61-23.83-20.63s-24.46,1.1-36.52,3.56c-13.58,2.78-27,4.39-40.07-2.82C324.88-21.11,320-27.37,315.61-34.5c-1.62-2.63-3.6-5-5.48-7.51a11,11,0,0,0-11-4.51"/><path class="cls-2" d="M760.59-87.51C744.81-84,739.68-71.32,736.24-58c-3.68,14.33-5.81,29-9.27,43.43-2.24,9.33-6.38,18.1-14.92,23.45-12.16,7.62-24.79,14.47-36.9,22.15C664,38.13,658.36,48.52,659.12,62c.2,3.48.74,6.77,3.41,9.57a9,9,0,0,0,7.57,3c16.64-.59,33,1.7,49.52,3.7,13,1.57,26.3,1.22,39.47,1.16a187.92,187.92,0,0,1,38,3.89c15.17,3,27.3-3,36-15.8a116.84,116.84,0,0,0,18.15-46C853.06,11,856.67.87,859-9.54c1.76-7.9,3.62-16,3.85-24,.25-8.61-3.19-16.32-9.15-23.08-7.17-8.13-16.07-12.82-26.11-15.9-13.16-4-26.37-7.87-39.48-12-8.85-2.82-17.87-3.21-27-3"/><path class="cls-2" d="M345.14,264.94c-3.83.34-7.81.13-11.47,1.1-12,3.18-20.3,11.26-25.95,21.94-5.51,10.42-8.18,21.79-9.59,33.45-.58,4.85-2,9.69-1.84,14.5.28,9.42,1.22,19,6.92,26.95,6.21,8.71,13.18,16.87,19.35,25.61a187.18,187.18,0,0,1,13,21c7.64,14.59,15,29.29,25.08,42.45a18.38,18.38,0,0,1-.83,22.65c-6.35,7-11.65,15.07-17.07,22.91-1.61,2.33-3.51,5.19-1.12,8.45,2.56,3.49,6.47,3.14,9.48,2.31,9.13-2.52,18.09-5.69,27-8.89a45.88,45.88,0,0,0,10-5c4.18-2.8,5.05-6.85,2.49-11.39a102.46,102.46,0,0,0-8.51-13c-4.08-5.19-4.29-10.66-1.35-16,9.13-16.61,18.2-33.27,28-49.46,7.9-13,20.39-19.52,35.38-21,6.8-.68,13.7-.4,20.49-1.14,10.64-1.16,17.86,3.94,23.47,12.1a61.77,61.77,0,0,1,9.94,27c1.41,10.44,1.9,21,3.17,31.47.6,4.93,2.28,9.69,6.43,13,6.81,5.43,13.36,6.17,20.38.87a101.91,101.91,0,0,0,17-16c8.65-10.41,15.78-21.8,20.25-34.84,4.93-14.37-.47-27-12.59-34.09a70.7,70.7,0,0,0-31.52-9.49,131.6,131.6,0,0,1-18-2.06c-10.21-2.17-16.58-8.57-19.05-18.89-3.37-14-6.23-28.24-10.65-41.94-5.8-17.94-17-31.42-36.33-36a92.52,92.52,0,0,0-20-2.92c-12.84-.15-25.4-1.93-38-4-7-1.16-14.31-.82-21.47-1.14-4-.19-8-.34-12-.51"/><path class="cls-2" d="M74.67,288.44c-3.66.83-7.66,1-10.93,2.62-10.44,5.19-17,13.53-18.58,25.38-1.27,9.5-2.37,19-4,28.48a75.09,75.09,0,0,0,3.18,38.47c4.14,11.85,9.44,23.29,13.81,35.06a71.46,71.46,0,0,1,4.17,25.47c-.06,11.53-.36,22.89-4,34-2.25,6.87-6.08,12.6-10.63,17.94-9.42,11.07-19,22-28.47,33C7,543-9.24,549.33-26.8,553.48A124.22,124.22,0,0,0-64.22,569a46.08,46.08,0,0,0-12,11c-5.69,7.44-5.16,14.66,3.84,21.92,5.45,4.4,12,6,18.53,7.42,12.18,2.59,24.53,3.25,37,3.14,11.17-.1,22.41-.12,33.47,1.13a88.16,88.16,0,0,0,25-1.12c6.82-1.14,12.42-4.41,17.43-8.66,10.86-9.22,17.42-21.4,22.54-34.44,5.49-14,7.33-28.55,7.65-43.49a66.62,66.62,0,0,1,3-16.47c2.8-9.81,11.14-12.81,19.91-15,9.83-2.49,18.72-.12,27.55,4.4,6.78,3.46,13.92,6.31,22,3.66,5.6-1.85,10.68-7.77,10.43-13.55-.5-11.34-2-22.68-1.77-34A215.92,215.92,0,0,1,174,417.39c2.09-10.68,2.54-21.68,4.23-32.45,2.33-14.79,2-29.65,1.9-44.51,0-9.65-1.59-19.18-5.58-27.94-5.38-11.78-14.56-19.08-27.89-20-12-.84-24-1.37-36-2l-35.5-2"/><path class="cls-2" d="M769.59-65.52c-12.36,3.77-15.4,14-17.51,25-2,10.35.23,20.38,1.95,30.51a65.58,65.58,0,0,1-7.41,44c-2.54,4.56-2.08,8.14,1,10.45a4.8,4.8,0,0,0,2.48,1c12.66.72,25.35,2.21,38,1.84,17.49-.52,27-12,28.13-27.79C817,8.27,818.93-2.88,820.62-14c1.66-10.94-.28-20.54-8-29.07-8.49-9.44-17.66-17.75-30.11-21.3-3.94-1.13-8.3-.79-12.46-1.13"/></svg>