<?xml version="1.0" encoding="utf-8"?>
<!-- Generator: Adobe Illustrator 22.1.0, SVG Export Plug-In . SVG Version: 6.00 Build 0)  -->
<svg version="1.1" id="Layer_1" xmlns="http://www.w3.org/2000/svg" xmlns:xlink="http://www.w3.org/1999/xlink" x="0px" y="0px"
	 viewBox="0 0 1920 1080" enable-background="new 0 0 1920 1080" xml:space="preserve">
<path fill="none" stroke="#BCBEC0" stroke-width="0.75" stroke-linecap="round" stroke-linejoin="round" stroke-miterlimit="10" d="
	M711.9,1080.4c0.4-8.7,4.5-16.2,9.2-22.9c7.3-10.5,15.8-20.1,23.8-30.1c8-9.9,17.5-18.4,24.1-29.4c7.3-12.3,6.9-24.9,2.3-37.5
	c-4.5-12.6-13.9-21.4-24.9-28.6c-7.4-4.8-14.2-10.4-17.5-19c-1.2-3.2-2.1-6.6-2.5-10c-1-9.4-1.2-18.8,1.4-28c2.1-7.2,6.7-11.5,14-13
	c6-1.2,12-2.5,18-4c14.2-3.5,23.6-12.3,28.5-26c5.4-15.1,13.2-28.8,24.4-40.6c6.3-6.6,12.2-13.6,17.5-21
	c17.2-24.2,40.7-39.5,68.6-48.4c8-2.6,16.4-4,24.5-6.6c18.5-6.1,34.5-16.6,49-29.4c2.3-2,4.6-4,7-6c4.7-3.8,8.2-4,13.5-1
	c7.8,4.3,15.4,8.9,23.6,12.3c5.9,2.5,12.5,3.4,18.9,4.6c6.8,1.3,13.8,1.4,20.4,3.2c12.8,3.5,22.3,11.2,28.6,23.3
	c7.6,14.7,14.5,29.6,16.8,46.1c1.4,10.3,1.3,20.7-0.8,31c-0.8,4.1-1.4,8.3-1.5,12.5c-0.2,10.2,4,13.5,13.4,13.7
	c8.5,0.2,17-1.4,25.5-2.8c10.6-1.8,21.1-4,31.5-6.5c12.8-3,18-12.4,19.4-24.5c0.8-6.8,0.7-13.7,1.1-20.5c0.3-5,0.9-10,0.9-15
	c0.2-12.7-1.7-25.1-4.8-37.5c-4.3-17.5-12.8-32.6-24.1-46.5c-7.7-9.5-11.8-20.7-13.1-32.9c-1-9.4-1.9-18.8-4.2-27.9
	c-1.6-6.5-5-12.7-8.3-18.5c-13.1-22.7-31.4-40.5-54-53.3c-7-4-15.5-5.5-23.4-7.7c-13.5-3.6-25.5-9.3-32.4-22.1
	c-3.3-6.2-5.4-13-8.1-19.4c-6.2-14.5-14.7-27.3-27.5-37c-14.7-11.3-24.3-26-31.3-43.3c-8.5-21.1-22.7-37.9-45.7-45.1
	c-11.5-3.6-23-5.4-35-2.1c-14.1,3.9-24.2,12-31.6,24.5c-8.3,14.2-12.4,30.1-19,45c-4.3,9.8-9.6,19.2-13.9,29.1
	c-5.6,12.9-11.8,25.7-15.7,39.1c-3.1,10.3-3.3,21.3-2.1,32.4c2,18.5,12.1,32.1,23.8,44.9c11.3,12.4,20.6,25.8,27.1,41.5
	c6.9,16.4,5.4,31.3-4.7,45.6c-2.3,3.2-4.7,6.3-7,9.5c-6.5,9.3-12.8,18.7-15.5,30c-4.2,17.5-15.9,27.8-32.5,33.6
	c-11.1,3.9-22,8.4-33,12.4c-6.9,2.5-14,4.4-21,6.5c-9.2,2.7-18.1,5.8-26,11.5c-11.1,8.1-15.9,23.1-11.1,36.6
	c2.7,7.6,4.6,15.6,6.6,23.5c1.8,6.9-1.1,10.8-8,10.4c-5.5-0.4-11.1-1.6-16.5-2.9c-11.4-2.8-22.6-6.4-34.1-8.7
	c-4.4-0.9-9.4,0.2-13.9,1.4c-8.3,2.2-16.5,4.9-24.5,7.9c-14.6,5.6-29.4,7.3-45.1,5.7c-13.9-1.4-28-0.4-42-0.3
	c-11.2,0.1-21.9,2.8-32.5,6c-9.5,3-17.9,7.8-20.4,18.4c-0.8,3.3-0.4,7-0.6,10.5c-0.7,12.8,2.2,25.6-0.8,38.5
	c-2.7,11.7-9,20.4-19.2,25.9c-15.8,8.4-32.1,15.8-47.9,24.2c-8.4,4.5-16.6,9.9-23.9,16c-10.8,9.1-20.8,19.2-31.1,28.8
	c-3.2,3-6.9,5.5-9.9,8.6c-3.3,3.4-6.6,7-8.9,11c-3.4,5.8-1.6,12.6,4.5,15.3c6.5,2.8,13.1,5.4,21,3.9c7.1-1.3,14.7-1,21.9-0.1
	c10.9,1.4,18.1,8.2,22,18.3c1.6,4.3,3,8.7,4.5,13"/>
<path fill="none" stroke="#BCBEC0" stroke-width="0.75" stroke-linecap="round" stroke-linejoin="round" stroke-miterlimit="10" d="
	M465.9,1.5c4.2,5.7,8.5,11.2,12.5,17c9.8,14.6,19.5,29.2,29,44c10.3,16,24.6,26.7,42.5,32.4c14.3,4.6,28.7,8.4,42.9,13.2
	c7.7,2.6,15.8,4.7,22,10.4c3.6,3.3,4.4,11.6,1.5,15.5c-1.8,2.5-3.8,4.9-6,7c-16.7,15.4-30.4,33.4-44,51.5
	c-6.7,8.9-14.2,17.2-20.9,26.1c-8.3,11.2-14.2,23.7-19.5,36.5c-7.4,17.9-17,33.7-32.4,46.2c-10.2,8.3-15.9,20.5-17.6,33.8
	c-1.4,10.8-2.1,21.7-3.1,32.5c-0.9,9.3-3.2,18.1-8.5,26c-5.5,8.1-14.7,11.1-25.5,6.4c-7.2-3.2-14-7.3-21-10.9
	c-8.3-4.3-16.9-8-26.5-7.9c-10.4,0.1-20,3.3-27.9,10c-10.7,9.1-18.2,20.6-23.5,33.5c-6.4,15.4-14.7,29.3-29.1,38.4
	c-10.8,6.9-22,13-32.9,19.6c-5.8,3.5-11.5,7-17,11c-11.1,8.1-13.2,19.8-8.2,32.5c6.2,15.8,18.7,22.5,33.7,26.4
	c14.3,3.8,28.6,7.7,43,10.9c11.7,2.6,23.8,3.9,35.4,6.8c10.8,2.7,21.1,6.7,29.2,15.2c5.2,5.4,7.8,11.9,9.2,18.6
	c4.1,19.5,10.9,38.3,15.9,57.5c1.9,7.1,1.4,14.9,1.7,22.4c0.5,12.1,6.9,19.2,19,18.9c23-0.6,45.2-5.2,66-15.4
	c9.2-4.5,15.7-11.9,21-20.5c6.9-11,12.2-22.7,13.8-35.5c1.8-14.2-1.4-27.8-10.3-39.5c-9.7-12.7-22.7-20.4-38.5-21.8
	c-13.9-1.2-28-1.5-42-1c-16.4,0.5-26.3-8-31.4-21.7c-4.5-11.9-5.9-24.2-3.6-37c2.1-11.8,8.2-21.5,15.6-30.4
	c5.5-6.6,11.8-12.7,20.4-15c6.2-1.7,12.6-3.3,19-4c17.8-2,36-2,52.4-10.2c9.6-4.8,18.7-10.6,28.1-15.9c11.9-6.7,24.8-10.6,38.5-11
	c12.8-0.4,25.7-0.1,38.5-1.2c12.3-1,22.2-7.4,30-16.9c7.1-8.6,13.2-18,16.8-28.5c3.3-9.4,5-19.2,2.8-29.5c-1.7-8.2-2.4-16.6-3.1-25
	c-0.8-8.9,3-16,8.9-22.6c5.5-6.2,10.6-12.8,15.5-19.5c6.3-8.4,7.8-18.5,9.5-28.5c4.4-25.9,2.5-52,3.1-78
	c0.2-10.8-4.6-16.2-14.6-18.4c-8.4-1.9-16.2-5-22.9-10.2c-6.9-5.5-13.5-11.5-19.5-18c-6.1-6.7-5.9-14.8-0.6-22.3
	c2.4-3.4,5.1-6.5,8-9.5c2.6-2.7,6.6-2.9,9.4-0.5c13.9,11.8,27.7,23.7,41.5,35.4c3.2,2.7,6.4,5.5,10,7.4c3.3,1.7,7,2.1,11,0.8
	c11.9-4.1,21.5-10.3,25.5-23.1c1.5-4.7-0.1-8.9-1.3-13c-3.7-12.7-9.4-24.7-18.5-34.4c-6.3-6.8-15.3-9.4-24.3-8.4
	c-14.6,1.7-27,8.7-38,18.3c-1.6,1.4-3.3,2.7-5,4c-3.5,2.5-8.7,1.9-12-1c-11.5-10.2-23.2-20.1-34.4-30.6
	c-10.9-10.1-16.8-23.3-20.5-37.4c-1-3.9-1.4-8-2.1-12"/>
<path fill="none" stroke="#BCBEC0" stroke-width="0.75" stroke-linecap="round" stroke-linejoin="round" stroke-miterlimit="10" d="
	M1920.3,283c-13.1,2.7-22.3,10.6-29.5,21.5c-7,10.4-15.6,19.5-27.5,23.8c-9.4,3.4-19.3,5.2-29.4,2.7c-8.9-2.2-18.1-3.8-27-6.1
	c-16.9-4.4-29,3.2-33.5,18.1c-4.5,14.7-9.1,29.2-15.8,43.1c-7.6,15.8-3.9,31.3,6,44.7c6.2,8.4,14.3,15.3,21.8,22.6
	c4.8,4.7,10.1,8.9,14.9,13.6c14.1,13.5,29.1,25.6,45.9,35.6c8.2,4.9,16.2,10.6,21.9,18.5c3.5,4.8,6.2,10.6,7.5,16.4
	c3.3,15.2,6,30.6,8.1,46c2.1,16.1,2.5,32.3-6.4,46.9c-2.5,4.2-5.1,8.5-8.5,11.9c-18.3,18.7-36.7,37.3-55.5,55.4
	c-6.7,6.4-13.1,13.4-21.8,17.8c-10.4,5.2-20.4,4.2-30.6,0.3c-17.6-6.8-30-19.3-38.5-36c-6-11.8-14.8-19.7-28.5-21.6
	c-5.9-0.8-11.7-3.2-17.5-4.9c-12.7-3.7-21-12.7-28.5-23c-9.4-12.7-14.6-27.5-21.4-41.6c-3.8-7.9-9-14.7-15.6-20.4
	c-7-6-15.8-7.7-24.5-9.6c-5.5-1.2-11.2-2.1-16.5-4.1c-12.5-4.5-17.5-15.3-21.6-26.9c-3.6-10.1-7.1-20.3-12.8-29.6
	c-8.9-14.5-21.5-22.4-38.1-24.4c-17.2-2.1-34.2-5.2-49.5-14c-12.5-7.2-25.2-14.1-39.1-17.8c-12.9-3.5-26.2-5.7-39.5-8
	c-4.5-0.8-9.3-0.4-14-0.1c-7.6,0.5-13,8.2-9.9,17.4c1.8,5.3,4.5,10.3,6.4,15.5c2.8,7.8,6.3,15.5,7.8,23.5c1.5,8.3-1.9,16.1-5,24
	c-6.4,16.1-16.6,29.8-26.3,43.8c-8.3,11.9-12.2,25-13.3,39.1c-0.4,4.6-0.3,9.3,0,14c0.6,9.9,6.3,15.5,15.4,18.6c12,4,24,3.9,36,0.5
	c7-2,14.1-3.8,21-6c16-5.2,29.5-1.9,41.6,9.9c11.6,11.3,16.3,25.1,17.9,40.6c2.4,22.3,7.6,43.6,19.3,63.1c3.3,5.5,6.6,11.1,7.9,17.9
	c1,5.6,0.2,10.4-2.9,14.4c-4.2,5.5-9.5,10.1-14.3,15.1c-8.2,8.5-16.4,16.9-24.5,25.5c-5.8,6.2-12.1,12.1-16.9,19.1
	c-11.3,16.4-12.2,27.1-1,45.3c3.5,5.7,9.6,8.6,15.8,11.2c8.3,3.5,16.9,5.3,25.6,6.2c12.3,1.3,22.3-4.5,31.5-11.9
	c7.4-5.9,14.9-11.8,22.5-17.5c14.8-11.1,31.9-17.7,49-23.9c8.5-3.1,17.3-5.2,26-7.6c12.8-3.6,25.2-1.5,37,4
	c9.6,4.6,18.8,10.1,28.6,14.3c10.8,4.6,22.2,6.1,33.9,3.7c20.8-4.2,41.7-7.8,62.5-12.2c9.8-2.1,19-6.2,27.6-11.8
	c8.6-5.6,17.5-10.9,26.5-16c5.2-3,10.9-4.3,17-4.1c4.2,0.2,8.3-0.2,12.5,0.1c12,0.9,24.1,1.4,36,3.1c15.6,2.1,31,5.2,46.5,7.8
	c2.3,0.4,4.7,0.4,7,0.5"/>
<path fill="none" stroke="#BCBEC0" stroke-width="0.75" stroke-linecap="round" stroke-linejoin="round" stroke-miterlimit="10" d="
	M967.9,1.5c2.3,11.2,4.7,22.3,7,33.5c2.7,12.8,8.9,23.8,17.5,33.5c7.2,8.2,12.4,17.6,17.1,27.5c1.2,2.6,2.7,5.2,4.5,7.5
	c4,5,9.6,4.9,14.5,0.6c8.5-7.4,11.6-17.5,14.9-27.6c6.1-18.6,15.7-35.1,29.6-48.9c6.7-6.7,14.8-8.9,24.5-7.8
	c9.3,1.1,17.8,4.1,26.5,7.1c13.8,4.8,27.9,9.3,42.5,10.9c10.2,1.1,20.5,0.3,30.5-2.3c3.6-1,7.3-2.2,11-2.4c4.1-0.2,7.8,1.7,9.9,5.4
	c6.7,11.8,13,23.8,15,37.5c1.4,10.3,3.2,20.7,2.8,31c-0.5,14.4-0.9,29-5.2,43c-5.4,17.7-17.5,27.7-35,32c-13,3.2-26,6.6-39,10
	c-19,5-28.4,18.6-31.4,37c-2,12.6-2.6,25.3-4.2,38c-1.5,12-3.6,24-4.9,36c-1.5,14.6-4.1,29.2-3.1,44c0.4,6.1,8.9,13.4,16,14.1
	c12.3,1.2,22.6-2.7,31.5-11.1c11.2-10.5,22.2-21.1,33.5-31.5c8.4-7.7,16.9-15.6,28-19.5c12.2-4.4,24.7-4.5,37.5-3.2
	c10.1,1,20,2.3,29.5,5.8c23.2,8.6,37.6,25,41.9,49.5c1.8,10.2,2.9,20.6,3,31c0.1,15.1-5,27.9-17.6,37.7
	c-6.9,5.4-12.7,12.9-17.5,20.4c-8.9,13.7-21,23.7-34.8,31.7c-8.4,4.9-18.2,6.7-27.9,8.2c-23.2,3.7-46.7,6.8-68.4,16.1
	c-13.9,6-26.4,15-36.3,26.5c-1.9,2.2-1.5,8,0,11.1c2.3,5,6.2,9.3,9.8,13.6c7,8.5,14.8,16.3,21.3,25.2c5.3,7.3,7.4,16.2,7.7,25.4
	c0.3,11.8,0.3,23.7,1.1,35.5c0.7,9.3,4.7,17.7,9.9,25.5c5.6,8.5,12.2,16.5,14.9,26.5c2.6,9.4,4.5,19,7.1,28.5
	c4.2,15.2,6,30.7,6.2,46.5c0.2,14.8,3.1,29.4,6,44c3.2,15.9,10.1,29.8,18.1,43.5c6.4,10.9,8.6,22.8,6.1,35.4
	c-2.9,14.9-4.8,29.7,0.5,44.5c3.6,10.2,9.1,19.3,17.6,25.9c10.9,8.3,23.2,6.2,34.8,1.5c9.6-3.9,18.5-9.8,28.1-13.7
	c7.5-3,15.6-5.1,23.9-2.2c7.1,2.4,11.9,9.4,12.6,17c0.8,9.1-2.3,16.8-7.2,24c-4.3,6.3-9.5,11.9-13.8,18.1
	c-4.3,6.1-8.4,12.4-8.1,20.4c0.3,7.3,2.8,13.6,7.6,19c6.7,7.6,15.1,12.7,23.9,17.6c11,6.1,22.4,11.8,30.6,21.9c0.8,0.9,1.3,2,2,3"/>
<path fill="none" stroke="#BCBEC0" stroke-width="0.75" stroke-linecap="round" stroke-linejoin="round" stroke-miterlimit="10" d="
	M1159.9,1080.4c3.5-6,7-12,10.5-18c4.7-8.2,8.1-16.7,8.7-26.5c0.7-10.6-8.1-17.8-15.7-19.9c-11.3-3.1-22.7-3-34,0.9
	c-8.1,2.8-16.4,4-25,4.1c-6.5,0.1-13,1.3-19.5,1.9c-1.5,0.1-3,0.1-4.5,0c-3.9-0.3-6.1-3.4-4.4-6.9c1.8-4,4.4-7.6,6.4-11.6
	c3.1-6.3,4.9-12.8,4.6-20c-0.5-12.2-0.6-24.3-1.1-36.5c-0.3-6.2-1-12.4-2-18.5c-1.4-8.8-6.8-15.1-14.5-18.9
	c-11.8-5.9-23.9-11.3-36-16.5c-12.7-5.6-25.7-10.5-38.4-16.1c-11.8-5.2-20.6-13.1-23.6-26.4c-1.6-7.1,1-13.6,7-17.1
	c6.9-3.9,14.6-3.8,22-4.3c7.6-0.5,15.2,0.1,22-4.6c9.6-6.6,16.6-15.1,21.4-25.6c3.7-7.9,5-16.4,6-25c1.8-15.6-10.3-31.2-26-34
	c-14.1-2.5-28.4-2.7-42.5-1.8c-21.7,1.5-42.4,7.6-62.5,15.8c-12.9,5.2-24.6,12.1-34.5,22c-7.1,7-11.4,15.8-16,24.5
	c-3.8,7.1-7.7,14.2-12,21c-6.2,9.8-4.3,18.1,4.1,26.5c6.7,6.7,15.3,10.6,24,14c20.2,7.9,34.4,22.5,45,41c3.2,5.7,3.5,12,3.6,18.5
	c0.2,14.5-2.7,28.2-9.6,41c-6.2,11.5-16.4,17.5-29,19.4c-4.8,0.7-9.7,1.5-14.5,0.9c-8.7-1-11.2-8.5-14-15.3
	c-3.5-8.3-7.5-16.3-14.4-22.6c-9-8.3-21.4-8.3-29.6,0.6c-3.9,4.3-4.4,13.6-0.5,20c5.6,9.1,13.6,15.1,23.9,18c3.5,1,6.9,2.7,10.5,3.4
	c8.5,1.6,11.9,7.4,14.1,15c2.3,8,5.2,15.8,8.5,23.5c7,16.5,20,25.4,37.4,27.4c10.7,1.2,21.6,0.8,32.5,1.2c17.7,0.6,35.3,1.8,53,1.8
	c9.8,0,19.7-1.7,29.5-3.4c8.7-1.5,13.5,1.7,14,10.6c0.3,5.5,0.7,11,1,16.5"/>
<path fill="none" stroke="#BCBEC0" stroke-width="0.75" stroke-linecap="round" stroke-linejoin="round" stroke-miterlimit="10" d="
	M1477.8,1080.4c0.5-12.8-1.5-25.4-2.8-38c-0.8-7.2-0.4-14.5,2.7-21.5c2.8-6.3,7.6-9,13.6-10.4c8.8-2.1,17.6-2.2,26.5-0.6
	c6.1,1.1,12.4,1.4,18.5,2.6c10.2,2,18.7,7.4,26.5,14c6.1,5.2,11.8,10.8,17.5,16.5c11.6,11.5,25.3,18.4,41.5,19.9c9,0.9,18,1,27,2.1
	c8.6,1.1,17.1,2.7,25.5,4.5c8.7,1.8,16.8,5.5,26,5.6c11.4,0.1,21-3.9,30-10.2c9.5-6.7,16.4-15.9,23.5-25c8-10.2,16.5-20,28.1-26.4
	c7.1-3.9,14.8-6.4,23-6.5c8.5-0.2,17-0.3,25.5,0c6.7,0.3,13.3,1.4,20,1.9c4.4,0.3,8.4-1.1,11.5-4.5c4.6-5,10.5-8.8,13-15.5
	c1.5-4.3,3.3-8.6,3.9-13c0.9-6.4,0.9-13,1.1-19.5c0.4-10.5,0.5-21,1.1-31.5c0.6-11.2-0.7-22.1-4.6-32.5c-3.2-8.3-1.6-15.8,1.5-23.6
	c2.6-6.2,4-13.5,1.2-19.3c-3.2-6.6-9.6-10.9-17.6-12.8c-19.2-4.5-37.4,0.3-55.5,5.3c-12.7,3.5-24.9,8.8-37.6,12.2
	c-8.4,2.2-17.3,2.6-25.9,3.7c-13.5,1.7-27,3.4-40.5,5c-9,1.1-18,1.9-27,3c-16.6,2.1-31.4-2.9-46-9.9c-6.7-3.2-13.8-5.9-21-8
	c-8.9-2.6-18.1-1.3-27,0.9c-20.7,5.1-40.8,11.9-57.3,25.7c-9.2,7.6-16.7,17.3-24.6,26.3c-7.7,8.8-15.4,17.7-26.1,22.8
	c-11.1,5.3-22.7,8.5-35.5,6.3c-9.5-1.6-19.3-1.7-29-2.1c-12.8-0.6-17.1,5.2-20.4,14.5c-2,5.4-3.6,10.9-5,16.5
	c-4.2,16.4-12.5,30.4-23.5,43.1c-4.7,5.4-8.6,11.7-7.4,19.4c0.5,3.5,1.9,7.2,4,9.9c5.6,7.5,13.7,11.9,21.9,16.1
	c11.6,6,23.2,12,32.4,21.6c3.1,3.2,5.4,7.3,8.1,10.9"/>
<path fill="none" stroke="#BCBEC0" stroke-width="0.75" stroke-linecap="round" stroke-linejoin="round" stroke-miterlimit="10" d="
	M1196.4,1079.9c7.2-20.7,14.5-41.3,21.3-62c1.7-5.2,2.2-11,1.9-16.4c-0.2-3.4-2.4-7.3-4.9-9.9c-4.3-4.6-9.2-8.9-14.4-12.5
	c-10.5-7.5-15.2-17.9-17.5-30.1c-1.9-10.2-3.5-20.6-6.6-30.4c-3.7-11.7-5.6-23.4-5.4-35.6c0.1-6.8-0.1-13.7-1.1-20.5
	c-0.9-6.4-7.5-12-13.9-12.5c-7.6-0.5-15.1,0.2-22,3.9c-10,5.4-19.9,10.9-30,15.9c-10,4.9-20.5,8.9-32,8c-11.4-0.9-25-7-27.6-21.4
	c-1.3-7,1.3-13.1,4.2-19c5.7-11.8,11.9-23.4,17.9-35c6-11.6,9.8-23.8,8.4-37c-1.6-15-6.4-28.6-19.4-38.1c-5.2-3.8-11-5.9-17.1-6.3
	c-19.8-1.1-39.7-2.2-59.5-1.8c-8.7,0.1-17.5,3.3-26,5.8c-12.4,3.6-24.7,8-37,11.9c-22.4,7.1-42.1,18.3-57.5,36.5
	c-9.8,11.6-19.8,23.2-30,34.5c-6.6,7.3-12,15.2-13.3,25.1c-1.2,8.9,2.4,16.5,8.4,23c7.3,7.7,15.2,14.9,21.8,23.2
	c4.3,5.4,7.1,12,10.1,18.4c2,4.3,0.6,7.5-3.9,8.9c-6.2,1.9-12.6,3.3-19,4.5c-9.3,1.7-18.7,3-28,4.6c-5.7,0.9-10.6,4.1-12.7,9.1
	c-1.8,4.1-2.2,9.4-1.6,13.9c2.1,14.4,5.4,28.5,10.9,42c2.2,5.3,4.6,10.6,7.5,15.5c4.2,6.9,10.5,11.4,17.9,14.6
	c8.1,3.5,16.7,6.4,23,13c5.7,6,11,12.4,16,19c12,15.5,27.9,24.5,47.1,27.3c9.1,1.3,18.3,1.5,27.5,2.1c12.5,0.8,25,1.5,36,8.5
	c0.3,0.2,1-0.1,1.5-0.2"/>
<path fill="none" stroke="#BCBEC0" stroke-width="0.75" stroke-linecap="round" stroke-linejoin="round" stroke-miterlimit="10" d="
	M1209.8,1.5c1.5,4.5,2.7,9.1,4.6,13.5c2.4,5.6,5.7,6.6,11.9,5.6c5.9-0.9,12-1.2,18-1c6.8,0.2,11.9,4.3,16.4,9
	c3.1,3.2,5.9,6.8,8.5,10.5c14.3,20.3,33.8,32.1,58,37.1c12.2,2.5,24.1,1.3,36-0.7c9.3-1.5,18.5-3.4,28-2c13.6,2,21.3,11.5,27.9,22.1
	c13.5,21.5,23.1,45,32.6,68.4c2.1,5.2,5.2,10.2,6.8,15.5c3.1,10,6.4,20.2,7.9,30.5c1.9,13.1,7.3,24.1,15.7,34c7.5,8.9,12,19.6,17,30
	c5.8,11.8,12.4,23.1,21.2,32.8c6.8,7.5,14.9,14,25.8,14.5c3.5,0.2,7.1-0.8,10.5-2c4.3-1.6,8.4-3.9,12.5-5.9
	c8.7-4.3,18.1-5.2,27.5-6.6c7.4-1.1,14.9-2.7,22-5c10.3-3.4,15.1-12.1,18-21.9c3.5-11.4,2.9-23.1,0.9-34.5c-2.7-14.9-3.8-29.9-4-45
	c-0.1-14-2.8-27.7-8.9-40.5c-5.1-10.7-8.1-21.7-6.9-33.5c1-10,4.9-19.1,9.4-28c7.5-15.2,19.3-25.1,35.1-30.4
	c10.4-3.5,20.6-2.3,31,1.3c12,4.2,22,11.4,32.6,17.9c9.8,6.1,20.6,10.9,31.4,15.1c15.3,5.9,26.6,15.8,33.9,30.2
	c8.7,17.2,20.3,32.1,33.5,46c7.2,7.5,13.9,15.5,21.1,22.9c7.4,7.7,16.2,13.6,27,14.9c6.6,0.7,13.4,0.4,20-0.5
	c9.2-1.2,18.3-3.2,27.5-4.9"/>
<path fill="none" stroke="#BCBEC0" stroke-width="0.75" stroke-linecap="round" stroke-linejoin="round" stroke-miterlimit="10" d="
	M1.5,927.9c4.2,2,8.5,3.7,12.5,6.1c9.8,5.8,17.6-1.9,17.9-10.6c0.4-11,1.1-22.2-2.3-33c-1.6-5,0.3-9.3,5.5-10.8
	c9-2.7,18.2-4.8,27.5-6.6c19-3.6,38.7-0.9,57.5-6.2c8-2.3,15.8-5.2,23.5-8.5c8.3-3.6,16.4-7.8,24.5-11.9c5.3-2.7,9.6-6.5,12.6-11.9
	c3.9-6.9,2.4-13.6,0.4-20.5c-2.2-7.6-4.8-15.2-6.4-23c-2.7-12.8-2.7-25.5,4.9-37c5.5-8.3,13.4-13.3,22.4-17.1
	c12.9-5.4,26.6-6.9,40-9.9c10.9-2.4,21.7-5.3,32.5-7.9c15.2-3.7,30.5-6.8,45.4-11.2c17.3-5.1,34-11.8,46.1-26.3
	c6.6-7.9,9.6-17.1,10.9-27c0.8-6.1,1.2-12.3,1-18.5c-0.3-9.3-2-18.5-5.9-27c-6.4-13.7-17.9-21.5-31.9-26c-15.6-5.1-31.5-8.2-48-6.9
	c-8.6,0.7-16.2,4.5-23.5,8.9c-9.1,5.6-19,9-29.5,8.8c-8.2-0.2-16.3-2.4-24.5-3.8c-10.3-1.7-20.6-3.7-31-4.9
	c-8.3-0.9-16.7-0.7-25-1.1c-11-0.5-20.3,4.1-28.4,10.6c-11.6,9.3-19.6,21.4-24.5,35.4c-4.3,12-9.3,23.6-16,34.5
	c-7.4,12.2-11.2,25.7-14.8,39.4c-2.9,11.3-8.5,21.9-12.1,33.1c-3.7,11.3-7.4,22.8-9.4,34.5c-3.5,20.6-14.1,34.7-33.7,41.9
	c-5.9,2.2-12,3.7-18,5.5"/>
<path fill="none" stroke="#BCBEC0" stroke-width="0.75" stroke-linecap="round" stroke-linejoin="round" stroke-miterlimit="10" d="
	M443.9,1.5c4.4,10,11.9,17.9,18.5,26.5c7.4,9.8,14.6,19.7,22,29.5c7.1,9.4,13.9,19,21.6,27.9c9.4,11,21.6,18.7,34,26
	c7.3,4.3,13.3,10,18.9,16.2c5.4,6,5.1,13.7,3.5,20.9c-2.6,11.7-8.2,22.1-16.9,30.5c-5.6,5.4-11.4,10.6-17,16
	c-8.8,8.5-12.1,19.4-14.6,31c-2.9,13.7-7.2,26.9-16,37.9c-4.3,5.4-9,10.8-14.5,14.9c-14.3,10.7-20.9,25.3-24.5,42.1
	c-2,9.3-4.4,18.5-7.5,27.5c-4.3,12.7-11.7,18.7-27.4,15.7c-10.3-2-21-2.3-31.5-3.2c-13-1.1-26-2.3-39-2.9c-5.4-0.3-11.9-3-15.8,3
	c-2.2,3.3-2.9,7.6-4.1,11.4c-3.7,11-7.1,22.1-11.1,33c-2.2,6-5.2,11.7-7.9,17.5c-4.5,9.6-11.1,17.4-20,23.5
	c-14.8,10.2-30.5,18.8-47.6,24.3c-9,2.8-18.6,3.5-27.9,5.2c-12.2,2.3-24.2,0.2-35.4-4.1c-16.5-6.4-31.6-15.2-45.1-26.8
	c-9.1-7.9-17.8-15.9-24.5-26c-6-9.1-8.1-19.4-9-30c-1.5-17.2-1.9-34.5-5.8-51.5c-6.1-26.4-22.6-42.3-46.7-52.6
	c-16.5-7-33.7-7.2-51-6.9"/>
<path fill="none" stroke="#BCBEC0" stroke-width="0.75" stroke-linecap="round" stroke-linejoin="round" stroke-miterlimit="10" d="
	M278,1080.4c0.7-11,2-22,1.8-33c-0.2-10.7-1.5-21.4-3.4-32c-3-16.4-7.2-32.6-10.2-49c-2.6-14-2.6-28.3-2.1-42.5
	c1.3-36.3,11.8-68.9,39-94.5c11.5-10.8,24.9-18.6,39.5-24.6c9.8-4,19.3-8.6,25.5-17.9c5.7-8.5,7.8-18.2,8.9-28
	c0.6-5.8,0.3-11.7,0.1-17.5c-0.3-7.1-4.3-11.8-11-13.9c-9.4-3-19-4.8-29-2.7c-4.7,1-9.7,0.4-14.5,1.2c-12.7,2.3-25.5,4.4-38,7.6
	c-11.2,2.9-21.9,7.8-33.1,10.6c-9.4,2.4-19.3,3-28.9,4.7c-8.1,1.5-16,3.6-22.6,9.3c-7.4,6.4-12.8,18.6-7.9,31.6
	c3.5,9.2,6.8,18.4,10.5,27.5c6.7,16.4-0.3,31.1-15.6,38.4c-9.8,4.7-20.1,8.1-29.9,12.7c-8.4,3.9-16.4,8.5-24.5,12.9
	c-13.3,7.3-26.7,14.4-38.5,24c-8.1,6.6-10.9,15.6-9.6,25.9c0.9,7.3,2.5,14.5,0.7,22c-1.4,5.9-4.9,10.3-8.7,14.4
	c-3.7,4-8.1,7.2-11.9,11.1c-15.1,15.2-29.1,31.4-38.5,51c-3.1,6.4-3.8,13.1-3,20c1.2,10.2,2.6,20.3,4,30.5"/>
<path fill="none" stroke="#BCBEC0" stroke-width="0.75" stroke-linecap="round" stroke-linejoin="round" stroke-miterlimit="10" d="
	M1284.8,1.5c4.1,19.9,9.9,39.1,27.6,51.3c11,7.6,23.7,11.3,37.4,8.2c10.5-2.4,21-5.2,31.5-7.4c23.4-4.9,33,0,44.9,18.5
	c8.6,13.6,15.9,28,24.2,41.9c6.2,10.4,12.5,20.7,19.5,30.5c8.5,11.8,20.4,20.1,32.4,28.1c8.4,5.7,16.8,11.5,25,17.5
	c13,9.5,21.6,22.2,26.6,37.4c1.4,4.5,3.9,8.6,5.4,13c2.3,6.9,7.1,11.1,13.6,13.4c5.5,1.9,11.2,3.6,17,3.9
	c9.9,0.6,16.9-5.1,17.8-14.8c0.9-9.4,1.1-19.1-0.1-28.4c-1.1-8.8-3.9-17.5-6.9-26c-2-5.6-5.2-10.9-8.4-16c-7.8-12.6-9.5-26.1-4.8-40
	c6.9-20.3,14.2-40.5,22.1-60.4c2.7-6.8,7.2-13.3,11.9-19c8.6-10.3,17.8-20.2,28.8-28.2c9.7-7,20.6-8.9,32-7.8
	c7.7,0.8,12.4,7.1,16.4,12.9c11.2,16.5,26.2,29,42.1,40.4c8.2,5.9,17.6,8.8,27.5,7.4c12.6-1.8,18.9-6.8,23-19.9
	c2.5-7.9,3.8-16.1,3.6-24.5c-0.3-13.4-5.4-19.8-18.6-22.6c-6.9-1.5-13.6-0.5-20.5,0.5c-14.6,2-29.3,2.8-44-0.2
	c-6.1-1.3-8.2-6.4-12.5-9.2"/>
<path fill="none" stroke="#BCBEC0" stroke-width="0.75" stroke-linecap="round" stroke-linejoin="round" stroke-miterlimit="10" d="
	M684.4,1079.9c2.5-15.4,10.5-28.1,20.6-39.4c10.6-11.9,18.7-25.3,26.3-39.1c3.5-6.2,6-13,9.1-19.4c4.2-8.8-0.8-19-7-23.5
	c-3.4-2.4-6.9-4.8-10.5-7c-13.7-8.6-24.3-20.2-31.4-34.6c-7.1-14.4-18.9-20.6-34.1-21.9c-10.9-1-20.8-5.1-28.9-12.2
	c-14.7-12.9-32-19.2-50.6-22.9c-9.2-1.8-18.3-4.3-27.5-5.4c-19.9-2.3-39.2-0.3-55.4,13c-5.2,4.3-8.7,10.5-9,17.4
	c-0.7,14.8-0.7,29.7-1.2,44.5c-0.1,4.2-0.9,8.3-1.5,12.5c-1.5,10.8-9.9,16.4-17.5,22.4c-7.7,6.1-16.5,11.3-21.3,20.1
	c-4,7.3-7.5,15-10,23c-4.7,15.3-9.1,30.8-12.4,46.5c-1.8,8.5-0.9,17.6-1.3,26.4"/>
<path fill="none" stroke="#BCBEC0" stroke-width="0.75" stroke-linecap="round" stroke-linejoin="round" stroke-miterlimit="10" d="
	M251,1080.4c0.8-17-4.2-32.9-8.4-49c-2.6-9.9-4.3-20.1-3.6-30.5c0.5-7.5,1.9-15,2.4-22.5c0.4-6.8,0.7-13.7-0.1-20.5
	c-1.3-11.7-3.7-23.3-5.3-35c-1.8-12.6-2.9-25.4-5.2-38c-2.2-12.2-7.6-15.7-19.8-13.9c-11.2,1.6-22.5,3.4-33.5,6
	c-16.2,3.9-30.7,11.3-41,24.9c-7.6,10-10.8,21-8.8,34c1.4,9.3,0.5,18.9-6.1,27c-7.2,8.9-15.7,16-25,22.5
	c-10,7.1-19.8,14.5-28.9,22.5c-7.4,6.5-12.9,14.9-17.1,23.9c-5.5,11.9-4.2,24.2-1,36.5c1,3.9,2.6,7.7,4,11.5"/>
<path fill="none" stroke="#BCBEC0" stroke-width="0.75" stroke-linecap="round" stroke-linejoin="round" stroke-miterlimit="10" d="
	M303.5,2c0.5,1.2,1.4,2.3,1.4,3.5c0.1,16.8,4.9,32.1,15.7,44.9c8.4,9.9,17.8,19.2,27.5,28c9.8,8.9,22.3,12.9,34.9,16.7
	c8.6,2.6,17.5,4.7,25.4,8.7c12.5,6.3,18.6,17.9,21.6,31.3c3,13,5.9,26.1,9.6,39c3.2,11.2,11.9,16.6,23.4,17.2
	c10,0.5,18.8-2.6,27.5-6.7c10.2-4.8,20.5-9.7,30.4-15.1c3.3-1.8,5.9-5,8.5-7.9c8.2-9,8-25.6-2-35.4c-8.6-8.4-18-16-26.3-24.6
	c-10.6-10.9-21.3-21.9-30.4-34.1C459.2,52,449.3,35.6,439,19.5c-3.6-5.6-6.4-11.6-9.6-17.5"/>
<path fill="none" stroke="#BCBEC0" stroke-width="0.75" stroke-linecap="round" stroke-linejoin="round" stroke-miterlimit="10" d="
	M1308.8,1.5c1.8,7,2.7,14.5,5.7,20.9c9.3,20,25.9,24.9,45.2,15.4c8.8-4.3,16.9-10.3,25-15.9c13.9-9.5,35.3-8.2,45.8,6.7
	c4.4,6.3,7,14,9.6,21.4c9.8,27.6,24.7,52,45.1,72.9c10.5,10.7,23.6,17.5,38,21.5c8.2,2.3,16.2,0.1,21.3-6.1
	c11.3-13.9,21.7-28.7,26.6-46.4c2-7.2,2.9-14.7,4.6-22c1.5-6.3,4.1-12,9-16.5c7.3-6.7,15.1-12.9,21.9-20.1
	c8.6-9.2,16.4-19.2,24.6-28.9c0.8-1,2-1.7,3-2.5"/>
<path fill="none" stroke="#BCBEC0" stroke-width="0.75" stroke-linecap="round" stroke-linejoin="round" stroke-miterlimit="10" d="
	M279,1.5c-2.2,6.2-3.7,12.6-6.7,18.4c-2.6,5-7.8,7.8-12.8,10.7c-14.8,8.9-29.5,18-44,27.5c-10.9,7.1-17.4,17.5-21.7,29.9
	c-5.6,16.4-12.1,32.4-18.4,48.5c-5.4,13.8-6.6,27.9-4.5,42.5c1.9,13.5,3.6,27,5,40.5c0.9,8.6-3.3,10.8-10,12.4
	c-6.7,1.5-13.7,1.9-20.5,3.2c-12.4,2.3-24.7,4.9-37,7.5c-9,1.8-17.9,4.7-27,5.3c-12.7,0.8-24.3-3.2-34.5-11.2
	c-9.2-7.1-18-15-29-19.5c-5.4-2.2-11-4-16.5-6"/>
<path fill="none" stroke="#BCBEC0" stroke-width="0.75" stroke-linecap="round" stroke-linejoin="round" stroke-miterlimit="10" d="
	M776.9,1.5c-0.7,3.8-1.4,7.7-2,11.5c-0.8,5.4,2.6,8.2,8,7.6c9-0.9,18-1.7,27-1.4c3.9,0.1,8.2,2.4,11.4,4.9
	c9.8,7.6,16.8,17.7,20.5,29.4c8.2,26.6,19.8,51.8,32.6,76.5c5.9,11.4,13.9,19.1,27.5,19c8.2,0,16.3,0,24.5,0c13,0,26-0.1,39,0
	c10,0.1,13.2-4.7,13.4-13c0.2-12.5,1.6-25.2-1.9-37.5c-2.2-7.6-5.4-15-7.9-22.5c-4.3-13.1-8.2-26.4-12.6-39.5
	c-3.9-11.7-8.3-23.3-12.4-35"/>
<path fill="none" stroke="#BCBEC0" stroke-width="0.75" stroke-linecap="round" stroke-linejoin="round" stroke-miterlimit="10" d="
	M1.5,798.9c8.6-2.8,17.1-5.6,24.1-11.9c7.8-7.1,11.3-16.4,13.3-26.1c3.5-17.6,7.2-35,12.9-52c3-8.9,4-18.5,5.1-27.9
	c2.3-18.7,5.4-37.2,13.5-54.5c7.1-15,15.1-29.4,24.6-43c8.2-11.8,14.3-24.6,16.5-39c1.9-12.1,3.2-24.2-3.1-35.5
	c-7.1-12.8-18.5-19.8-32.5-21.7c-5.4-0.7-11.4,1.3-16.9,2.8c-11.3,3.2-22.2,7.5-33.6,10.2c-7.8,1.9-16,1.9-23.9,2.7"/>
<path fill="none" stroke="#BCBEC0" stroke-width="0.75" stroke-linecap="round" stroke-linejoin="round" stroke-miterlimit="10" d="
	M1920.3,506.9c-8.1,0.8-13.8,4.4-16.6,12.5c-3.2,9.4-4.3,19.2-4.8,29c-0.9,15.8,2,31.4,3.6,47c2.3,22-1.5,42.9-18.8,58.9
	c-15.7,14.6-32.1,28.6-47.3,43.7c-15.3,15.1-28.9,31.7-36.8,52.3c-2.5,6.5-1,11.6,3.2,16c12.2,12.8,27,21.5,44.4,24.4
	c15.1,2.6,30.3,4.1,45.5,6.1c9.2,1.2,18.3,2.7,27.5,4"/>
<path fill="none" stroke="#BCBEC0" stroke-width="0.75" stroke-linecap="round" stroke-linejoin="round" stroke-miterlimit="10" d="
	M253,1.5c-7,13.9-19.2,22.5-32.1,29.8c-11.1,6.4-22.8,11.8-34.5,17c-7.6,3.4-11.8,9.1-13.9,16.6c-5.7,20.5-11.3,40.9-16.4,61.5
	c-1.9,7.8-2.6,15.9-3,24c-0.5,9,0.2,18-0.2,27c-0.5,10.2-1.5,20.4-8.9,28.5c-5.5,5.9-12.6,9.2-20,12c-10.8,4.1-21.9,7.3-33.5,7.9
	c-15.7,0.9-28.8-5.5-41.1-14.8c-10.1-7.6-20.7-14.4-31.5-21c-4.1-2.5-9.3-3.4-13.9-5.2c-0.7-0.3-1.3-1-2-1.5"/>
<path fill="none" stroke="#BCBEC0" stroke-width="0.75" stroke-linecap="round" stroke-linejoin="round" stroke-miterlimit="10" d="
	M1920.3,305c-4.7,3.3-9.5,6.4-13.9,10.1c-3.8,3.1-7.1,6.8-10.5,10.4c-10.9,11.5-24.8,17.5-40,20.3c-9.2,1.7-18.7,1.9-28,3.2
	c-6,0.8-12.2,1.7-18,3.6c-6.4,2.1-11.1,7.3-13.4,13.4c-4.4,11.5-9.1,23-11.3,35c-2.6,14,1.3,27.4,10.2,38.9
	c14.3,18.5,31,34.1,52.5,44c9.1,4.2,18.6,7,28.5,7.9c8.4,0.8,15.6-2.1,20-9.9c7-12.3,14-24.7,21-37c1-1.8,1.8-3.7,2.8-5.5"/>
<path fill="none" stroke="#BCBEC0" stroke-width="0.75" stroke-linecap="round" stroke-linejoin="round" stroke-miterlimit="10" d="
	M1.5,159c20.2,7.8,37.7,20.1,54.5,33.5c7.8,6.2,16,11.6,25.9,14.1c17,4.3,43.2-4.5,49.9-19.1c1.9-4.2,3.5-8.9,3.9-13.5
	c1-9.5-0.6-18.9-3.8-28c-3.4-9.4-6.8-18.9-9.4-28.5c-1.6-6.1-1.6-12.7-2.7-18.9c-1-6-4-11.1-10.5-11.8c-3.7-0.4-7.7,1.4-11.5,2.3
	c-12.5,3-24.9,6.2-37.5,8.9c-9.7,2.1-19.8,2.9-29.4,5.2c-10.9,2.6-20.5,8-29,15.4"/>
<path fill="none" stroke="#BCBEC0" stroke-width="0.75" stroke-linecap="round" stroke-linejoin="round" stroke-miterlimit="10" d="
	M211.5,1079.9c2.8-8.8,5.7-17.6,5.5-27c-0.2-16.9-5-32.4-13.4-47.1c-6-10.5-14.7-17.5-25.2-22.3c-12-5.6-24.6-4.6-36.4,0.6
	c-14.1,6.1-27,14.3-36.5,26.9c-2.3,3-4.1,6.5-5.5,10c-2.9,7,0.1,14,7.5,16.3c7.7,2.4,15.6,4.2,23.5,5.5c15.9,2.6,32,5.1,44.9,15.7
	c7.8,6.4,14.4,14.2,21.6,21.4"/>
<path fill="none" stroke="#BCBEC0" stroke-width="0.75" stroke-linecap="round" stroke-linejoin="round" stroke-miterlimit="10" d="
	M1919.3,333c-5.5,4-11,8.1-16.5,12c-11.6,8.1-24.8,11.5-38.5,14.1c-10.7,2-21.4,4-32,6.5c-9.8,2.3-16.9,8.7-21.4,17.5
	c-6,11.6-7.9,24-5.1,36.9c3.2,14.6,12.1,25.1,24,33.5c9.2,6.5,19.2,10.6,30.5,11.5c10.6,0.9,19-3.9,26.5-10.6
	c9.5-8.6,15.4-19.8,21.7-30.9c3.2-5.7,7.6-10.7,11.4-16.1"/>
<path fill="none" stroke="#BCBEC0" stroke-width="0.75" stroke-linecap="round" stroke-linejoin="round" stroke-miterlimit="10" d="
	M873.9,1.5c-6,12.5-9.2,25.6-7.9,39.5c1.1,12.1,3.8,23.9,7.3,35.5c4.7,15.6,11.7,29.6,23.6,41c10.7,10.2,29.8,12.4,42,4
	c7.4-5,10.2-12.2,10.9-20.5c1.3-14.1-1.7-27.8-4.5-41.5c-2.5-11.7-5.3-23.3-11.9-33.5c-5.9-9.2-13-17.2-22-23.5
	c-0.5-0.4-1.3-0.4-2-0.5"/>
<path fill="none" stroke="#BCBEC0" stroke-width="0.75" stroke-linecap="round" stroke-linejoin="round" stroke-miterlimit="10" d="
	M1.5,781.9c12-3.4,18.6-12.2,21.3-23.5c2.3-9.6,2.8-19.6,4.2-29.4c0.9-6.7,1.5-13.4,3.1-20c4-17,1.8-33.1-5-49.1
	c-3.2-7.5-5.7-15.5-7.5-23.5c-1.7-7.8-1.9-15.5,5.7-21.6c7.7-6.2,15.3-12.9,20.1-21.9c4.6-8.5,8.1-17.5,6-27.5
	c-2.2-10.6-9.2-17.1-19-20.4c-9.5-3.2-19.3-5.4-29-8.1"/>
<path fill="none" stroke="#BCBEC0" stroke-width="0.75" stroke-linecap="round" stroke-linejoin="round" stroke-miterlimit="10" d="
	M1920.3,98c-17.5-3.7-35-7.1-52.5-11.1c-8.3-1.9-16.3-5.2-24.5-7.3c-16.8-4.4-38.1,7.8-37.3,29.9c0.6,16,6,30.5,17.3,42.6
	c9,9.7,18.8,18.4,29.6,25.9c9.8,6.8,20.4,9.4,32.5,7.2c9.7-1.8,19.6-2.1,29.5-3.2c1.8-0.2,3.7-0.6,5.5-1"/>
<path fill="none" stroke="#BCBEC0" stroke-width="0.75" stroke-linecap="round" stroke-linejoin="round" stroke-miterlimit="10" d="
	M324,1.5c0.7,5.3,1.2,10.7,2,16c3.3,22.5,16.1,38.9,34.6,50.9c13.1,8.5,28.2,11.9,43.4,14.6c10.4,1.9,20.8,4.5,31.5,4
	c5.9-0.2,8.1-2.6,8.6-8.5c1.3-17.1-5.9-31.7-13-46.5c-4.7-9.8-10.2-19.5-12.1-30.5"/>
<path fill="none" stroke="#BCBEC0" stroke-width="0.75" stroke-linecap="round" stroke-linejoin="round" stroke-miterlimit="10" d="
	M1366.3,1079.9c-12.3-8-24.8-15.8-37-24.1c-15.6-10.7-23.4-26.2-26.5-44.4c-0.5-2.6-0.6-5.3-1-8c-1.3-8.4-8.5-13.2-17-11.5
	c-13.9,2.8-25,9.4-32.6,21.9c-5.2,8.6-11.4,16.6-16.9,25.1c-8,12.6-13.2,26.3-16,41"/>
<path fill="none" stroke="#BCBEC0" stroke-width="0.75" stroke-linecap="round" stroke-linejoin="round" stroke-miterlimit="10" d="
	M575.4,1079.9c-3.2-4.2-5.8-9-9.6-12.4c-13.2-11.8-20.7-26.9-27-43.1c-4.7-12.1-11.7-22.3-23.8-28.6c-13.1-6.8-25.1-4.4-36.5,3.2
	c-11,7.4-15.1,19.1-17.5,31.4c-2.6,13.1-4.6,26.3-7.1,39.5c-0.7,3.6-1.9,7-2.9,10.5"/>
<path fill="none" stroke="#BCBEC0" stroke-width="0.75" stroke-linecap="round" stroke-linejoin="round" stroke-miterlimit="10" d="
	M1.5,412.9c5.5-1,11-2.2,16.5-3c6-0.9,12-1.3,18-2.1c7-0.9,14.3-1,20.9-3.2c10.9-3.5,15.1-13.8,19-23.3c11.1-27-1.4-55.7-24.8-71
	c-12.1-7.9-25-13-39.5-13.5c-3.3-0.1-6.7-0.6-10-1"/>
<path fill="none" stroke="#BCBEC0" stroke-width="0.75" stroke-linecap="round" stroke-linejoin="round" stroke-miterlimit="10" d="
	M1919.3,651.9c-5.7,10.2-15.2,16.1-25,21.5c-22.8,12.6-41.4,29.7-55.5,51.5c-12.9,20-4.6,41,19.5,46.9c19.1,4.7,38.3,8.8,57.5,13
	c1.4,0.3,3,0,4.5,0"/>
<path fill="none" stroke="#BCBEC0" stroke-width="0.75" stroke-linecap="round" stroke-linejoin="round" stroke-miterlimit="10" d="
	M497.9,1.5c6.2,14.3,11.7,29,18.7,42.9c7.1,14.2,16.8,26.2,33.3,30.6c10.9,2.9,21.5,3.9,32.6-0.4C592,71,595.3,61.2,593.8,52
	c-2.6-15.3-6.2-30.4-9.3-45.5c-0.3-1.6-0.4-3.3-0.5-5"/>
<path fill="none" stroke="#BCBEC0" stroke-width="0.75" stroke-linecap="round" stroke-linejoin="round" stroke-miterlimit="10" d="
	M147,1.5c0.3,5.7,0.4,11.4,1.1,17c1.2,10.6-7.7,16.7-16.1,17.5c-11.5,1.2-22.8,2.8-31.5,11.5c-3.5,3.5-6.8,7.2-10,11
	c-10.3,12.3-22.7,20.4-39,22.6c-17,2.3-33.6,6.7-50,11.9"/>
<path fill="none" stroke="#BCBEC0" stroke-width="0.75" stroke-linecap="round" stroke-linejoin="round" stroke-miterlimit="10" d="
	M1920.3,124c-7-2.2-13.9-4.8-21-6.4c-15.7-3.5-31.2-2.2-45.9,4.1c-12,5.1-10.6,13.2-3.9,21.2c10.3,12.2,23.9,18,40.3,17.3
	c10.4-0.4,20.2-2.8,30-5.7"/>
<path fill="none" stroke="#BCBEC0" stroke-width="0.75" stroke-linecap="round" stroke-linejoin="round" stroke-miterlimit="10" d="
	M341,1.5c-0.2,20.3,6.9,37.4,24.1,48.8c11,7.3,23.5,10.5,36.9,9.6c9.2-0.6,15.4-7.9,13.4-17.5c-2.9-13.7-6.3-27.3-9.4-41"/>
<path fill="none" stroke="#BCBEC0" stroke-width="0.75" stroke-linecap="round" stroke-linejoin="round" stroke-miterlimit="10" d="
	M1601.3,1080.1c-5-2.4-10.2-4.5-15-7.3c-10-5.7-17.9-13.9-26.1-21.9c-5.4-5.2-11.2-10.4-17.5-14.4c-8.9-5.7-18.9-6.3-28.9-3.1
	c-8.6,2.8-13.9,12.3-14,23.4c-0.1,7.8,0,15.7,0,23.5"/>
<path fill="none" stroke="#BCBEC0" stroke-width="0.75" stroke-linecap="round" stroke-linejoin="round" stroke-miterlimit="10" d="
	M1493.3,2c-5,6.7-10.3,13.1-14.9,20.1c-2.9,4.4-4.9,9.3-4.7,14.9c0.3,10.2,6.1,17.5,16.1,18.8c2.9,0.4,6.2-0.7,8.9-1.9
	c8.3-3.5,14.9-8.9,18.5-17.4c4.2-10,8.3-20,12.5-30c0.7-1.6,1.6-3,2.5-4.5"/>
<path fill="none" stroke="#BCBEC0" stroke-width="0.75" stroke-linecap="round" stroke-linejoin="round" stroke-miterlimit="10" d="
	M1919.8,1073.4c-11.8-14.4-23.2-29.4-38.1-40.8c-4.1-3.1-9.4-5.1-14.4-6.5c-9.7-2.6-15,4.8-19.8,11c-8,10.3-12.2,22.4-13.7,35.4
	c-0.3,2.7-0.7,5.3-1,8"/>
<path fill="none" stroke="#BCBEC0" stroke-width="0.75" stroke-linecap="round" stroke-linejoin="round" stroke-miterlimit="10" d="
	M1920.3,696.9c-13.1,0.7-26,2-36.5,11c-6.1,5.2-10.2,11.8-11.9,19.5c-1.9,8.5,2.3,14.7,9.4,18.9c12.4,7.3,24.4,15.2,38.5,19"/>
<path fill="none" stroke="#BCBEC0" stroke-width="0.75" stroke-linecap="round" stroke-linejoin="round" stroke-miterlimit="10" d="
	M619.4,2c1.2,2.5,2.5,4.9,3.5,7.5c7.1,19.2,23.7,28.6,43.5,27.4c11.1-0.7,20.9-6.2,30.5-11.4c9.6-5.3,16.8-13.4,24-21.4
	c0.7-0.8,1.6-1.3,2.5-2"/>
<path fill="none" stroke="#BCBEC0" stroke-width="0.75" stroke-linecap="round" stroke-linejoin="round" stroke-miterlimit="10" d="
	M872.4,1080.1c-0.7-0.1-1.6,0.1-2-0.3c-7.7-7.3-15.6-14.4-23-22c-9.1-9.4-20.3-13.9-33.1-14.9c-17.1-1.4-30.7,10.2-32.5,27.5
	c-0.4,3.3-0.7,6.7-1,10"/>
<path fill="none" stroke="#BCBEC0" stroke-width="0.75" stroke-linecap="round" stroke-linejoin="round" stroke-miterlimit="10" d="
	M1.5,386c14.1-4.5,27.4-10.5,38.4-20.6c13.1-11.9,8.8-26.8-2.5-36.9c-10.2-9.1-22.6-12.1-36-11.5"/>
<path fill="none" stroke="#BCBEC0" stroke-width="0.75" stroke-linecap="round" stroke-linejoin="round" stroke-miterlimit="10" d="
	M50.5,2c1.7,2.7,3.3,5.3,5,8c2.3,3.8,4.8,7.6,7,11.5c10.3,18.8,3.9,35.3-18,40.9c-13.6,3.5-27.3,6.4-41,9.6c-0.6,0.1-1,1-1.5,1.5"/>
<path fill="none" stroke="#BCBEC0" stroke-width="0.75" stroke-linecap="round" stroke-linejoin="round" stroke-miterlimit="10" d="
	M1331.3,1080.1c-3.7-2.1-7.8-3.6-10.9-6.3c-8.9-7.7-17.4-15.9-26.1-23.9c-2-1.8-3.9-3.9-6-5.5c-11-8.2-15.9-7.7-26.9,1.6
	c-9,7.6-15.1,17.5-18.6,28.9c-0.6,1.9-1.3,3.7-2,5.5"/>
<path fill="none" stroke="#BCBEC0" stroke-width="0.75" stroke-linecap="round" stroke-linejoin="round" stroke-miterlimit="10" d="
	M1863.8,1.5c0.6,15,2,30,6.1,44.5c3.8,13.3,13.1,22.1,26.4,25.9c7.8,2.3,16,3.4,24,5.1"/>
<path fill="none" stroke="#BCBEC0" stroke-width="0.75" stroke-linecap="round" stroke-linejoin="round" stroke-miterlimit="10" d="
	M1800.3,1079.9c2.2-8.7,4.2-17.4,6.5-26c1.3-5-0.2-9.1-3.6-12.4c-4.2-4.1-9.1-3.7-14.5-1.6c-11.7,4.6-18.4,13.9-24.5,24.1
	c-3.2,5.4-6.6,10.7-10,16"/>
<path fill="none" stroke="#BCBEC0" stroke-width="0.75" stroke-linecap="round" stroke-linejoin="round" stroke-miterlimit="10" d="
	M1881.8,1.5c0.8,12.7,2.3,25.2,7.6,37c4.3,9.7,12.1,15.4,22.4,17.5c2.8,0.6,5.7,0.7,8.5,1"/>
<path fill="none" stroke="#BCBEC0" stroke-width="0.75" stroke-linecap="round" stroke-linejoin="round" stroke-miterlimit="10" d="
	M24.5,2c1.5,2.7,3.3,5.2,4.4,8c2.7,6.9,6,13.6,5.2,21.5c-0.3,3.1-0.9,5.6-3.1,8c-5.4,6.2-12.8,8.7-20.1,11.4C8,52,4.7,52.3,1.5,53"
	/>
<path fill="none" stroke="#BCBEC0" stroke-width="0.75" stroke-linecap="round" stroke-linejoin="round" stroke-miterlimit="10" d="
	M357.5,2c1.2,3.3,2,6.8,3.6,10c2.2,4.2,4.7,8.2,7.5,12c3.9,5.2,9.9,6.4,15.4,4.8c6-1.8,6.7-8.2,7-13.7c0.2-4.5-0.6-9-0.9-13.5"/>
<path fill="none" stroke="#BCBEC0" stroke-width="0.75" stroke-linecap="round" stroke-linejoin="round" stroke-miterlimit="10" d="
	M1173.9,1.5c-0.9,8.8-12.2,16.1-23.5,14.2c-12.7-2.1-24.1-6.7-35-13.2c-0.6-0.3-1.3-0.4-2-0.5"/>
<path fill="none" stroke="#BCBEC0" stroke-width="0.75" stroke-linecap="round" stroke-linejoin="round" stroke-miterlimit="10" d="
	M159.5,1079.9c-6.7-9.1-16.5-12.8-27-13.8c-7.5-0.7-15,1.4-21,6.8c-2.5,2.2-4.7,4.6-7,7"/>
<path fill="none" stroke="#BCBEC0" stroke-width="0.75" stroke-linecap="round" stroke-linejoin="round" stroke-miterlimit="10" d="
	M997.9,1.5c0.8,3.5,1.2,7.2,2.6,10.5c3.8,8.7,10.4,13.2,18.3,8.4c3.8-2.3,6.8-6.2,9.5-9.9c1.8-2.5,2.5-5.9,3.6-8.9"/>
<path fill="none" stroke="#BCBEC0" stroke-width="0.75" stroke-linecap="round" stroke-linejoin="round" stroke-miterlimit="10" d="
	M1113.9,1080.4c-2.7-14-17.7-15.9-27.5-8.4c-3,2.3-5.4,5.3-8,7.9"/>
<path fill="none" stroke="#BCBEC0" stroke-width="0.75" stroke-linecap="round" stroke-linejoin="round" stroke-miterlimit="10" d="
	M181.5,2c2.5,2.2,4.8,4.6,7.5,6.5c8.4,5.8,16.3,2,23.9-2c2.3-1.2,4.4-3,6.5-4.5"/>
<path fill="none" stroke="#BCBEC0" stroke-width="0.75" stroke-linecap="round" stroke-linejoin="round" stroke-miterlimit="10" d="
	M2,717.4c0.7,5.7,1.9,11.3,1.9,17c0,6-1.2,12-1.9,18"/>
<path fill="none" stroke="#BCBEC0" stroke-width="0.75" stroke-linecap="round" stroke-linejoin="round" stroke-miterlimit="10" d="
	M1806.3,2c0.7,0.8,1.7,1.6,1.9,2.5c1.9,6.3,7.1,8.1,12.6,8.3c5.3,0.2,9.2-2.9,11.5-7.8c0.5-1.1,1.3-2,2-3"/>
<path fill="none" stroke="#BCBEC0" stroke-width="0.75" stroke-linecap="round" stroke-linejoin="round" stroke-miterlimit="10" d="
	M644.4,2c4.3,2.8,8.4,6.6,14,5.9c4.6-0.6,9-2.1,13.5-3.4c1.6-0.5,3-1.6,4.5-2.4"/>
<path fill="none" stroke="#BCBEC0" stroke-width="0.75" stroke-linecap="round" stroke-linejoin="round" stroke-miterlimit="10" d="
	M1919.3,938.9c-4,8-5,15.9,1,23.5c0.3,0.4-0.1,1.3-0.2,2"/>
<path fill="none" stroke="#BCBEC0" stroke-width="0.75" stroke-linecap="round" stroke-linejoin="round" stroke-miterlimit="10" d="
	M2,984.4c0.5,0.8,0.8,1.9,1.5,2.5c3.4,2.7,2.8,5.7,1,9.1c-1,1.8-1.7,3.7-2.5,5.5"/>
<path fill="none" stroke="#BCBEC0" stroke-width="0.75" stroke-linecap="round" stroke-linejoin="round" stroke-miterlimit="10" d="
	M1919.3,12c-3.6,4.6-3.5,6.1,0.5,11.5"/>
<path fill="none" stroke="#BCBEC0" stroke-width="0.75" stroke-linecap="round" stroke-linejoin="round" stroke-miterlimit="10" d="
	M1419.3,480.9c-10.4,1.8-17.2,8.3-22.5,17c-10.1,16.4-20.5,32.5-30.4,49.1c-4.9,8.2-9.3,16.9-9.6,26.9c-0.4,11.4,6.4,15.1,15.5,17
	c6.7,1.4,13.3-0.1,20-0.9c20.7-2.6,38.3,2.7,51.1,20.4c5.6,7.8,12.3,14.8,17.8,22.6c6.6,9.3,9.3,20.1,9.6,31.4
	c0.2,7.5-0.2,15,0.1,22.5c0.6,15.8,5.4,29.7,18.9,39.6c5.5,4,10.4,8.9,15.5,13.4c7.4,6.6,8.2,19.1,4.1,27.5
	c-3.2,6.7-7.5,12.6-12.6,18c-6.4,6.6-12.9,13.1-18.9,20.1c-4.6,5.4-7.3,11.9-8.6,18.9c-0.9,4.8,3.5,13,8.5,16
	c7.1,4.3,14.6,4.3,22,1.9c16.4-5.3,32.6-11.2,49-16.3c15.5-4.9,30.9-10.6,47.5-11.1c12.8-0.4,24.1,4.2,35,10
	c8.3,4.5,16.5,9.3,25,13.4c12.7,6.2,26.2,5.8,39.4,2.4c15-3.8,29.9-8.3,44.5-13.5c11.1-4,20.2-11.3,27.6-20.8
	c9.1-11.6,15.1-24.6,19.4-38.6c2.2-7.1,0.1-12.3-6-17.5c-11.9-10.1-25-18.3-38.6-25.9c-14.8-8.2-27.1-19.3-38.4-31.7
	c-7.6-8.3-16.6-14.4-27.1-18.4c-17.2-6.5-30.1-17.9-39.4-33.6c-8-13.4-15.5-27.1-23.6-40.4c-5.1-8.4-11.9-15.6-21.9-18
	c-8-1.9-15.8-0.2-23.5,2.4c-7.2,2.5-14.2,5.4-21.5,7.4c-8.6,2.3-13.4,0.2-15.3-9.4c-3.5-17.6-6.1-35.3-9.1-53
	c-2.6-15.1-9.7-27.1-25-31.9c-18.8-5.9-37.9-11.2-57-15.9c-6.7-1.7-13.9-0.9-20.9-1.2"/>
<path fill="none" stroke="#BCBEC0" stroke-width="0.75" stroke-linecap="round" stroke-linejoin="round" stroke-miterlimit="10" d="
	M949.4,481.9c-6,1-12.1,1.7-18,3.1c-11.1,2.5-22-1.3-33-1c-24.7,0.6-32.2,8-38.9,25.5c-4.5,12-7.8,24.5-1.1,36.9
	c2.9,5.5,6,10.9,9.5,16c4.6,6.7,9.6,13.1,14.5,19.5c1.3,1.7,2.8,3.2,4.5,4.5c7,5.4,12.5,4.7,18.5-2.5c4.2-5.1,8.1-10.5,12.6-15.4
	c8.4-9.2,19.5-13.1,31.4-15.7c7.3-1.6,14.6-3.6,21.5-6.5c12.4-5.3,16.7-20.7,14.6-32.4c-1.2-7.1-2.6-14.2-7.1-19.9
	c-7.2-9.1-16.8-13-28.4-12.1"/>
<path fill="none" stroke="#BCBEC0" stroke-width="0.75" stroke-linecap="round" stroke-linejoin="round" stroke-miterlimit="10" d="
	M886.4,384c-9.3,2.5-15.7,7.7-18.7,17.4c-2.8,9,3.7,16.8,12.7,17.5c7.4,0.6,14.7-0.4,21.4-3.6c3-1.4,6.1-3.7,7.9-6.5
	c4-6,2-14.5-3.9-18.9c-5.6-4.1-11.7-6.9-19-6"/>
<path fill="none" stroke="#BCBEC0" stroke-width="0.75" stroke-linecap="round" stroke-linejoin="round" stroke-miterlimit="10" d="
	M639.4,497.9c-4.3,0.8-8.9,1.1-13,2.6c-9.5,3.4-14.7,11.1-16.9,20.4c-3.6,14.6-7.1,29.3-6.5,44.5c0.3,6.4,1.2,13,3.6,18.9
	c3.9,9.9,6.2,19.9,6.3,30.6c0.1,6,0.5,12,1,18c1,11.3,10.1,19.6,23,16.2c12.3-3.2,19.8-11.1,23.8-22.3c2.9-8.3,4.9-17.2,6-26
	c1.3-10.3,5.5-19.5,9.2-29c4.4-11.3,8.6-22.7,7.8-35c-1-16.9-6.4-32.6-28.9-37.4c-4.9-1.1-10-1.1-15-1.6"/>
<path fill="none" stroke="#BCBEC0" stroke-width="0.75" stroke-linecap="round" stroke-linejoin="round" stroke-miterlimit="10" d="
	M1220.3,497.9c-7.4,1.4-14.3,4-21.1,7.3c-11.6,5.7-19.6,20.4-15.5,35.7c2.3,8.6,4.4,17.3,5.9,26c1,5.6,1,11.3,1.1,17
	c0.2,11,0.3,22,0,33c-0.3,11.1,3.1,20.9,9,30c5,7.8,11.6,14.8,13.9,24c2,8,2.8,16.3,4.1,24.5c1.8,10.7,3.8,21.3,5.4,32
	c1.4,9.1,2.6,18.3,3.5,27.5c1.4,13.8,4,27.3,10,40c9,19.1,17.6,38.4,26.6,57.5c5.9,12.6,5.2,25.4,2.9,38.5c-1.5,8.7-2.8,17.4-0.4,26
	c2.7,10,11.6,17.4,23.9,12.9c7.9-2.9,15.6-6.7,23-11c15-8.6,30.6-14.5,48-16c10.7-1,12.4-7.5,10.5-17.3c-1.3-6.5-2.9-13-4.5-19.5
	c-3.3-13.8,0.9-26.2,7.6-38c4.8-8.5,12-14.4,20.9-18.6c16.8-8,30.6-19.8,42-34.4c10.2-13.1,11.6-27.8,7.1-43.5
	c-5-17.4-9.6-35-14.6-52.5c-2.1-7.3-4.9-14.3-10.4-20.1c-6.7-7.1-14.9-8.3-23.5-6.3c-12.3,2.9-24.3,7-36.6,9.8
	c-12.8,2.9-25.9,4.1-39,1.6c-9.2-1.7-18.4-3.3-27.5-5.6c-3.7-0.9-7.4-3.1-10.5-5.4c-8.2-6.2-10.2-14.9-8-24.4
	c2.4-10.1,5.9-19.9,8.3-30c3.9-16.4,7.7-32.9,10.9-49.5c1.4-7.2,1.3-14.7,2.2-22c0.9-7.8-3-12.8-9.6-15.4
	c-10-3.9-20.2-7.4-30.5-10.5c-11.4-3.4-23.2-3.4-35-3.1"/>
<path fill="none" stroke="#BCBEC0" stroke-width="0.75" stroke-linecap="round" stroke-linejoin="round" stroke-miterlimit="10" d="
	M339.5,501.9c-4.2,1.2-8.5,2.7-10.9,6.6c-1.4,2.3-2.6,4.9-0.2,8c2.4,3.2,5.4,4.1,8.6,3.3c5.2-1.3,8.8-4.5,9.6-10.4
	c0.5-3.6-1-5.5-6.5-7.5"/>
<path fill="none" stroke="#BCBEC0" stroke-width="0.75" stroke-linecap="round" stroke-linejoin="round" stroke-miterlimit="10" d="
	M1439.3,503.9c-7.9,1.2-14.8,4.3-20.5,10c-8.3,8.4-15.7,17.6-19.5,29c-2.9,8.5-0.4,13.2,8.5,15.9c8.4,2.6,17,4.8,25.5,7
	c7.7,2.1,15.3,4.3,23,5.9c11.2,2.4,19.7-1.8,24.5-11.9c6.4-13.6,7.3-27-2.5-39.5c-7.2-9.2-17.5-13-28.5-15.5
	c-3.2-0.7-6.7-0.7-10-1.1"/>
<path fill="none" stroke="#BCBEC0" stroke-width="0.75" stroke-linecap="round" stroke-linejoin="round" stroke-miterlimit="10" d="
	M1854.3,378c-4.7,1.3-9.4,2.4-14,4.1c-9.4,3.4-18.5,17.2-17.5,26.4c1.4,12.1,6.7,22,18,27.4c14.3,6.8,30.3,6.7,41.9-6.5
	c7.9-9,11.3-20,11-31.9c-0.3-9.6-8.1-16.8-19.9-18.4c-6.3-0.9-12.7-0.8-19-1.1"/>
<path fill="none" stroke="#BCBEC0" stroke-width="0.75" stroke-linecap="round" stroke-linejoin="round" stroke-miterlimit="10" d="
	M1224.3,521.9c-8.7,3.6-12.4,10.6-12.4,19.5c0,14.3,0,28.7,1.1,43c0.8,10.1,0.8,20.7,6.3,30c3.2,5.4,6.5,10.6,14,9.4
	c1.7-0.3,3.7-0.9,5-2c8-7,13.5-15.7,16.5-25.9c3.1-10.6,7.3-21.2,8.8-32c2.9-21.5-7.9-36.5-28.3-41.8c-3.3-0.9-7-0.1-10.5-0.1"/>
<path fill="none" stroke="#BCBEC0" stroke-width="0.75" stroke-linecap="round" stroke-linejoin="round" stroke-miterlimit="10" d="
	M1657.3,369c-15.3,2.7-20.3,14.7-23.4,27.5c-3.6,15.3-9.4,29.7-15.6,44c-3.9,8.9-7.8,17.9-7.6,28c0.1,6.8,5.2,12.6,12,12.4
	c11.2-0.3,22.3-1.3,33.5-1.9c10-0.5,19.9,0.4,28.9,4.6c8.4,3.9,10.3,12.2,11.5,20.4c1.8,12.6,3,25.4,5.2,38c1.5,9,9.2,15.5,18.4,17
	c11.8,2,23.8,3.3,35.5,6.2c16,3.9,30.5,11.5,43.6,21.8c1.6,1.3,4.1,2.7,5.9,2.3c3.2-0.6,3.7-3.7,3.6-6.8c-0.2-6.7-0.2-13.3,0-20
	c0.4-17.6-7.9-30.7-20.5-42c-10.6-9.6-22.3-17.6-35.1-23.9c-7.7-3.9-15.7-7.3-23.5-11.1c-3.6-1.8-6.9-4.3-10.5-5.9
	c-9.4-4.2-12.1-12.6-13.3-21.6c-1.2-9.1-1.2-18.3-2.2-27.5c-1.5-14.1-6-27.1-13.9-39c-5.5-8.3-11.3-16.2-21.1-19.9
	c-3.5-1.3-7.3-1.7-11-2.6"/>
<path fill="none" stroke="#BCBEC0" stroke-width="0.75" stroke-linecap="round" stroke-linejoin="round" stroke-miterlimit="10" d="
	M582.4,356c-5,0.7-10,1.2-15,2c-3.4,0.6-6.8,1.2-10,2.5c-4.5,1.9-5,3.9-3.1,8.4c4.9,11.4,14.6,16.5,26,16.7
	c8.3,0.1,16.9-2.6,23.3-8.4c2.7-2.4,5-6.9,4.8-10.3c-0.3-4.2-3.6-7.6-8.5-9.2c-5.7-1.8-11.3-1.8-17.1-1.8"/>
<path fill="none" stroke="#BCBEC0" stroke-width="0.75" stroke-linecap="round" stroke-linejoin="round" stroke-miterlimit="10" d="
	M488.4,587.9c-2.2,0.5-4.3,0.9-6.5,1.5c-16.2,4.2-28.5,20-27.9,37.5c0.3,9.3,0.5,18.8,2.1,28c3.5,19.7,19.9,27.2,38.4,18.6
	c7.7-3.6,13.3-9,17.4-16.2c5.3-9.4,10.3-18.9,12.2-29.9c2.2-13.4-2.7-23.7-12.6-32c-6.5-5.4-14.1-7.5-22.5-7.5"/>
<path fill="none" stroke="#BCBEC0" stroke-width="0.75" stroke-linecap="round" stroke-linejoin="round" stroke-miterlimit="10" d="
	M307.5,594.9c-13.4,1.4-24.3,8.9-36,14.6c-8.4,4.1-17.2,6.4-26.5,6.4c-4.8,0-9.7-0.1-14.5,0c-12.7,0.2-25.1-2.4-37.5-4.5
	c-10.6-1.8-21.1-3.7-32-1.7c-13.5,2.4-21.8,10.5-27.4,22.2c-2.1,4.4-3.8,9.2-5,14c-3.3,12.7-8.7,24.3-17.1,34.5
	c-7.4,9.1-12.4,19.5-16.7,30.4c-5.4,13.4-12.4,26.1-18.8,39.1c-4.6,9.3-6.6,19.3-6.9,29.5c-0.3,12.2,0.5,24.4-0.2,36.5
	c-0.9,13.7,7.7,21.3,17.7,25.4c22.1,9,43.2,5.2,62.9-7.1c9.1-5.7,12.8-14.5,10.8-25.9c-1.4-8.1-0.6-16.7-1.3-25
	c-0.8-9.2-0.1-18.1,2.1-27c2.2-9.3,7.3-16.4,15-22c14.8-10.7,31.8-16.3,49-21.5c20.9-6.3,42.6-9,64-13.1c20.9-4,37.8-14.3,48.5-33.4
	c4.6-8.2,9.5-16.5,11-26c3.5-21.5-3.5-36.5-27-43.4c-4.3-1.3-9-1.4-13.5-2.1"/>
<path fill="none" stroke="#BCBEC0" stroke-width="0.75" stroke-linecap="round" stroke-linejoin="round" stroke-miterlimit="10" d="
	M1586.3,612.9c-21.8,7.4-30.5,25.2-35.4,45.5c-3.7,15.2-6.7,30.6-8.9,46c-1,7.3,0.7,15,0.7,22.5c0.1,9.5,0.5,19.1-0.7,28.5
	c-1.2,9.9-4.2,19.7-6.3,29.5c-2.1,10,2.1,15.2,12,17.1c10.1,1.9,19.8-0.1,29.5-1.7c16.3-2.6,32.1-2.3,47,6
	c9.2,5.2,18.9,9.6,27.9,15.1c14.7,8.9,30.3,10.5,46.5,6.3c13.4-3.5,26.4-8.3,38.1-16.3c11.8-8,19.4-18.9,21.7-32.6
	c1.8-10.5-0.4-20.6-8.2-29c-7.9-8.5-17.6-14.1-27.6-19.4c-9-4.7-17.4-10.1-24.5-17.5c-12.3-12.7-26.9-22-43.4-28.7
	c-8.9-3.6-15.8-10.1-20.6-18.8c-7.6-13.5-14.4-27.5-25-39c-4-4.3-8.7-8.1-13.5-11.4c-2.4-1.6-5.9-1.5-8.9-2.2"/>
<path fill="none" stroke="#BCBEC0" stroke-width="0.75" stroke-linecap="round" stroke-linejoin="round" stroke-miterlimit="10" d="
	M973.4,628.9c-7,4.8-7.6,10.1-2,16c1,1,2,2,3,3c3.4,3.1,5.9,2.6,8-1.5c3.4-6.7-1-15.8-8.5-17.5"/>
<path fill="none" stroke="#BCBEC0" stroke-width="0.75" stroke-linecap="round" stroke-linejoin="round" stroke-miterlimit="10" d="
	M220.5,638.9c-5.2,0.7-10.3,1.2-15.5,2c-8,1.2-16.1,2.3-24,4.1c-10.1,2.2-17,9-22.5,17.4c-12.4,19.1-26,37.4-36,58
	c-4.3,8.9-10.8,16-17.5,23c-6.6,6.9-12.7,14.3-14.4,24c-2.2,12.4,0.1,23.8,8.9,33.5c5,5.5,10.3,9.7,18.5,9.1
	c8.2-0.6,16.1-5.8,19-13.6c2.7-7.4,3.9-15.1,4-23c0.2-8.8,0.6-17.7,1-26.5c0.5-12.5,7.9-20.4,18-25.9c10.8-5.9,21.8-11.4,33-16.5
	c9.1-4.2,18.6-7.8,28-11.6c15.6-6.3,32.2-8.6,48.5-12c9.2-1.9,18-4.6,22.5-14c2.1-4.4,0.9-10.8-1.9-14.5c-6.5-8.6-16-10.5-25.6-11.3
	c-14.5-1.2-29-1.5-43.5-2.1"/>
<path fill="none" stroke="#BCBEC0" stroke-width="0.75" stroke-linecap="round" stroke-linejoin="round" stroke-miterlimit="10" d="
	M1233.3,351c-21.4,5.3-31.4,22.3-40.4,40.1c-3.3,6.6-5.4,13.8-5.1,21.4c0.3,6.6,2.2,12.5,6.5,17.5c8.3,9.7,20.6,10.3,31.3,0.3
	c5.9-5.5,11-12.6,14.4-19.9c5.3-11.5,8.6-24,13.4-35.8c4.7-11.8-2.5-24.9-17.1-23.5c-0.8,0.1-1.7,0-2.5,0"/>
<path fill="none" stroke="#BCBEC0" stroke-width="0.75" stroke-linecap="round" stroke-linejoin="round" stroke-miterlimit="10" d="
	M1104.4,652.9c-6.5,3-9.3,8.3-7.5,15c4.9,17.2,10.1,34.3,14.9,51.5c5.3,18.6,13.4,36,22.6,53c1.6,2.9,3.5,6,6,7.9
	c7.9,6.1,15.4,3.1,20-6.9c5.8-12.9,8.5-26.4,7.4-40.5c-0.9-11-5.1-20.9-12-29.5c-3.5-4.4-7.5-8.5-11.5-12.5
	c-10-10-20.1-19.7-28-31.5c-2.6-3.9-6.3-6.7-11.4-6.5"/>
<path fill="none" stroke="#BCBEC0" stroke-width="0.75" stroke-linecap="round" stroke-linejoin="round" stroke-miterlimit="10" d="
	M1594.3,662.9c-4.5,1.1-6.3,4.3-7,8.5c-0.5,3.2-1.6,6.4-1.4,9.5c0.7,13.6-4.3,25.8-9.1,38c-4.8,12.2-7.7,24.8-7,38
	c0.4,8.3,6.5,15.8,14.5,18c4.3,1.2,8.6,2.7,13,3.4c9.8,1.7,18.6,6.1,27.5,10.1c13.8,6.2,27.3,13.2,41.1,19.3
	c10.4,4.7,21.4,5.5,32.5,2.1c8.7-2.7,17.1-6,24.5-11.4c6.9-5,12.3-11.1,13.9-19.6c2.4-13-4.9-21.6-16.4-26.4
	c-4.4-1.8-8.9-3.7-13.5-4.4c-11.3-1.7-19-8.3-25.5-17.1c-6.8-9.2-14.9-17-26-21c-6.9-2.5-14-4.6-21-7c-12.5-4.3-21.6-12.2-27.1-24.5
	c-1.5-3.3-3.3-6.6-5.5-9.4c-1.9-2.4-4.6-4.1-6.9-6.1"/>
<path fill="none" stroke="#BCBEC0" stroke-width="0.75" stroke-linecap="round" stroke-linejoin="round" stroke-miterlimit="10" d="
	M1386.3,675.9c-18.5,3.4-36.2,11.3-55.5,9.9c-7.9-0.5-15.7-1.6-23.5-2.5c-7.2-0.8-14.3-2-21.5-2.4c-7.6-0.4-15.4,0.3-23-0.2
	c-9.3-0.6-19.4,8.9-20,19.6c-1.6,30.2,4.6,58,25.9,81c7.5,8.2,14.4,16.9,21.5,25.5c2.7,3.2,5.9,4.2,10,4.1c6.8-0.2,13.7-0.2,20.5,0
	c11.3,0.3,22-2.1,30.9-9.1c11.9-9.3,25.5-13.8,40-17.1c18.2-4.1,30.2-15.8,35.5-33.8c2.3-7.8,2.7-16.1,0.4-23.9
	c-3.4-11.8-7.5-23.5-11.9-35c-4.5-11.6-13.1-17.4-25.9-16c-1,0.1-2,0-3,0"/>
<path fill="none" stroke="#BCBEC0" stroke-width="0.75" stroke-linecap="round" stroke-linejoin="round" stroke-miterlimit="10" d="
	M992.4,339c-2.3,0.7-4.9,0.9-7,2.1c-5.3,3-4,8.5-3.4,12.9c2.4,16.8,7.2,32.9,17.3,47c7.1,9.9,16.3,16,29,16
	c13.3,0,28.6-11.8,32.5-23.5c2.9-8.6,3.9-17.5-1.2-25.4c-4.5-7-11.1-12.5-18.4-16.5c-15-8.3-31.1-13.1-48.5-12.6"/>
<path fill="none" stroke="#BCBEC0" stroke-width="0.75" stroke-linecap="round" stroke-linejoin="round" stroke-miterlimit="10" d="
	M1377.3,700.9c-6.5,2.5-13.1,4.7-19.5,7.6c-10.8,4.8-21.7,4.8-33.1,2.1c-7.6-1.8-15.5-2.6-23.5-0.7c-10.5,2.4-16,9.1-13.3,19.5
	c3.8,14.4,12.7,25.3,27.4,29.9c6,1.9,12.6,1.3,19-0.7c4.7-1.5,9.6-3.3,14.5-3.3c7.3,0,14.7,1.5,22,2.3c6.1,0.6,12.1,2.2,18.5,0.7
	c12.7-3,18.8-14.3,19.1-25.2c0.2-7.9-1.8-16.1-6.7-23c-4.1-5.8-9.5-9.5-17-9c-2.3,0.1-4.7,0-7,0"/>
<path fill="none" stroke="#BCBEC0" stroke-width="0.75" stroke-linecap="round" stroke-linejoin="round" stroke-miterlimit="10" d="
	M1244.3,325c-4.3,0.8-8.9,1.1-13,2.6c-15.2,5.4-27.3,15-37.1,27.9c-9.5,12.5-17.3,26-23.8,40.1c-7.1,15.6-3.7,30.7,5.9,44.4
	c6.6,9.5,15.8,15.5,27.5,15.9c10.3,0.3,19.9-3,28.5-8.8c8.9-6,14.6-14.7,19.9-23.5c8.9-14.7,17.8-29.4,25.9-44.5
	c3.5-6.5,6.4-13.7,7.4-20.9c1.4-10.3-3.6-18.6-12.2-24.4c-6.6-4.5-13.8-7.4-22-7.6c-2.2,0-4.3-0.6-6.5-1"/>
<path fill="none" stroke="#BCBEC0" stroke-width="0.75" stroke-linecap="round" stroke-linejoin="round" stroke-miterlimit="10" d="
	M182.5,317c-2.3,0.5-4.7,1.1-7,1.5c-14.6,2.4-22.8,12.1-27.4,25.1c-6.9,19.3-4.1,36.9,11.4,51.5c8.6,8.1,16.7,16.7,25.6,24.4
	c10.9,9.4,24.1,12.2,37.8,8.4c6.1-1.7,12.2-5.2,16.9-9.5c7.5-6.9,14.1-14.9,20.6-22.8c7.1-8.6,7.4-19.1,4.4-28.9
	c-6-19.2-18.3-33.7-36.3-43.1c-6.9-3.6-14.4-4.9-22-5.4c-7.8-0.5-15.7-0.7-23.5-1"/>
<path fill="none" stroke="#BCBEC0" stroke-width="0.75" stroke-linecap="round" stroke-linejoin="round" stroke-miterlimit="10" d="
	M575.4,726.9c-8.3,4.1-13.5,11.3-17.9,19c-2.3,4-4.4,8.2-6,12.5c-2.7,7.7,1.7,13.1,9.9,13.6c11.3,0.6,16.2-7.3,20.9-15.2
	c3.8-6.4,5.3-13.9,4-21.4c-1.3-7.5-3-8.5-10.4-8.5"/>
<path fill="none" stroke="#BCBEC0" stroke-width="0.75" stroke-linecap="round" stroke-linejoin="round" stroke-miterlimit="10" d="
	M1242.3,309c-5.7,1.5-11.4,2.8-17,4.5c-9.6,3-17.2,9.4-24.5,16c-14.7,13.4-26.6,29.1-38.6,44.9c-8.4,11-18,21-29.5,29
	c-2.9,2.1-6.5,3.6-10,4.5c-15.8,4-27.1,13.9-36.5,26.6c-4,5.4-8,10.8-11.4,16.5c-3.2,5.4-1,11,4.9,13.4c14.2,5.6,26.9,2.6,38-8.4
	c2.4-2.4,4.5-5.1,7-7.5c7.3-6.9,15.8-7.9,24.4-1.5c7.5,5.5,14.4,11.7,22.1,16.9c10.4,7,22.1,8,34.5,6.3c10.8-1.4,21.1-3.5,31-8.2
	c14.4-6.8,23.7-18.8,31.4-32.1c8.2-14.2,16.8-27.9,28-40c7.9-8.5,13.3-18.7,13.4-30.5c0.1-14.8-5.3-27.6-17.3-37
	c-9.9-7.8-21.3-11.1-33.5-12.4c-5.3-0.6-10.7-0.7-16-1"/>
<path fill="none" stroke="#BCBEC0" stroke-width="0.75" stroke-linecap="round" stroke-linejoin="round" stroke-miterlimit="10" d="
	M303.5,749.9c-17.5,2.5-33,11.3-50,15.5c-8,2-16.2,3.4-23.9,6.1c-10.6,3.8-14.2,10.1-10.5,21.3c0.4,1.4,0.9,2.7,1.5,4
	c4.5,9.3,8.5,19,13.6,27.9c7,12.2,11.9,10,21.8,6.9c13.1-4,24.6-11.4,35-20.4c11.4-9.9,22.8-19.8,33.9-30.1c2.8-2.6,5-6.1,7-9.4
	c4.9-7.9,2.3-14.6-6.4-18.5c-6.9-3.1-14.1-3.8-21.5-3.4"/>
<path fill="none" stroke="#BCBEC0" stroke-width="0.75" stroke-linecap="round" stroke-linejoin="round" stroke-miterlimit="10" d="
	M1101.4,42c-17.2,3.9-26.3,16.4-32.4,31.5c-4.5,11.1-7.8,22.8-12.2,33.9c-5.4,13.7-13.5,25.7-25.5,34.5c-8.1,5.9-17.3,8.9-27.5,9.1
	c-5.2,0.1-10.5,0-15.5,1.1c-6.3,1.5-7.5,3.9-7.5,10.3c0,8.8,0.6,17.7-0.1,26.5c-0.9,11.4-2.6,22.7-4.4,34c-2.9,17.9-3.5,35.4,4,52.5
	c4.8,10.9,12.6,19.1,23.1,23.8c18,8,36.5,15.2,55,22c5.3,1.9,11.6,1.8,17.4,1.5c5.2-0.2,9.5-3.3,12.5-7.8c5.8-8.5,8.7-18,9.4-28
	c1-15.8,1.2-31.7,2.2-47.5c0.7-11.5,1-23.2,3.2-34.5c2.9-14.8,13-24.2,27.3-27.8c9.7-2.5,20-2.7,29.9-4.3c13.2-2,26.5-2.3,39.1-8.2
	c11.6-5.5,17.1-14.9,19.2-26.3c3-17,1.8-34-3.8-50.4c-5.2-15.3-16-24.9-31.5-28.9c-20.4-5.3-41-9.8-61.4-15.2
	c-6.7-1.8-13.3-1.8-20-1.9"/>
<path fill="none" stroke="#BCBEC0" stroke-width="0.75" stroke-linecap="round" stroke-linejoin="round" stroke-miterlimit="10" d="
	M988.4,758.9c-4.5,1-9.1,1.8-13.5,3c-9.8,2.7-19.1,6.6-26.5,14c-5.2,5.2-4.9,9,2.1,12.3c6.3,3,13.1,5.3,20,7c9.8,2.6,19.6,5,30,4.7
	c8.5-0.3,15.4-3.3,20-10.6c5.8-9.2,2.6-23-8.9-27.6c-7.3-2.9-14.9-3.1-22.5-2.9"/>
<path fill="none" stroke="#BCBEC0" stroke-width="0.75" stroke-linecap="round" stroke-linejoin="round" stroke-miterlimit="10" d="
	M907.4,47c-7.1,3.3-10.8,11.1-8.3,20c1.5,5.2,4.1,10.3,7,14.9c1.3,2,4.6,4,6.8,3.8c2.9-0.2,5.8-2.2,7.1-5.7
	c3.8-10.4,1.5-19.8-4.7-28.4c-1.6-2.2-4.9-3.1-7.4-4.6"/>
<path fill="none" stroke="#BCBEC0" stroke-width="0.75" stroke-linecap="round" stroke-linejoin="round" stroke-miterlimit="10" d="
	M387.5,846.9c-8,2.8-15.2,6.5-21.6,12.4c-6.3,5.7-9.9,12.7-10.7,20.6c-0.8,7.7-0.5,15.7,0.5,23.5c1.3,10.4,8.3,14.4,16.8,14.3
	c15.2,0,29.3-4,40-15.9c4.4-4.9,6.5-10.8,6.6-17.5c0.2-8.7-0.4-17-4.5-25c-4.3-8.4-10-13.7-20.1-12.5c-2.1,0.3-4.3,0-6.5,0"/>
<path fill="none" stroke="#BCBEC0" stroke-width="0.75" stroke-linecap="round" stroke-linejoin="round" stroke-miterlimit="10" d="
	M138.5,277c-6,2.1-9.3,6.6-10.4,12.5c-1.7,9.3-3.3,18.6-4,28c-1.1,14.3-2.2,28.7-1.9,43c0.2,14.6,2.3,29.2,12.4,40.9
	c6.1,7,12.7,13.6,19.5,20c6.9,6.5,14.1,12.7,21.5,18.5c11.2,8.8,24.1,12.7,38.4,13.2c21.3,0.7,39.5-7,56-19.6
	c8.8-6.7,17.5-13.5,23.4-23c10.2-16.4,11.3-33.6,3.6-51.5c-9.4-21.7-23.4-40-40.6-55.9c-8.9-8.2-20-12.4-31.9-14
	c-7.8-1.1-15.7-1.4-23.5-2.1c-14.4-1.3-28.6-3.4-42.5-7.6c-6.5-2-12.9-2.5-19.5-2.4"/>
<path fill="none" stroke="#BCBEC0" stroke-width="0.75" stroke-linecap="round" stroke-linejoin="round" stroke-miterlimit="10" d="
	M536.4,869.9c-5.3,1.8-10.8,3.3-16,5.6c-9.5,4.3-14,12.3-15.6,22.4c-1.4,9.1,0,17.7,4.6,25.5c7.1,12.1,15.2,15.1,28.9,12.1
	c9.5-2.1,19.1-3.7,29-3.7c13.8,0.1,25.1,4.9,33.4,15.7c4.8,6.2,6.9,13.8,8.6,21.4c3.4,16,3.9,32.1,2.8,48.5c-0.9,13.7-2.2,28,5.2,41
	c6.7,11.8,22.3,16.1,33.6,9c5.4-3.4,9.5-8.2,13.5-13c6.3-7.5,13-14.7,19.4-22c6.2-7.1,12.7-13.9,17.1-22.4
	c6.4-12.5,6.7-24.7-1.7-35.9c-8.4-11.2-17.3-22.1-28.8-30.7c-9.1-6.8-19.5-10.4-30.1-13.3c-13.8-3.7-25.8-9.8-36.1-20
	c-10.6-10.5-22-20.5-34-29.4c-9.6-7.1-20.9-11.2-33.3-10.7"/>
<path fill="none" stroke="#BCBEC0" stroke-width="0.75" stroke-linecap="round" stroke-linejoin="round" stroke-miterlimit="10" d="
	M864.4,245c-13.1,3.2-22.6,11.2-29.5,22.5c-4,6.5-5.8,13.8-5,21.5c0.4,4.6,5.9,11,10.5,12c9.4,2,18.7,4.3,28.5,2.2
	c5.9-1.3,12.1-1,18-2.2c11.5-2.3,21.7-11.3,20.9-23.4c-1.2-16.8-14.3-32.7-32.9-32.5c-3.3,0-6.7,0-10,0"/>
<path fill="none" stroke="#BCBEC0" stroke-width="0.75" stroke-linecap="round" stroke-linejoin="round" stroke-miterlimit="10" d="
	M1584.3,870.9c-5.3,1-10.7,2-16,3c-14.8,2.6-27.9,9.3-36.8,21.2c-12.7,17-24.3,34.9-35.6,52.9c-5.6,9-3.9,19.2,3.6,26.6
	c8.9,8.8,20,12,31.2,15.2c14.1,4,28.5,7.2,39.9,17.2c6,5.3,11.4,11.3,16.5,17.4c11.2,13.4,24.8,22.2,42.6,23.4
	c6.7,0.5,13.3,0.5,20,1.1c13,1.2,26,2.9,39,3.9c15.2,1.2,30-0.1,40.9-12.5c8.6-9.9,16.4-20.6,24.6-30.9c9.6-12.2,20.2-23.1,35-29.1
	c3.4-1.4,6.4-3.8,9.5-5.9c10.8-7.4,11.8-17.9,9-29.5c-4.2-17.4-9.3-34.6-16.6-51c-4.4-9.9-12.8-14.5-23.4-16.1
	c-21.4-3.2-43-3.1-64.5-2.8c-6.7,0.1-13.3,1.6-20,2.4c-16.3,1.9-32.6,4.2-49,1.5c-11-1.9-22-4.5-33-6.4c-5.4-0.9-11-1.1-16.5-1.6"/>
<path fill="none" stroke="#BCBEC0" stroke-width="0.75" stroke-linecap="round" stroke-linejoin="round" stroke-miterlimit="10" d="
	M1682.3,892.9c-7.5,1.3-15.1,2.3-22.5,4.1c-13.3,3.3-25.6,8.4-34.1,20.3c-4.5,6.3-6.4,13.2-6.8,20.6c-0.3,6.1,1.2,12.4,0.7,18.5
	c-0.7,7.5-1.5,15.1-5.2,22.1c-3.8,7-7,14.5-7.4,22.5c-0.2,4.3,0.9,9.1,3,12.9c5.5,10.1,14.3,16,25.8,17c7,0.6,14,0.8,21,1
	c9.8,0.4,19.7,0.4,29.5,1.1c17.6,1.1,31.1-5.4,41.1-20c8.4-12.3,14.5-25.7,20.9-39c3.3-6.8,6.7-13.6,10-20.5c4.8-10,5.9-20.4,2.4-31
	c-3.3-10-10.7-16.4-20.5-19.4c-12.8-3.9-25.9-7.3-39-9.9c-5.9-1.2-12.3-0.2-18.5-0.2"/>
<path fill="none" stroke="#BCBEC0" stroke-width="0.75" stroke-linecap="round" stroke-linejoin="round" stroke-miterlimit="10" d="
	M178.5,903.9c-5.2,1.8-10.5,3.2-12.6,9.5c-2.3,7.1,0.8,13.8,7.5,17.1c5.9,2.9,11,2.1,15.5-2.2c4.1-3.9,5.1-9.1,3.5-14.4
	c-2-6.4-6.6-9.8-13.4-10"/>
<path fill="none" stroke="#BCBEC0" stroke-width="0.75" stroke-linecap="round" stroke-linejoin="round" stroke-miterlimit="10" d="
	M882.4,912.9c-6.6,3-8,5.6-5.4,12c2.8,6.7,5.7,13.4,9.5,19.4c4.4,7,11.2,8.7,16.3,4.5c4.5-3.7,6.9-9.2,5.9-14.9
	c-2.3-13.6-11.8-21-25.9-21"/>
<path fill="none" stroke="#BCBEC0" stroke-width="0.75" stroke-linecap="round" stroke-linejoin="round" stroke-miterlimit="10" d="
	M1010.4,917.9c-5.7,0.7-11.3,1.4-17,2c-6.3,0.7-12.7,1.5-19,2c-8.3,0.7-14.1,5.3-17.9,12.1c-4.3,7.6-7.9,15.5-11.6,23.5
	c-4.4,9.5-8.1,19.3-14.9,27.6c-5.3,6.4-12.3,10.4-18.5,15.5c-3.7,3-7.2,6.6-10,10.5c-3,4.2-1.9,12.4,1.4,16.4
	c6,7.2,13.7,11.2,23,11.4c14.7,0.3,29.4,0.8,44-0.1c11.4-0.7,23.1-0.9,34-5.2c5.8-2.3,11-5.2,15.5-9.5
	c11.9-11.4,22.3-24.2,31.8-37.6c6.6-9.4,9.8-20.2,9.7-31.9c-0.1-17.2-11.9-29.4-26-33.6c-7.9-2.3-15.9-3.2-24-2.9"/>
<path fill="none" stroke="#BCBEC0" stroke-width="0.75" stroke-linecap="round" stroke-linejoin="round" stroke-miterlimit="10" d="
	M1668.3,923.9c-10.3,3.9-14.7,11.7-15.6,22.5c-0.9,11.2-2.8,22.3-3.8,33.5c-0.5,5.5-0.6,11.1,0.1,16.5c0.6,4.4,4.1,7.4,8.3,9
	c11.8,4.4,24.1,5.4,35.9,1.8c11.9-3.6,18-13.3,20.6-25.3c3.4-15.7-1-29.2-12.1-40.4c-5.4-5.5-11.1-10.6-17-15.5
	c-4.7-3.8-10.6-1.6-15.9-2.1"/>
<path fill="none" stroke="#BCBEC0" stroke-width="0.75" stroke-linecap="round" stroke-linejoin="round" stroke-miterlimit="10" d="
	M1112.4,62c-5,2-10.6,3.1-14.9,6.2c-9.6,6.8-13.9,17.3-16.6,28.3c-2.4,9.9-3.5,20.3-6.7,29.9c-7.2,21.4-21.9,36-42.8,44.6
	c-9.4,3.9-19.2,7.9-24.9,17c-3.4,5.4-6,11.4-8,17.5c-3.9,11.4-7.8,22.8-10.5,34.5c-4.6,20,5.7,40,23.8,49.5
	c12.4,6.5,25.3,11.3,39,13.3c12.6,1.8,23.7-2.3,28.4-19.4c4.1-14.7,4.6-29.8,2.6-45c-1.3-10-1.7-20-3.2-30c-1.3-8.8-1.2-17.4,1-26
	c3.4-13,16.7-25.1,31.6-25.5c6.8-0.2,13.7-1,20.5-0.9c11.8,0.1,23.7,1.1,35.5,0.8c9.4-0.2,18.7-2,26.5-8.3c6.2-5,8.8-11.4,10-19
	c1.5-9.3,0.1-18.2-2.6-27c-4.3-14.1-13.7-23.6-27.5-28.4c-15.2-5.4-30.8-9.5-47-11.1c-4.7-0.5-9.3-0.7-14-1"/>
<path fill="none" stroke="#BCBEC0" stroke-width="0.75" stroke-linecap="round" stroke-linejoin="round" stroke-miterlimit="10" d="
	M867.4,219c-1,0.3-2,0.9-3,1c-11.7,1.4-23.4,2.4-35,4.1c-8.1,1.2-16.3,2.9-22.9,8c-8.1,6.1-10.1,15.5-11.6,24.9
	c-2.3,15.3-4.4,30.7-7.1,46c-1.5,8.7-6.3,15.6-13.9,20.5c-4.6,3-9.2,6.1-13.5,9.5c-8.5,6.7-13,15.9-16.6,25.9
	c-4.4,12.3-7.8,24.9-7.8,38c0,8.6,1.8,17.1,5.4,25c5.3,11.7,17.2,15.2,27.9,8.5c14.7-9.1,23-23.1,29.5-38.5
	c4.5-10.7,6.3-22.1,8-33.5c2-13.3,8.9-22.3,22-26c14-3.9,27.9-8.2,42-11.3c11.3-2.5,23-3.3,34.4-5.3c7.6-1.3,14.9-3.3,20.6-9.3
	c4.5-4.8,6.7-10.5,6.8-16.6c0.4-20.1-5.6-38.6-15.4-56c-4.4-7.8-11.9-11.8-20.5-12.9c-9.6-1.3-19.3-1.5-29-2.1"/>
<path fill="none" stroke="#BCBEC0" stroke-width="0.75" stroke-linecap="round" stroke-linejoin="round" stroke-miterlimit="10" d="
	M1008.4,952.9c-5,0.7-10,1.6-15,2c-15.1,1.2-25.9,8.4-32.5,22c-3.8,7.8-7.9,15.4-9.5,24c-1.1,5.9,1.8,11.8,7.6,12.9
	c13.5,2.5,26.8,2,38.4-6.5c12.6-9.2,21.3-21.5,27.1-35.9c5.2-13-2.9-19.1-13-18.5c-0.8,0-1.7,0-2.5,0"/>
<path fill="none" stroke="#BCBEC0" stroke-width="0.75" stroke-linecap="round" stroke-linejoin="round" stroke-miterlimit="10" d="
	M249.5,68c-10.8,3.1-17.7,11-22.8,20.1c-9.2,16.2-17.7,32.8-26,49.5c-3.6,7.2-5.8,15.2-5.6,23.4c0.2,7.5,2.2,14.4,7.5,20
	c3.6,3.7,7.9,6.8,11.4,10.6c5.7,6.1,12,12,16.4,19.1c9.5,15.2,22.3,27,36.2,37.9c5.5,4.3,11.1,8.6,16.5,13
	c4.6,3.8,10.1,4.9,15.5,5.3c10.4,0.9,20.7-0.1,30.5-3.9c14.2-5.6,22.2-15.9,24.2-31.4c1.4-11.4,0.3-21.7-6.7-31
	c-4.7-6.3-10.7-11-17.4-15.1c-12.6-7.5-25-15.3-37.5-22.9c-9.6-5.9-15.2-14.9-18.9-25c-3.5-9.5-6.1-19.3-9.1-29
	c-0.4-1.3-0.5-2.7-0.5-4c0-7.8,0-15.7,0-23.5c0-9.4-3.6-13-13-13"/>
<path fill="none" stroke="#BCBEC0" stroke-width="0.75" stroke-linecap="round" stroke-linejoin="round" stroke-miterlimit="10" d="
	M1418.3,977.9c-5.3,5.7-10.9,11.1-15.9,17.1c-3.1,3.6-5.5,7.9-8,12c-1.1,1.8-2.3,3.9-2.4,6c-0.7,9.2,5.9,16,15.4,17
	c16.8,1.8,23.5-10.4,24.5-21.6c0.5-5.5,0.9-11,1-16.5c0.2-9.3-4.7-14-14-14"/>
<path fill="none" stroke="#BCBEC0" stroke-width="0.75" stroke-linecap="round" stroke-linejoin="round" stroke-miterlimit="10" d="
	M1035.4,204c-20.7,6.6-29.5,22.7-32.3,42.5c-2.3,16.2,5.2,27.7,20.9,33.8c6.2,2.4,12.9,4,19.5,4.5c9.8,0.7,17.3-5.2,20.5-14.8
	c5.2-15.6,2.4-30.7-3.6-45.4c-1.8-4.3-4.7-8.1-7.4-12c-4.1-5.9-10.2-7.9-17-8.5"/>
<path fill="none" stroke="#BCBEC0" stroke-width="0.75" stroke-linecap="round" stroke-linejoin="round" stroke-miterlimit="10" d="
	M389.5,279c-2,0.5-4,1.1-6,1.5c-11.1,1.9-21.2,15.1-21.9,26c-0.7,11.7,1.7,21.2,10.4,29c4.7,4.2,10.6,5.7,16.5,6.9
	c9.1,1.8,18.3,1.8,27.5,0.1c13-2.4,19.8-11.1,22.9-23c2.1-8.1,3.4-16.6,1.1-25c-1.9-6.7-5.2-12.3-13-13.5c-4.7-0.7-9.3-1.7-14-1.9
	c-7.7-0.3-15.3-0.1-23-0.1"/>
<path fill="none" stroke="#BCBEC0" stroke-width="0.75" stroke-linecap="round" stroke-linejoin="round" stroke-miterlimit="10" d="
	M1270.3,80c-10.3,2.1-14,10.6-16.3,19.1c-3.1,11.3-4.6,23-7.3,34.4c-2.5,11.1-5,22.2-8.6,33c-3.4,10.1-10.7,17.6-20.4,21.9
	c-12,5.3-24.2,9.9-36.5,14.6c-12.9,5-23.8,12.3-28.4,26.1c-2.2,6.6-3.6,13.6-5.1,20.5c-2.3,10.8-4.5,21.6-6.5,32.5
	c-1.4,8-2.7,16-3.4,24c-0.3,3.4,0.5,7.1,1.4,10.5c3,10.9,8,11.8,17.4,10c7-1.3,12.6-5.7,17.9-10c8.1-6.6,15.7-13.6,23.6-20.4
	c10.6-9.3,22.7-14.4,37-14c11.5,0.3,23,0.4,34.5,1.1c26.7,1.6,50.2,10.9,69.5,29.9c8.3,8.2,11.8,18.6,14.5,29.5
	c5.4,22,13.1,42.8,29.9,59.1c6.7,6.5,14.8,8.7,23.6,9.4c8.5,0.6,17,0.2,25.5,1.2c10.5,1.2,18.4,7.5,26.1,14.3
	c6.1,5.4,12.5,10.6,19,15.5c6.1,4.6,13.6,5.9,21,7c7.3,1.1,14.7,1.7,22,3.1c13.5,2.7,20.1,12.5,25.1,24.4
	c6.1,14.3,12.9,28.4,19.4,42.5c6,13.1,17.4,18.7,30.5,22c12.1,3.1,24.2,6.6,32.5,17c6.6,8.3,10.6,18,14,28c4.1,12,8.4,24,16.5,34
	c9,11.2,20.5,15.5,35,13.3c7.1-1.1,14.6-3,22-1.2c10.8,2.7,18,9.9,21.9,20c3.4,8.8,5.9,18,9.1,26.9c4.5,12.2,14.1,18.6,26.5,19.7
	c7.3,0.7,14.6-2.5,20.4-7.3c6.7-5.5,13.3-11.4,19.5-17.5c13.6-13.4,27.2-26.8,40.5-40.5c3.7-3.8,6.7-8.4,9.5-13
	c6.7-10.8,7.8-22.6,5.6-35c-3-17.2-8.5-33.6-15.5-49.5c-4.5-10.2-12.7-17.4-20.7-24.3c-15.9-13.8-32.3-27-48.9-40
	c-8.4-6.6-17.5-12.2-26.4-18.1c-13-8.5-20.1-20.8-23.5-35.5c-2-8.7-4.6-17.2-5.8-26c-1.1-8,1.4-15.6,5.8-22.5
	c4.8-7.4,9.8-14.8,13.9-22.6c2.9-5.5,4.3-11.7,6.7-17.4c6.4-15.7,18.8-24.1,35-27.5c11.9-2.5,23.3-0.7,34.5,3.9
	c7.5,3.1,14.9,6.6,23.5,6.2c11.3-0.6,21.9-11.8,22.7-23.1c0.8-11.9-4.1-20.5-11.5-29.2c-8.5-10.1-16.4-21-23-32.4
	c-9.9-17.3-20.1-34.4-32.1-50.4c-6.8-9-13.5-18.2-18.9-28c-9.5-17.2-23.5-28.5-41.6-35.5c-10.1-3.9-20.1-8.1-30-12.5
	c-14.7-6.6-28.3-4.9-41,4.6c-7.6,5.7-14.8,12-16.4,22c-1.3,8.3-1,16.6,0.8,25c2.4,11,4.4,22.1,3.5,33.5c-0.5,6.5-2.1,13-2.3,19.5
	c-0.4,10.3-1.2,20.8,0.1,31c2,16.1,5.4,32.2,4.1,48.5c-0.5,6.9-2.5,13.8-4.4,20.5c-2.7,9.1-10.1,13.7-17.9,18.1
	c-10.1,5.7-20.3,11.5-29.9,18.1c-5,3.4-9.1,8.2-13,12.9c-6.8,8.1-14.7,14.4-25.1,16.9c-8.5,2-16.3-1.4-23.9-4.1
	c-14.3-5.1-24.1-15.7-32.1-28.3c-8.9-14.1-18-28-27-42c-5-7.8-11.4-14.3-19.5-19c-6.5-3.8-13.5-3.7-20.5-2.4
	c-7.4,1.3-14.7,3.2-22,4.9c-6.6,1.5-13,0.3-19-2.1c-6.5-2.7-10.3-13.1-9.1-20.4c2.1-13.2,8-25,14.3-36.4
	c7.6-13.8,10.1-28.3,10.4-43.6c0.3-13.9-0.3-27.7-5.1-41c-5.2-14.3-11.4-28-23.5-37.9c-5.2-4.2-11.7-5.9-18.4-6
	c-7.5-0.2-15-0.3-22.5,0c-17.6,0.8-34.3-3.5-51-8.1c-10.3-2.8-20.7-5.5-31.5-5"/>
<path fill="none" stroke="#BCBEC0" stroke-width="0.75" stroke-linecap="round" stroke-linejoin="round" stroke-miterlimit="10" d="
	M912.4,194c-6,1-12,2.4-18,2.9c-12.1,1-24.3,1.8-36.5,2c-10.7,0.2-21.3-0.8-32-0.8c-12.9-0.1-25.5,1.9-37.5,6.9
	c-11.1,4.6-17.6,13.6-17.4,25.6c0.2,12.2,0.9,24.3,0.9,36.5c0,16.1-5.5,29.7-18.4,40c-10.7,8.5-20,18.2-23.5,32
	c-1.7,6.7-3.4,13.3-5,20c-2.9,12-5.9,23.9-8.4,36c-2,9.4-3.4,19-5.1,28.5c-3.5,20-17.2,29.9-35.5,34.4c-8.8,2.2-17.9,3.3-27,4
	c-11.7,0.9-23.1-1.8-34.5-4.3c-13.6-2.9-27.5-5.4-40.9,0.5c-7.4,3.3-14.6,7.5-21,12.5c-14.6,11.3-31,19.3-47.6,26.9
	c-5.9,2.7-11.3,6.1-15.6,11.4c-7.5,9.2-4.7,17.9,3.1,22.6c4.6,2.7,9.1,5.5,14,7.5c13,5.3,25.6,11.2,34.9,22.1
	c7.9,9.2,14.3,19.3,19,30.5c3.5,8.3,6.9,16.5,8.7,25.4c3.3,16,0.5,31-5.8,45.5c-5.8,13.2-13.8,25.2-23.4,36
	c-8.9,10-20.1,16.8-32.5,21.5c-21.4,8.2-42.6,16.9-63,27.5c-10.2,5.3-18.8,12.1-22.9,23.1c-4.2,11.4-3.3,27.1,6.9,35.5
	c4.3,3.6,9.4,5.3,14.6,5.8c14.8,1.4,29.6,2.4,44.5,3.1c15.5,0.7,31,0.7,46.5,1.1c8.7,0.2,17.3,1,26,0.9c14.6-0.1,27.1-5.5,38.1-15.3
	c15.8-14.3,24.7-32.6,32-52c2.9-7.6,5-15.6,11.3-21.7c4.3-4.1,9.3-5.3,14.6-5.3c12.3,0.1,24.7,1.6,37,1.2c16-0.6,32-2.7,45.9-11.5
	c5.9-3.7,11-9,15.5-14.4c8.8-10.6,13-23.8,18-36.4c2.4-6,3.8-12.3,5.6-18.5c2.4-8.1,1.3-15.3-5.5-21c-3.2-2.7-6.1-6-9.6-8.4
	c-10.6-7.3-16.2-18.1-20.9-29.6c-5.5-13.2-10.2-26.8-11.7-41c-1.2-10.7-0.1-21.6,0.3-32.5c0.2-5,1.1-10,1.4-15
	c0.7-9.7,4.8-16.7,14-21.1c9-4.3,18.3-8.1,26.2-14.7c9.4-7.8,16-17.6,22.4-27.7c10.8-17,18.7-35.4,25-54.5
	c7.8-23.8,25.7-35.5,48.6-41.5c11.1-2.9,22.5-4,34-4.1c16.3-0.1,32.7-0.3,49-1.1c8-0.4,11.9-4.2,9.5-14.4c-2.8-11.7-6.3-23.3-8.9-35
	c-3.8-17.8-7.2-35.6-10.5-53.5c-1-5.1-1.2-10.4-2.1-15.5c-2.1-11.5-10.3-18.2-22.5-18.5c-1.2,0-2.3,0-3.5,0"/>
<path fill="none" stroke="#BCBEC0" stroke-width="0.75" stroke-linecap="round" stroke-linejoin="round" stroke-miterlimit="10" d="
	M626.4,175c-13.4,3.3-23.7,11-30.9,22.5c-9.1,14.5-20.7,26.8-32,39.5c-8.9,9.9-15.9,20.9-19.6,33.9c-1.6,5.5-3.9,10.7-5.9,16
	c-4.5,11.7-13.5,19.5-23,27c-8.9,7.1-16.6,15.1-18.5,27c-1.3,7.9-1.7,15.8-0.8,24c1.1,10.7,0,21.6-0.2,32.5c-0.1,6-1.3,12.2-0.3,18
	c1.8,10,11.9,15.6,23.2,11.9c6.5-2.1,12.7-5.1,19-7.9c10.4-4.6,21.3-6.9,32.5-8.6c16.4-2.4,33.1-2.7,49-7.9
	c17.3-5.7,27-18.2,29.8-35.5c2.4-14.7-3.6-27.4-13.8-37.9c-6.1-6.2-12.6-12-19-18c-6.7-6.4-8.1-14.4-6.4-23c1.5-7.7,3.4-15.4,5.5-23
	c3.2-11.7,11.3-19.4,21.5-24.9c5.4-2.9,11.2-5,17-7c7.9-2.8,15.2-5.5,17.6-15c1-4,0-7.4-1.3-10.5c-6.6-15-17-26.4-32.9-32
	c-3.1-1.1-6.6-0.8-10-1.1"/>
<path fill="none" stroke="#BCBEC0" stroke-width="0.75" stroke-linecap="round" stroke-linejoin="round" stroke-miterlimit="10" d="
	M1723.3,151c-7.3,2.9-11.4,8.7-12.4,16c-2.5,18.3-7.2,36.3-9.8,54.5c-3.7,25.7,7.3,42.7,34.2,50.3c12.7,3.6,25.2,1.2,36.4-5.9
	c9.6-6.1,15.8-19.4,11.7-35.5c-2.1-8.4-5.4-16.1-10.3-22.9c-7.6-10.5-12.4-22.3-17.6-34c-2.5-5.8-6.4-11.1-10.4-16
	c-5.5-6.6-13.3-7.3-21.4-6.6"/>
<path fill="none" stroke="#BCBEC0" stroke-width="0.75" stroke-linecap="round" stroke-linejoin="round" stroke-miterlimit="10" d="
	M824.4,142c-5,3.2-10.4,5.8-14.9,9.6C797,162.1,782,168,767.9,175.5c-10.9,5.8-21,12.7-25.9,24.5c-3.4,8.2-4.5,16.7-3.5,26
	c1.1,9.9,4,19.2,6.9,28.4c4.5,14.2,0.8,26.1-9.1,36.5c-4.7,5-9.6,9.7-14.5,14.5c-9.2,9.1-13.2,20.2-14.1,33
	c-2.3,31.7-11.3,61.3-31.6,86.4c-9.5,11.8-22.4,18.4-38.3,18.2c-11.2-0.1-22-2.9-33-3.9c-15.9-1.4-31.7-0.4-46,8.3
	c-12.1,7.4-24,15.3-36.6,21.8c-9.6,5-20.2,8.4-30.4,12.2c-13.3,4.9-25.8,10.8-34,23c-6.4,9.5-9.1,25-0.4,33.9
	c3.4,3.5,7.9,6.7,12.5,8.4c8.1,3,16.5,5.1,24.9,7.2c18.7,4.6,34.8,13.4,45.9,29.6c9.7,14.1,15.9,29.5,15,46.9
	c-0.7,13.2-5.3,25.5-11.6,36.9c-7.7,14.1-17.7,26.5-32.4,34c-6.9,3.5-14.2,6.3-21.5,9.1c-21,8.1-42.1,15.7-62.9,24.1
	c-16.3,6.7-24.8,20.1-28.6,36.9c-2.1,9.3-4.1,18.7-6.5,28c-2.6,9.8-8.7,16.9-18,21c-10.4,4.5-20.9,9-31.5,13
	c-13.5,5-24.5,12.8-29.8,26.6c-2.3,6-3,12.6-4.1,18.9c-1.4,8.1-2.7,16-6.4,23.5c-4.9,10.1-9.9,20.4-13.4,31
	c-4.4,13.2-3.9,26.8,3.4,38.8c10.9,17.9,27.6,21.1,45.3,11c9.4-5.3,17.1-12.9,23.9-21.1c8.9-10.6,20.3-17.1,32.6-22.4
	c11.2-4.8,22.6-8.9,33.1-15.4c10.8-6.8,15.9-16.6,17.3-28.6c0.5-4.6-0.4-9.3-0.9-14c-0.9-7.3-2.4-14.6-2.9-22
	c-1-15.7,8.8-26.5,25.4-27.9c15-1.3,30-2.1,45-3c7.5-0.5,15-1,22.5-0.9c9.7,0,19.3,0.5,29,1c14.8,0.8,27.9-4,40-12
	c14.4-9.6,27.9-20.2,38.4-34.1c3.6-4.7,6.5-10.1,9-15.5c4.7-10.3,12.7-16.2,23.6-18.4c16.3-3.4,32.7-6.4,49-10.1
	c20.9-4.8,39.2-14.9,55-29.5c7.2-6.7,12-15.1,17.1-23.4c5.8-9.5,11.7-19.1,18.5-27.9c9.4-12.3,11.1-27.4,4.5-41.1
	c-4.3-8.9-9.9-16.7-17.1-23.5c-11.3-10.6-21.3-22.2-28.1-36.4c-6.2-12.9-9.4-26.3-7.8-40.5c1-8.6,3.6-17.1,8.4-24.5
	c9.2-14.2,19.3-27.9,27.8-42.6c7.5-13.1,13.2-27.2,19.7-40.9c6-12.6,9.8-26.2,18.4-37.5c10.5-13.9,24.5-21.5,41.5-24
	c20-2.9,39.5-0.8,57.9,7.2c12.5,5.4,21.8,15,28.6,26.8c6.7,11.7,12.9,23.6,20.1,34.9c7.5,11.9,17.7,21.1,31.9,24.5
	c9.3,2.2,17.6-1.2,25.5-5.5c20.3-11.2,33.4-28.6,42.5-49.5c1.8-4.2,3.5-8.5,4.5-13c2.1-9.6-3.4-15.7-10.9-19.9
	c-22-12.3-44.8-23.2-68-33.1c-5.6-2.4-11.4-4.5-17-7c-14.6-6.8-23.9-18.2-29.1-33.4c-4.1-12.2-6.6-24.7-6.9-37.5
	c-0.2-9.3-0.7-18.7,0.2-28c0.7-7.5,0.2-14.8-1.4-22c-2.3-10.4-11.3-18.6-23.8-20.6c-12.6-2-24.5,1.1-36.5,3.6
	c-13.6,2.8-27,4.4-40.1-2.8c-7.7-4.2-12.6-10.5-17-17.6c-1.6-2.6-3.6-5-5.5-7.5c-2.8-3.6-6.4-5.2-11-4.5"/>
<path fill="none" stroke="#BCBEC0" stroke-width="0.75" stroke-linecap="round" stroke-linejoin="round" stroke-miterlimit="10" d="
	M1707.3,123c-5.4,1.4-10.5,2.9-14.6,7.4c-5.5,5.8-7.6,12.5-7.9,20.1c-0.8,19.6-1.2,39.2-5.8,58.5c-3.4,14.3-2.5,28.9,1.1,43.5
	c3,12.5,8.6,23.8,13.6,35.5c2.3,5.4,4.5,11.2,4.8,17c0.2,5.1-2.5,10.3-3.6,15.5c-2.7,12.5-10.9,17-23,18.8
	c-11.1,1.6-22.3,3.5-32.6,9.1c-12.9,6.9-21.7,17-26.3,30.7c-3.1,8.9-5.2,18-8.1,27c-6.1,19.1-14.5,37.2-25.4,54
	c-9,13.8-8.9,28.3-1,42.4c7.5,13.3,22.2,18.9,37.9,13.9c8-2.6,15.6-6.7,23.6-9.2c4.9-1.6,10.3-2.2,15.4-2
	c10.9,0.4,15.4,8.6,16.5,18.3c1,9.4-2.2,18.2-4.5,27c-3.1,11.7-3.3,23.3,1.2,34.5c5.1,12.5,12.8,16.8,25.9,14.6
	c11.3-1.9,22.8-3.2,33.9-0.3c8.2,2.1,15.8,6.6,20.1,14.8c5.8,11,12,21.8,17.3,33.1c2.6,5.5,5.9,10,10.7,13.4
	c5.6,4,11.1,0.6,15.3-2.1c12.5-8.3,24.6-17.3,36.6-26.4c5.3-4,10.4-8.6,15-13.5c11.7-12.2,11.8-26.7,6.4-41.4
	c-4.5-12.4-9.7-24.6-15.5-36.5c-4.8-9.8-12.1-18-20.4-25c-11.3-9.6-22.6-19.3-34.6-27.9c-8.5-6.1-18-10.9-27.4-15.6
	c-16.9-8.4-27.1-21.4-31.1-40c-3.8-17.2-9.1-34.1-13.8-51c-2.2-7.7-3.6-15.5-2.9-23.5c0.5-6.5,4.3-11.2,9.4-15
	c7.3-5.6,12.5-12.7,15.6-21.5c4.8-13.6,15.2-21.6,28.4-26.6c11.6-4.4,23-9.3,34.5-13.9c7.1-2.9,12.7-7.8,17.3-13.7
	c1.9-2.5,2.6-6.5,2.6-9.9c-0.1-20.7-5.3-40.1-15.8-58c-8.6-14.5-16.6-29.4-25.1-44c-10.8-18.6-28.5-26.7-48.5-30.9
	c-4.7-1-9.6-0.8-14.5-1.1"/>
<path fill="none" stroke="#BCBEC0" stroke-width="0.75" stroke-linecap="round" stroke-linejoin="round" stroke-miterlimit="10" d="
	M568.4,971.9c-8.7,3.6-8.4,11.3-7.3,18.5c1,7,3.2,14,8.3,19.5c5.3,5.6,9.7,5,12.4-2.5c3.1-8.8,3.7-18.2-0.1-26.9
	c-2.2-5-5.9-9.7-12.8-8.6"/>
<path fill="none" stroke="#BCBEC0" stroke-width="0.75" stroke-linecap="round" stroke-linejoin="round" stroke-miterlimit="10" d="
	M52.5,119c-5.5,1.8-11.3,2.6-16,6.4c-7,5.7-8,10.8-4.1,19.1c2.3,4.9,5.9,8.3,10.1,11.5c11.9,9,24.1,17.8,38,23.4
	c7.2,2.9,14.4,3.5,21.5-0.9c4.7-3,7.5-8.6,5.9-14c-1.3-4.3-2.7-8.7-5-12.5c-4.5-7.4-9.2-14.7-14.5-21.5c-5.9-7.6-14.3-11-23.9-11.5
	c-3.8-0.2-7.7,0-11.5,0"/>
<path fill="none" stroke="#BCBEC0" stroke-width="0.75" stroke-linecap="round" stroke-linejoin="round" stroke-miterlimit="10" d="
	M1286.3,101c-15.8,3.5-20.9,16.2-24.3,29.5c-3.7,14.3-5.8,29-9.3,43.4c-2.2,9.3-6.4,18.1-14.9,23.5c-12.2,7.6-24.8,14.5-36.9,22.1
	c-11.2,7.1-16.8,17.5-16,30.9c0.2,3.5,0.7,6.8,3.4,9.6c2.2,2.3,4.5,3.1,7.6,3c16.6-0.6,33,1.7,49.5,3.7c13,1.6,26.3,1.2,39.5,1.2
	c12.9-0.1,25.4,1.4,38,3.9c15.2,3,27.3-3,36-15.8c9.4-14,15.2-29.3,18.2-46c1.8-10.5,5.4-20.6,7.8-31c1.8-7.9,3.6-16,3.8-24
	c0.2-8.6-3.2-16.3-9.2-23.1c-7.2-8.1-16.1-12.8-26.1-15.9c-13.2-4-26.4-7.9-39.5-12.1c-8.8-2.8-17.9-3.2-27-3"/>
<path fill="none" stroke="#BCBEC0" stroke-width="0.75" stroke-linecap="round" stroke-linejoin="round" stroke-miterlimit="10" d="
	M457.4,100c-5,2.2-6.5,6.3-6.5,11.5c-0.1,10.4-0.2,20.7,4,30.5c5.2,11.8,14,18.7,30,15.1c6.3-1.4,11.8-3.5,16-8.6
	c2.5-3,4.4-11.7,2.4-15c-8.9-14.6-20.5-26.2-37-32c-2.7-0.9-5.6-1.1-8.5-1.6"/>
<path fill="none" stroke="#BCBEC0" stroke-width="0.75" stroke-linecap="round" stroke-linejoin="round" stroke-miterlimit="10" d="
	M312.5,82c-5.3,2.5-7.2,6.6-6,12c3.4,15.8,13,28.4,21.6,41.5c7.3,11.2,17.7,18.8,29,25.5c8.1,4.8,16,10,24,15
	c9.5,5.8,16.4,2.6,22.4-5.5c9.6-13.1,8.8-32.8-1.9-44.5c-6.8-7.5-15.7-10.7-25-12.9c-8.5-2.1-17.1-3.6-25.5-6.1
	c-9.2-2.7-15.5-10.1-23.1-15.4c-4.9-3.4-10-6.4-15-9.5"/>
<path fill="none" stroke="#BCBEC0" stroke-width="0.75" stroke-linecap="round" stroke-linejoin="round" stroke-miterlimit="10" d="
	M1125.4,86c-7.3,1.5-13.5,4.4-17,11.5c-3.4,6.8-1.4,17.6,4.5,24c7.3,8,16.6,12.5,27,15c8.6,2.1,17.1,3.5,26,1.6
	c7.2-1.5,13.4-4.2,15.9-11.6c2.7-8,1.6-15.7-3.5-22.4c-8.2-10.9-20.2-15-33-16.9c-6.4-1-13-0.8-19.5-1.1"/>
<path fill="none" stroke="#BCBEC0" stroke-width="0.75" stroke-linecap="round" stroke-linejoin="round" stroke-miterlimit="10" d="
	M1664.3,411.9c-10.5,7-15,17.5-16.5,29.5c-0.5,4,2.2,8.1,6.5,8.9c9.1,1.7,17.8,0.8,23-6.9c5.7-8.3,5.7-23.8-5.6-30.9
	c-1.7-1.1-4.6-0.5-6.9-0.6"/>
<path fill="none" stroke="#BCBEC0" stroke-width="0.75" stroke-linecap="round" stroke-linejoin="round" stroke-miterlimit="10" d="
	M392.5,420.9c-11.8,3.2-20.8,10.9-27.8,20.1c-13.3,17.4-30,30.3-48.6,41.5c-7.5,4.5-14.7,9.9-20.9,16c-10.7,10.4-9.9,22,0.4,32.3
	c8.6,8.6,19.2,14.1,31,15.8c9.2,1.3,18.8,1.2,27.9,0c13.5-1.8,23-9.5,25.9-23.3c4.2-19.8,12.4-38.3,18.5-57.5
	c2.7-8.4,4.4-17.1,7.2-25.4c3-9.1-1.6-18.7-13.1-19.5"/>
<path fill="none" stroke="#BCBEC0" stroke-width="0.75" stroke-linecap="round" stroke-linejoin="round" stroke-miterlimit="10" d="
	M870.9,453.4c-3.8,0.3-7.8,0.1-11.5,1.1c-12,3.2-20.3,11.3-25.9,21.9c-5.5,10.4-8.2,21.8-9.6,33.5c-0.6,4.8-2,9.7-1.8,14.5
	c0.3,9.4,1.2,19,6.9,27c6.2,8.7,13.2,16.9,19.4,25.6c4.7,6.7,9.2,13.7,13,21c7.6,14.6,15,29.3,25.1,42.4c5.2,6.9,4.3,17-0.8,22.6
	c-6.4,7-11.7,15.1-17.1,22.9c-1.6,2.3-3.5,5.2-1.1,8.5c2.6,3.5,6.5,3.1,9.5,2.3c9.1-2.5,18.1-5.7,27-8.9c3.5-1.3,6.9-3,10-5
	c4.2-2.8,5-6.8,2.5-11.4c-2.5-4.5-5.3-8.9-8.5-13c-4.1-5.2-4.3-10.7-1.4-16c9.1-16.6,18.2-33.3,28-49.5c7.9-13,20.4-19.5,35.4-21
	c6.8-0.7,13.7-0.4,20.5-1.1c10.6-1.2,17.9,3.9,23.5,12.1c5.6,8.1,8.6,17.3,9.9,27c1.4,10.4,1.9,21,3.2,31.5c0.6,4.9,2.3,9.7,6.4,13
	c6.8,5.4,13.4,6.2,20.4,0.9c6.2-4.7,12-10,17-16c8.7-10.4,15.8-21.8,20.3-34.8c4.9-14.4-0.5-27-12.6-34.1
	c-9.8-5.8-20.3-8.7-31.5-9.5c-6-0.4-12.1-0.8-18-2.1c-10.2-2.2-16.6-8.6-19.1-18.9c-3.4-14-6.2-28.2-10.7-41.9
	c-5.8-17.9-17-31.4-36.3-36c-6.5-1.5-13.3-2.8-20-2.9c-12.8-0.1-25.4-1.9-38-4c-7-1.2-14.3-0.8-21.5-1.1c-4-0.2-8-0.3-12-0.5"/>
<path fill="none" stroke="#BCBEC0" stroke-width="0.75" stroke-linecap="round" stroke-linejoin="round" stroke-miterlimit="10" d="
	M600.4,476.9c-3.7,0.8-7.7,1-10.9,2.6c-10.4,5.2-17,13.5-18.6,25.4c-1.3,9.5-2.4,19-4.1,28.5c-2.3,13.2-1.2,26,3.2,38.5
	c4.1,11.8,9.4,23.3,13.8,35.1c3,8.1,4.2,16.7,4.2,25.5c-0.1,11.5-0.4,22.9-4,34c-2.2,6.9-6.1,12.6-10.6,17.9
	c-9.4,11.1-19,22-28.5,33c-12.2,14.1-28.4,20.4-46,24.6c-13.3,3.1-25.9,8.3-37.4,15.6c-4.5,2.8-8.7,6.7-11.9,11
	c-5.7,7.4-5.2,14.7,3.8,21.9c5.5,4.4,12,6,18.5,7.4c12.2,2.6,24.5,3.2,37,3.1c11.2-0.1,22.4-0.1,33.5,1.1c8.6,1,16.7,0.3,25-1.1
	c6.8-1.1,12.4-4.4,17.4-8.7c10.9-9.2,17.4-21.4,22.5-34.4c5.5-14,7.3-28.6,7.7-43.5c0.1-5.5,1.4-11.1,3-16.5
	c2.8-9.8,11.1-12.8,19.9-15c9.8-2.5,18.7-0.1,27.6,4.4c6.8,3.5,13.9,6.3,22,3.7c5.6-1.8,10.7-7.8,10.4-13.5c-0.5-11.3-2-22.7-1.8-34
	c0.2-12.5,1.2-25.1,3.7-37.5c2.1-10.7,2.5-21.7,4.2-32.5c2.3-14.8,2-29.6,1.9-44.5c0-9.7-1.6-19.2-5.6-27.9
	c-5.4-11.8-14.6-19.1-27.9-20c-12-0.8-24-1.4-36-2c-11.8-0.7-23.7-1.3-35.5-2"/>
<path fill="none" stroke="#BCBEC0" stroke-width="0.75" stroke-linecap="round" stroke-linejoin="round" stroke-miterlimit="10" d="
	M1295.3,123c-12.4,3.8-15.4,14-17.5,25c-2,10.4,0.2,20.4,1.9,30.5c2.6,15.5,0.3,30.2-7.4,44c-2.5,4.6-2.1,8.1,1,10.5
	c0.7,0.5,1.6,0.9,2.5,1c12.7,0.7,25.4,2.2,38,1.8c17.5-0.5,27-11.9,28.1-27.8c0.8-11.2,2.7-22.4,4.4-33.5c1.7-10.9-0.3-20.5-8-29.1
	c-8.5-9.4-17.7-17.8-30.1-21.3c-3.9-1.1-8.3-0.8-12.5-1.1"/>
</svg>
